if (_typeface_js && _typeface_js.loadFace) _typeface_js.loadFace({"glyphs":{"0":{"ha":476,"x_min":0,"x_max":0,"o":"m 79 579 b 71 518 75 560 74 539 b 64 394 67 478 65 436 b 64 278 63 354 63 314 b 169 10 64 278 60 69 b 226 3 176 7 199 1 b 335 68 299 10 335 68 b 401 285 385 144 401 285 b 389 625 433 496 389 625 b 246 779 344 772 246 779 b 144 749 188 788 153 758 b 79 579 144 749 104 715 z m 274 153 l 274 153 b 179 53 274 153 229 24 b 122 213 133 75 122 213 b 117 311 118 243 117 276 b 118 415 115 344 117 379 b 193 740 125 685 193 740 b 193 740 193 740 193 740 b 281 664 204 747 240 760 b 299 610 281 664 293 633 b 306 567 301 596 304 582 b 310 508 308 547 310 528 b 310 446 311 488 311 467 b 308 381 310 424 310 403 b 300 263 307 339 306 299 b 274 153 300 263 290 200 z "},"1":{"ha":231,"x_min":0,"x_max":0,"o":"m 104 778 b 26 700 74 756 26 700 b 31 658 13 685 14 672 b 56 658 43 649 56 658 b 83 685 63 664 72 674 b 63 165 68 533 65 247 b 113 8 60 56 64 8 b 153 99 146 8 153 99 b 156 715 171 243 171 624 b 104 778 140 810 104 778 z "},"2":{"ha":379,"x_min":0,"x_max":0,"o":"m 240 221 b 278 307 254 249 265 278 b 336 526 325 419 336 526 b 340 624 342 565 342 597 b 322 707 338 665 326 696 b 206 782 288 792 206 782 b 144 761 182 781 161 774 b 94 685 103 731 94 685 b 90 653 90 671 90 661 b 97 633 92 643 93 638 b 110 625 100 629 104 626 b 121 632 114 625 117 628 b 147 685 129 646 147 685 b 221 726 147 685 168 735 b 279 635 221 726 281 718 b 275 589 279 621 278 607 b 225 429 265 528 243 469 b 144 253 208 392 172 308 b 50 103 144 253 92 157 b 42 83 49 100 43 92 b 63 11 38 64 35 25 b 76 7 65 10 69 7 b 233 6 76 7 151 -4 b 271 10 250 8 264 8 b 296 33 300 17 296 33 b 268 51 296 42 285 47 b 135 58 203 68 135 58 b 240 221 189 122 240 221 z "},"3":{"ha":428,"x_min":0,"x_max":0,"o":"m 246 135 b 167 47 242 126 208 44 b 99 165 117 50 99 165 b 89 203 94 182 92 196 b 72 228 83 218 78 225 b 64 229 68 231 64 229 b 49 197 56 228 51 215 b 54 126 47 178 49 153 b 92 43 54 126 65 74 b 178 1 101 31 128 6 b 261 17 206 0 236 4 b 369 215 356 65 369 215 b 374 253 372 229 372 242 b 310 479 381 406 310 479 b 336 565 319 494 332 521 b 336 624 338 588 338 607 b 318 707 333 665 322 696 b 238 779 294 769 238 779 b 201 782 225 782 213 783 b 140 761 178 781 157 772 b 89 685 101 736 89 685 b 86 653 86 671 85 661 b 92 633 86 643 89 638 b 106 625 96 629 100 626 b 115 632 110 625 113 628 b 125 649 119 636 122 643 b 196 726 125 649 149 715 b 251 711 196 726 232 736 b 275 635 260 703 275 682 b 271 589 274 621 274 607 b 261 549 268 575 265 563 b 164 467 251 517 225 457 b 139 451 164 467 138 471 b 207 419 140 432 167 414 b 246 431 218 421 232 425 b 288 354 278 408 285 368 b 246 135 288 354 297 260 z "},"4":{"ha":354,"x_min":0,"x_max":0,"o":"m 114 660 b 63 550 96 628 78 589 b 31 326 63 550 13 403 b 36 311 32 318 35 314 b 42 307 39 308 40 307 b 69 299 51 299 69 299 b 167 296 108 294 167 296 b 164 165 165 239 165 192 b 213 8 160 56 165 8 b 253 99 246 8 253 99 b 265 299 260 146 264 219 b 290 301 276 300 285 300 b 318 325 322 308 318 325 b 288 343 318 333 306 339 b 267 347 281 344 274 346 b 257 715 269 499 265 660 b 204 778 242 810 204 778 b 114 660 160 744 114 660 z m 63 346 b 106 510 81 440 106 510 b 183 676 160 654 183 676 b 168 351 175 589 171 460 b 63 346 115 358 63 346 z "},"5":{"ha":433,"x_min":0,"x_max":0,"o":"m 257 153 b 178 53 253 143 219 49 b 110 186 135 58 110 186 b 100 229 106 206 103 221 b 83 257 94 246 89 254 b 75 258 79 260 75 258 b 60 222 67 257 63 243 b 65 143 58 201 60 172 b 96 57 71 114 81 82 b 189 1 96 57 121 6 b 272 18 215 0 247 3 b 369 178 340 63 369 178 b 378 410 401 315 378 410 b 267 590 360 538 267 590 b 128 629 186 638 128 629 b 132 725 138 674 132 725 b 319 726 188 719 293 719 b 346 749 350 733 346 749 b 136 778 343 783 172 775 b 88 757 107 779 92 772 b 83 607 88 757 65 668 b 106 588 89 586 106 588 b 106 588 106 588 106 588 b 296 425 133 583 267 556 l 296 425 b 294 306 296 425 303 378 b 257 153 294 306 286 218 z "},"6":{"ha":449,"x_min":0,"x_max":0,"o":"m 60 385 b 92 114 60 385 47 206 b 225 4 142 6 225 4 b 293 13 238 4 271 3 b 365 100 347 36 365 100 b 389 286 396 199 389 286 b 353 404 383 365 353 404 b 261 449 319 453 261 449 b 158 396 197 451 158 396 b 190 624 167 543 190 624 b 265 733 203 672 226 733 b 329 646 319 733 328 665 b 331 635 329 646 329 640 b 332 599 331 619 331 606 b 336 582 333 592 335 586 b 342 574 338 578 340 575 b 350 569 346 569 350 569 b 372 596 358 568 367 578 b 379 628 375 606 378 617 b 321 771 386 733 321 771 b 226 779 278 800 226 779 b 90 617 226 779 139 757 b 60 385 90 617 63 539 z m 335 210 b 333 200 335 207 335 203 b 333 194 333 199 333 196 b 333 190 333 193 333 192 b 332 181 332 186 332 183 b 331 171 331 176 331 174 b 318 117 326 147 322 129 b 304 88 314 106 310 96 b 303 85 304 86 303 85 b 301 81 303 83 301 82 b 299 78 300 79 300 79 b 247 56 292 68 272 46 l 247 56 b 226 68 240 60 233 64 b 203 90 218 74 210 81 b 182 121 196 99 189 108 b 168 165 176 133 171 149 b 156 278 160 197 156 236 b 156 283 156 279 156 281 b 156 286 156 283 156 285 b 171 324 160 297 165 310 b 172 325 171 324 172 325 b 174 328 172 326 172 328 b 175 333 174 329 175 331 b 178 338 176 335 178 336 b 181 342 179 339 179 340 b 186 351 182 346 185 349 b 189 356 188 353 189 354 b 193 360 190 357 192 358 b 207 375 197 365 201 371 b 224 388 213 381 218 383 b 263 394 235 393 249 396 b 268 394 265 394 267 394 l 274 393 b 279 393 275 393 278 393 l 282 392 l 285 392 b 293 389 288 390 290 390 b 300 383 294 388 297 386 b 313 369 304 381 308 375 b 318 360 314 367 315 364 b 322 350 319 357 321 353 b 333 303 328 335 331 319 b 336 254 335 286 336 271 b 335 210 336 239 336 224 z "},"7":{"ha":388,"x_min":0,"x_max":0,"o":"m 179 42 b 183 74 183 57 183 74 b 194 225 186 111 189 165 b 221 415 199 286 207 353 b 244 504 226 446 235 476 b 275 581 254 532 264 558 b 332 676 306 639 332 676 b 365 736 353 706 365 736 b 364 764 374 756 364 764 b 351 768 361 767 357 768 b 89 781 240 789 89 781 b 25 747 43 781 24 771 b 64 731 25 732 64 731 b 203 728 64 731 121 725 b 281 731 232 729 281 731 b 207 644 281 731 239 694 b 153 536 186 613 168 575 b 119 415 139 497 128 456 b 97 69 119 415 82 211 b 108 29 97 69 99 44 b 153 8 118 11 133 7 b 179 42 167 8 174 25 z "},"8":{"ha":453,"x_min":0,"x_max":0,"o":"m 138 735 b 122 707 132 726 126 717 b 103 558 89 619 103 558 b 150 463 103 558 110 482 b 67 296 82 431 67 296 b 104 61 67 296 39 149 b 211 8 104 61 139 10 b 265 15 229 8 249 8 b 375 149 343 44 375 149 b 386 232 381 168 385 197 b 383 286 386 249 386 268 b 301 451 371 414 301 451 b 378 642 406 474 378 642 b 218 781 357 797 218 781 l 218 781 b 138 735 167 776 138 735 z m 182 726 b 217 746 185 729 199 744 l 217 746 b 296 579 217 746 311 753 b 231 476 289 486 244 478 b 165 511 186 475 165 511 b 147 636 135 554 147 636 b 182 726 147 636 151 689 z m 119 299 b 135 358 125 325 131 344 b 157 403 142 376 150 392 b 197 429 160 406 175 428 l 197 429 b 238 403 214 428 228 417 b 289 203 238 403 307 326 b 213 64 281 76 229 64 b 121 158 136 60 121 158 b 119 299 107 221 119 299 z "},"9":{"ha":446,"x_min":0,"x_max":0,"o":"m 389 406 b 356 676 389 406 400 585 b 222 786 306 785 222 786 b 154 778 210 786 178 788 b 82 690 100 754 82 690 b 58 504 51 592 58 504 b 94 386 64 425 94 386 b 186 342 128 338 186 342 b 289 394 250 339 289 394 b 257 167 281 247 257 167 b 182 57 244 118 221 57 b 118 144 129 57 119 125 b 118 157 118 144 118 150 b 115 192 117 172 117 185 b 111 208 115 199 114 204 b 106 217 110 213 108 215 b 97 221 101 221 97 221 b 75 194 90 222 82 213 b 68 163 72 185 69 175 b 126 19 61 57 126 19 b 222 11 169 -10 222 11 b 357 174 222 11 308 33 b 389 406 357 174 385 251 z m 113 581 b 114 590 113 583 114 588 b 114 596 114 592 114 594 b 115 600 114 597 114 599 b 115 610 115 604 115 607 b 117 619 117 614 117 617 b 131 674 121 643 126 661 b 143 703 133 685 139 694 b 144 707 143 704 144 706 b 146 710 146 707 146 708 b 149 713 147 711 149 711 b 200 735 156 722 175 744 l 200 735 b 221 722 207 731 214 726 b 244 701 229 717 238 710 b 265 669 253 692 260 682 b 281 625 271 657 276 642 b 292 514 288 593 292 554 b 292 508 292 511 292 510 b 292 506 292 507 292 506 b 276 467 288 493 282 481 b 275 465 276 467 276 465 b 274 463 275 464 275 464 b 272 458 274 461 272 460 b 269 453 271 456 271 454 b 267 449 268 451 268 450 b 261 439 265 446 263 442 b 258 435 260 438 260 436 b 254 431 257 433 256 432 b 240 415 250 425 246 419 b 224 404 235 411 229 407 b 185 396 213 397 199 394 b 179 396 183 396 181 396 l 174 397 b 168 397 172 397 169 397 l 165 399 l 163 399 b 156 401 160 400 157 401 b 147 407 153 403 150 406 b 135 421 143 410 139 415 b 131 431 133 424 132 428 b 125 440 128 433 126 438 b 114 488 119 456 117 471 b 111 536 113 504 111 519 b 113 581 111 551 111 567 z "},"E":{"ha":543,"x_min":0,"x_max":0,"o":"m 301 -79 b 190 149 267 -81 175 -50 b 322 381 201 296 282 358 b 344 419 336 389 344 403 l 346 440 b 339 450 346 444 343 449 b 256 604 308 454 247 493 b 324 732 267 729 324 732 b 378 606 389 729 383 640 b 389 600 378 600 383 596 b 438 654 411 614 431 643 b 440 667 440 658 440 663 b 308 785 438 808 308 785 b 160 601 308 785 174 775 b 272 429 144 432 272 429 b 47 149 272 429 63 365 b 304 -129 25 -172 304 -129 b 503 75 304 -129 479 -137 b 397 281 524 250 433 276 b 390 269 392 281 388 275 b 429 89 406 242 438 171 b 301 -79 417 -17 363 -76 z "},"F":{"ha":338,"x_min":0,"x_max":0,"o":"m 417 782 b 381 794 406 790 393 794 b 94 756 338 797 240 800 b 67 729 82 751 71 740 l 56 703 b 60 699 56 701 57 699 b 117 711 72 701 90 707 b 110 685 114 703 111 693 b 67 10 72 449 60 207 b 108 -86 68 -26 81 -64 b 201 -131 135 -108 167 -124 b 218 -111 211 -133 219 -124 b 197 442 199 46 190 239 b 315 419 236 439 297 433 b 294 485 340 401 375 497 b 199 478 263 481 231 479 b 215 721 201 558 208 640 b 429 699 274 724 344 718 b 453 718 442 696 453 706 b 417 782 454 744 439 767 z "},"G":{"ha":539,"x_min":0,"x_max":0,"o":"m 429 176 b 303 -79 401 18 360 -85 b 200 296 243 -74 178 22 b 325 732 200 296 224 736 b 379 606 390 729 385 640 b 390 600 379 600 386 596 b 439 654 413 614 432 643 b 443 667 442 658 443 663 b 310 785 439 808 310 785 b 58 267 310 785 88 771 b 306 -129 35 -149 306 -129 b 422 -4 306 -129 379 -136 b 425 -51 424 -24 425 -39 b 440 -94 426 -67 432 -82 b 507 -133 457 -121 481 -136 b 524 -103 519 -132 528 -117 b 494 269 485 64 486 190 b 468 331 497 306 483 322 b 447 336 461 335 453 336 b 331 344 408 338 369 340 b 308 279 250 357 285 261 b 450 301 332 296 419 301 b 429 176 450 301 440 263 z "},"H":{"ha":614,"x_min":0,"x_max":0,"o":"m 556 789 b 464 694 503 789 471 740 b 419 200 438 528 422 357 b 251 214 354 210 299 214 b 318 778 261 546 303 722 b 303 792 321 788 313 796 b 193 660 228 765 193 660 b 167 214 161 568 160 378 b 88 206 129 211 103 207 b 56 192 76 203 65 199 b 25 115 32 172 18 144 b 46 104 26 106 36 100 b 169 135 86 118 129 128 b 186 -85 176 11 186 -85 b 218 -126 186 -104 200 -121 b 239 -129 225 -128 232 -129 b 253 -117 246 -131 253 -124 b 250 146 249 -21 249 67 b 418 149 314 151 372 151 b 419 11 417 100 418 54 b 461 -86 421 -25 433 -62 b 553 -131 488 -107 518 -124 b 571 -111 563 -133 572 -124 b 574 765 542 128 539 450 b 556 789 575 778 567 790 z "},"I":{"ha":290,"x_min":0,"x_max":0,"o":"m 310 775 b 281 788 301 783 292 788 b 61 751 246 790 179 796 b 38 725 51 747 42 736 l 31 699 b 33 694 29 697 31 694 b 138 713 50 700 86 710 b 133 692 136 706 135 699 b 86 29 96 454 79 228 b 126 -68 88 -7 100 -46 b 138 -76 131 -71 135 -74 b 57 -78 107 -79 79 -79 b 51 -85 53 -78 51 -81 b 103 -125 57 -108 75 -121 b 254 -126 182 -135 228 -131 b 282 -114 264 -124 274 -121 b 308 -58 300 -100 310 -81 b 288 -44 307 -49 297 -42 b 233 -60 268 -51 250 -56 b 238 708 210 160 210 428 b 321 692 264 706 290 700 b 340 711 331 689 339 699 b 310 775 340 738 328 760 z "},"J":{"ha":728,"x_min":0,"x_max":0,"o":"m 538 374 b 144 138 358 332 218 225 b 146 -290 18 -12 8 -244 b 424 -235 299 -340 424 -235 b 668 353 611 -94 658 254 b 781 349 719 356 758 351 b 799 367 790 349 800 357 b 782 383 797 375 790 382 b 672 390 744 389 707 390 b 678 526 675 438 678 483 b 643 625 679 563 668 601 b 553 676 618 649 588 665 b 535 657 543 679 533 669 b 540 501 538 608 539 556 b 538 374 540 501 542 436 z m 356 -183 b 139 -231 356 -183 244 -292 b 89 -90 139 -231 78 -200 b 240 186 106 78 240 186 b 535 333 338 269 443 313 b 356 -183 524 211 485 -64 z m 594 707 b 674 765 639 707 674 733 b 594 824 674 797 639 824 b 515 765 551 824 515 797 b 594 707 515 733 551 707 z "},"K":{"ha":492,"x_min":0,"x_max":0,"o":"m 443 185 b 211 421 431 294 376 411 b 379 692 311 519 361 624 b 382 725 382 703 383 714 b 329 788 375 756 357 779 b 308 774 319 790 310 785 b 190 461 288 624 231 519 b 213 765 193 561 201 664 b 193 789 214 778 206 790 b 101 694 142 789 110 740 b 57 11 64 457 50 210 b 99 -86 58 -25 71 -62 b 192 -131 125 -107 157 -124 b 208 -111 201 -133 210 -124 b 188 385 192 32 183 203 b 321 4 250 368 367 296 b 289 -118 308 -71 294 -97 b 307 -128 286 -126 297 -129 b 436 -15 418 -111 436 -15 b 443 185 436 -15 458 57 z "},"L":{"ha":388,"x_min":0,"x_max":0,"o":"m 410 38 b 385 42 404 46 393 49 b 200 -68 319 -11 257 -46 b 208 765 176 167 176 468 b 190 789 210 778 201 790 b 99 694 138 789 106 740 b 54 11 61 457 47 210 b 96 -86 56 -25 68 -62 b 111 -97 100 -90 106 -93 b 81 -104 100 -100 90 -101 b 76 -115 75 -104 72 -111 b 147 -142 93 -133 118 -144 b 381 -67 251 -129 332 -96 b 406 -42 392 -61 400 -53 b 410 38 421 -17 425 13 z "},"Æ":{"ha":1011,"x_min":0,"x_max":0,"o":"m 858 281 b 851 269 853 281 849 275 b 890 89 867 242 899 171 b 763 -79 878 -17 824 -76 b 651 149 728 -81 636 -50 b 783 381 663 296 743 358 b 806 419 797 389 806 403 l 807 440 b 800 450 807 444 804 449 b 717 604 769 454 708 493 b 785 732 728 729 785 732 b 839 606 850 729 844 640 b 850 600 839 600 844 596 b 899 654 872 614 892 643 b 901 667 901 658 901 663 b 769 785 899 808 769 785 b 621 601 769 785 635 775 b 733 429 606 432 733 429 b 544 275 733 429 608 390 b 571 765 544 431 553 599 b 553 789 572 778 564 790 b 553 789 553 789 553 789 l 553 789 b 553 789 553 789 553 789 b 519 782 540 789 529 788 b 240 483 451 763 301 697 b 192 214 215 394 200 300 b 83 206 139 213 103 208 b 53 192 72 203 61 199 b 21 115 29 172 15 144 b 43 104 24 106 33 100 b 185 139 90 119 139 131 b 182 -85 179 39 181 -44 b 215 -126 183 -104 196 -121 b 235 -129 221 -128 228 -129 b 249 -117 243 -131 249 -124 b 251 146 247 -81 243 22 b 414 149 314 151 371 150 b 417 11 414 100 414 54 b 457 -86 417 -25 431 -62 b 550 -131 483 -107 515 -124 b 567 -111 560 -133 568 -124 b 561 -62 565 -96 564 -79 b 765 -129 638 -150 765 -129 b 964 75 765 -129 940 -137 b 858 281 985 250 894 276 z m 436 515 b 415 200 426 408 418 301 b 257 214 356 208 303 213 b 463 707 278 410 331 631 b 436 515 463 707 450 651 z "},"œ":{"ha":701,"x_min":0,"x_max":0,"o":"m 669 224 b 667 224 668 224 668 224 b 657 219 664 225 660 222 b 599 113 650 203 628 154 b 478 39 599 113 540 32 b 406 214 392 49 406 214 b 408 231 406 219 407 225 b 565 299 533 211 565 299 b 547 401 592 360 547 401 b 450 435 528 422 497 439 b 328 339 450 435 375 433 b 192 436 301 404 249 440 b 75 296 126 432 72 363 b 49 232 54 265 49 232 b 219 4 26 111 85 -26 b 319 99 219 4 283 18 b 418 1 344 47 383 13 b 622 94 549 -39 622 94 b 678 203 639 122 658 158 b 669 224 682 211 678 221 z m 536 378 b 529 299 536 378 565 347 b 414 263 501 260 446 257 b 536 378 440 353 510 403 z m 279 151 b 214 49 261 56 224 51 b 156 196 146 33 151 151 b 288 208 196 182 246 185 b 279 151 288 208 285 174 z m 213 229 b 164 256 213 229 182 232 b 194 329 174 289 186 315 b 189 344 199 336 194 343 b 160 346 178 346 168 346 b 206 388 169 371 188 386 b 289 249 243 390 288 347 b 213 229 268 233 243 225 z "},"Œ":{"ha":978,"x_min":0,"x_max":0,"o":"m 828 282 b 821 271 822 282 818 276 b 860 90 835 243 868 172 b 732 -78 847 -15 793 -75 b 621 150 697 -79 606 -49 b 751 382 632 297 713 360 b 775 421 765 390 775 404 l 776 442 b 768 451 776 446 774 450 b 686 606 739 456 676 493 b 754 733 697 729 754 733 b 808 607 819 731 814 642 b 819 600 808 601 814 597 b 868 656 842 615 861 644 b 871 667 871 660 871 664 b 739 786 868 810 739 786 b 589 603 739 786 604 775 b 703 431 575 432 703 431 b 533 306 703 431 600 399 b 525 413 532 339 529 375 b 567 514 544 442 558 476 b 568 521 567 517 568 518 b 528 642 568 538 567 604 b 514 636 522 647 514 643 b 499 522 511 613 508 568 b 410 624 481 571 451 610 b 433 657 421 636 429 650 b 438 668 436 660 438 664 b 304 788 433 811 304 788 b 53 267 304 788 82 774 b 300 -131 29 -142 300 -131 b 490 15 300 -131 422 -139 b 735 -129 543 -158 735 -129 b 933 75 735 -129 910 -137 b 828 282 953 251 864 278 z m 378 574 b 447 400 425 569 442 486 b 421 388 439 393 431 389 b 339 490 393 383 349 390 b 378 574 332 576 378 574 z m 443 208 b 297 -81 429 7 358 -87 b 194 296 238 -72 172 22 b 319 735 194 296 218 739 b 376 629 374 732 379 669 b 313 606 336 632 313 606 b 269 500 293 588 274 557 b 372 350 263 415 313 364 b 449 351 418 339 449 351 b 443 208 450 275 443 208 z "},"ß":{"ha":535,"x_min":0,"x_max":0,"o":"m 103 -133 b 114 -125 108 -133 114 -131 b 115 111 110 -50 113 31 b 122 219 117 147 119 183 l 125 268 b 157 574 133 371 144 472 b 281 729 167 629 197 728 b 329 524 296 724 339 696 b 228 335 329 524 326 365 b 178 267 199 325 178 297 l 178 219 b 192 204 178 211 183 206 b 357 36 369 181 357 49 b 299 -82 357 22 361 -79 b 260 69 242 -83 253 25 b 244 83 261 78 253 85 b 167 35 208 74 183 51 b 143 -33 150 17 142 -8 b 278 -143 151 -135 278 -143 b 494 69 513 -156 494 69 b 232 267 490 269 232 267 b 457 488 446 271 457 488 b 283 785 469 638 444 776 b 42 417 104 794 33 604 b 40 111 40 338 38 222 b 43 -68 40 111 40 -6 b 44 -75 44 -71 44 -74 b 103 -133 47 -87 61 -128 z "},"M":{"ha":882,"x_min":0,"x_max":0,"o":"m 849 -112 b 829 467 828 51 821 254 b 811 663 835 592 811 663 b 722 729 786 742 722 729 b 578 483 656 717 608 608 b 558 663 581 599 558 663 b 469 729 533 742 469 729 b 358 561 425 722 389 653 b 197 789 350 704 299 783 b 36 671 96 794 51 711 b 32 625 31 657 29 640 b 99 547 43 578 78 556 b 113 557 106 544 113 550 b 190 751 107 625 140 774 b 214 192 244 728 246 432 b 168 -81 192 24 175 -53 b 181 -96 167 -89 172 -97 b 250 -71 213 -94 235 -82 b 275 -36 263 -62 271 -50 b 344 313 308 65 332 215 b 444 617 368 444 404 607 b 464 510 444 617 478 629 l 464 510 b 446 153 451 386 443 226 b 567 60 447 129 454 64 b 576 71 572 60 578 65 b 575 132 574 89 574 113 b 697 617 579 233 625 593 b 717 510 697 617 731 629 l 717 510 b 697 10 699 332 692 158 b 739 -86 699 -26 711 -64 b 831 -132 765 -108 796 -124 b 849 -112 840 -133 850 -124 z "},"N":{"ha":647,"x_min":0,"x_max":0,"o":"m 615 -112 b 597 467 596 51 589 254 b 579 663 603 592 579 663 b 490 729 547 750 490 729 b 356 510 438 721 392 625 b 192 789 356 683 306 783 b 31 671 92 794 46 711 b 28 625 25 657 24 640 b 93 547 38 578 72 556 b 108 557 100 544 108 550 b 186 751 103 625 136 774 b 210 192 240 728 242 432 b 164 -81 186 24 171 -53 b 176 -96 161 -89 168 -97 b 246 -71 207 -94 231 -82 b 271 -36 257 -62 265 -50 b 314 149 288 17 303 83 l 315 149 b 465 617 315 149 388 593 b 485 510 465 617 499 629 l 485 510 b 465 10 465 332 460 158 b 506 -86 467 -26 479 -64 b 599 -132 532 -108 564 -124 b 615 -112 608 -133 617 -124 z "},"O":{"ha":588,"x_min":0,"x_max":0,"o":"m 529 640 b 514 635 524 646 515 642 b 500 521 513 611 508 567 b 411 622 481 571 453 610 b 435 656 422 635 431 649 b 438 667 438 658 438 663 b 306 786 435 810 306 786 b 54 265 306 786 83 772 b 301 -132 31 -142 301 -132 b 532 199 301 -132 506 -144 b 525 411 532 199 540 304 b 568 513 544 440 560 475 b 568 519 568 515 568 518 b 529 640 569 536 568 603 z m 378 572 b 449 399 426 568 443 485 b 422 386 440 392 432 388 b 340 489 394 383 349 389 b 378 572 333 575 378 572 z m 450 351 b 444 207 450 274 444 207 b 299 -82 431 6 358 -89 b 196 294 239 -74 174 21 b 321 733 196 294 219 738 b 378 628 375 731 379 668 b 314 604 338 631 314 604 b 271 499 294 588 275 556 b 374 349 264 414 314 364 b 450 351 419 338 450 351 z "},"P":{"ha":596,"x_min":0,"x_max":0,"o":"m 374 783 b 36 411 153 793 21 603 b 50 382 38 400 42 390 b 128 342 65 368 93 346 b 151 363 140 339 151 350 b 364 729 146 442 147 725 b 490 524 364 729 503 733 b 331 267 490 524 482 311 b 363 582 339 372 350 479 b 346 599 364 592 356 600 b 253 561 324 594 286 585 b 210 482 226 543 211 514 b 207 117 208 414 204 260 b 211 -67 207 117 207 -4 b 218 -85 211 -74 214 -79 b 308 -133 231 -97 258 -122 b 318 -125 314 -135 319 -131 b 321 110 315 -51 317 29 b 328 219 322 146 325 182 b 614 488 599 235 614 488 b 374 783 631 638 571 775 z "},"Q":{"ha":588,"x_min":0,"x_max":0,"o":"m 531 640 b 517 635 525 646 517 642 b 501 521 515 611 511 567 b 413 622 483 571 454 610 b 436 656 424 635 432 649 b 440 667 439 658 440 663 b 307 786 436 810 307 786 b 56 265 307 786 85 772 b 214 -111 42 17 138 -76 b 100 -121 158 -112 121 -118 b 67 -137 88 -124 76 -129 b 36 -206 46 -156 33 -179 b 63 -221 38 -218 50 -225 b 514 -186 257 -154 474 -181 b 517 -181 517 -186 518 -183 l 501 -153 b 472 -132 496 -142 485 -133 b 369 -118 435 -126 400 -121 b 535 199 431 -92 518 -17 b 528 411 535 199 543 304 b 569 513 547 440 561 475 b 571 519 569 515 571 518 b 531 640 571 536 569 603 z m 381 572 b 450 399 428 568 444 485 b 424 386 442 392 433 388 b 342 489 396 383 351 389 b 381 572 335 575 381 572 z m 446 207 b 300 -82 432 6 361 -89 b 197 294 240 -74 175 21 b 322 733 197 294 221 738 b 379 628 376 731 382 668 b 315 604 340 631 315 604 b 272 499 296 588 276 556 b 375 349 265 414 317 364 b 451 351 421 338 451 351 b 446 207 453 274 446 207 z "},"R":{"ha":593,"x_min":0,"x_max":0,"o":"m 613 488 b 372 783 629 638 569 775 b 35 411 151 793 19 603 b 49 382 36 400 40 390 b 126 342 64 368 92 346 b 150 363 139 339 150 350 b 363 729 144 442 146 725 b 489 524 363 729 501 733 b 329 267 489 524 481 311 b 361 582 338 372 349 479 b 344 599 363 592 354 600 b 251 561 322 594 285 585 b 208 482 225 543 210 514 b 206 117 207 414 203 260 b 210 -67 206 117 206 -4 b 217 -85 210 -74 213 -79 b 307 -133 229 -97 257 -122 b 317 -125 313 -135 318 -131 b 319 110 314 -51 315 29 b 326 218 321 146 324 182 b 467 -36 369 215 474 186 b 456 -126 465 -92 457 -111 b 469 -131 454 -132 463 -133 b 553 -39 549 -108 553 -39 b 539 101 553 -39 561 14 b 424 238 525 158 492 217 b 613 488 601 300 613 488 z "},"S":{"ha":572,"x_min":0,"x_max":0,"o":"m 233 249 b 186 258 219 258 203 263 b 32 93 139 249 40 213 b 222 -131 15 -128 222 -131 b 536 104 382 -139 532 -43 b 297 564 542 257 353 496 b 258 728 247 625 221 696 b 322 739 290 754 322 739 b 368 601 368 717 369 640 b 388 588 367 592 378 585 b 475 685 449 614 469 658 b 469 721 478 697 476 710 b 274 778 403 832 274 778 b 208 507 274 778 110 707 b 400 49 301 314 422 224 b 222 -96 400 49 381 -107 b 96 53 222 -96 82 -96 b 190 154 101 114 149 144 b 274 150 224 161 256 154 b 288 161 281 147 288 153 b 233 249 286 197 265 226 z "},"T":{"ha":326,"x_min":0,"x_max":0,"o":"m 507 718 l 492 744 b 461 767 486 757 475 764 b 90 776 258 799 133 785 b 56 761 78 775 65 769 b 26 693 35 743 22 719 b 53 676 28 681 40 672 b 172 707 92 690 132 700 b 168 688 171 701 169 694 b 124 10 131 451 117 207 b 165 -86 125 -26 138 -64 b 257 -132 192 -108 222 -124 b 275 -112 267 -133 276 -124 b 274 719 247 115 243 418 b 504 713 386 726 479 717 b 507 718 507 713 508 715 z "},"U":{"ha":639,"x_min":0,"x_max":0,"o":"m 615 788 b 519 749 579 782 547 769 b 472 656 490 728 475 692 b 457 182 457 515 451 350 b 350 -24 457 163 451 -17 b 339 431 253 -31 315 249 b 185 789 368 640 318 782 b 24 671 83 794 39 711 b 19 625 18 657 17 640 b 86 547 31 578 65 556 b 100 557 93 544 100 550 b 178 751 94 625 128 774 b 186 181 232 728 203 422 b 315 -79 168 -68 315 -79 b 464 36 403 -89 444 -21 b 469 -29 465 14 468 -7 b 554 -131 474 -76 503 -128 b 575 -107 565 -132 575 -121 b 631 767 561 210 585 531 b 615 788 633 779 625 789 z "},"V":{"ha":600,"x_min":0,"x_max":0,"o":"m 596 724 b 588 721 593 726 588 725 b 557 600 583 697 575 642 b 483 721 547 661 526 711 b 422 603 483 721 418 726 b 504 499 422 603 425 499 b 494 326 503 456 500 399 b 378 -78 467 31 378 -78 b 354 431 303 -43 346 288 b 175 789 368 640 308 782 b 21 671 74 794 35 711 b 21 625 17 657 17 640 b 93 547 35 578 71 556 b 107 557 100 544 107 550 b 171 751 96 625 119 774 b 217 129 226 728 217 371 b 349 -132 217 -72 313 -121 b 376 -128 358 -135 368 -133 b 551 318 413 -106 506 -15 b 564 518 551 318 567 418 b 621 599 585 532 606 557 b 621 604 621 600 621 603 b 596 724 624 619 628 688 z m 468 654 b 503 550 475 654 497 646 b 468 654 461 558 458 654 z "},"W":{"ha":858,"x_min":0,"x_max":0,"o":"m 475 319 b 385 -78 469 47 385 -78 b 361 431 310 -43 353 288 b 182 789 375 640 315 782 b 28 671 81 794 42 711 b 28 625 24 657 24 640 b 100 547 42 578 78 556 b 114 557 107 544 114 550 b 178 751 103 625 126 774 b 224 129 233 728 224 371 b 356 -132 224 -72 319 -119 b 383 -128 364 -135 376 -135 b 486 49 417 -100 453 -74 b 613 -132 511 -81 582 -122 b 640 -128 622 -135 632 -133 b 815 318 676 -106 769 -15 b 828 518 815 318 831 418 b 885 599 849 532 869 557 b 885 604 885 600 885 603 b 860 724 888 619 892 688 b 851 721 857 726 851 725 b 821 600 847 697 839 642 b 747 721 811 661 790 711 b 686 603 747 721 682 726 b 768 499 686 603 689 499 b 758 326 767 456 765 399 b 642 -78 731 31 642 -78 b 600 376 575 -46 589 219 b 633 686 607 476 618 581 b 615 703 633 696 625 704 b 522 667 593 699 556 689 b 479 588 496 649 481 619 b 475 422 478 550 476 490 b 475 319 475 422 475 344 z m 732 654 b 767 550 739 654 761 646 b 732 654 725 558 722 654 z "},"X":{"ha":492,"x_min":0,"x_max":0,"o":"m 588 729 b 578 729 585 733 579 733 b 536 621 572 707 557 658 b 475 746 538 683 524 738 b 399 640 475 746 413 764 b 457 526 399 640 389 544 b 383 389 446 493 421 432 b 382 431 383 403 382 417 b 171 789 379 640 306 782 b 28 671 69 794 38 711 b 32 625 25 657 26 640 b 110 547 50 578 88 556 b 122 557 118 544 125 550 b 171 751 107 625 117 774 b 263 321 214 733 244 526 b 113 57 210 286 122 208 b 219 -90 113 57 107 -78 b 238 -69 231 -92 240 -81 b 269 251 219 -7 181 168 b 279 131 272 210 276 168 b 488 -132 294 -97 422 -129 b 496 -112 497 -132 503 -119 b 386 319 440 -53 400 119 b 524 532 474 368 511 482 b 594 603 547 542 574 561 b 596 608 596 604 596 607 b 588 729 600 624 614 689 z m 443 651 b 460 686 443 651 443 685 b 469 576 471 688 485 674 b 443 651 446 586 442 624 z "},"Y":{"ha":664,"x_min":0,"x_max":0,"o":"m 619 406 b 615 553 619 457 618 507 b 572 649 613 589 600 626 b 479 692 544 671 514 685 b 461 672 469 694 460 685 b 486 411 472 593 482 506 b 482 235 486 411 490 335 b 368 54 478 203 453 57 b 357 465 271 50 332 300 b 203 789 386 654 336 783 b 40 682 101 793 57 718 b 38 642 35 669 33 654 b 104 571 49 599 83 579 b 118 579 111 568 118 572 b 196 756 113 640 146 775 b 204 239 250 733 221 458 b 333 4 186 14 333 4 b 457 57 392 -1 431 24 b 350 -179 436 -33 404 -121 b 138 -244 350 -179 242 -293 b 96 -89 138 -244 63 -218 b 206 32 115 -14 179 21 b 208 47 213 35 214 43 b 107 60 176 76 131 67 b 82 42 97 56 89 50 b 33 -104 28 -22 33 -104 b 129 -278 33 -104 28 -233 b 422 -226 285 -349 422 -226 b 619 406 626 -43 619 406 z "},"Z":{"ha":410,"x_min":0,"x_max":0,"o":"m 432 782 b 428 783 431 782 429 783 b 197 775 313 796 228 781 b 168 761 186 772 175 768 b 150 685 147 742 139 715 b 174 674 153 676 164 669 b 356 728 238 697 300 717 b 354 725 356 726 354 726 b 250 546 318 668 283 607 b 185 544 219 547 197 546 b 164 538 178 544 169 542 b 138 486 146 525 136 507 b 151 476 139 479 146 475 b 219 489 175 482 197 486 b 32 74 144 344 78 199 b 33 -44 18 38 17 -10 b 44 -61 36 -51 40 -57 b 107 -108 57 -83 79 -101 b 354 -124 214 -135 301 -133 b 383 -110 365 -121 376 -117 b 404 -36 404 -92 414 -65 b 381 -24 400 -26 389 -21 b 144 -60 290 -53 213 -61 b 361 492 194 106 271 300 b 449 479 404 488 436 482 b 454 483 451 478 454 481 b 443 510 454 493 449 503 b 432 517 440 513 436 515 b 379 529 414 521 396 525 b 469 707 408 589 439 649 b 472 713 471 708 471 711 b 432 782 476 749 442 775 z "},"a":{"ha":467,"x_min":0,"x_max":0,"o":"m 492 224 b 490 224 492 224 490 224 b 481 219 486 225 482 222 b 389 72 471 197 431 114 b 400 435 374 76 394 374 b 389 446 400 440 396 446 b 264 386 317 444 278 404 b 136 439 242 413 200 446 b 4 274 136 439 32 425 b 151 1 -24 122 75 7 b 267 61 208 -3 247 26 b 297 10 274 36 283 17 b 501 203 353 -21 413 8 b 492 224 504 211 500 221 z m 196 42 b 140 76 174 32 150 53 b 114 213 129 104 117 142 b 218 382 111 335 178 401 b 253 307 257 361 253 307 l 253 307 b 257 113 250 253 250 175 b 196 42 256 101 244 61 z "},"b":{"ha":397,"x_min":0,"x_max":0,"o":"m 422 224 b 419 224 421 224 421 224 b 411 219 417 225 413 222 b 331 85 401 199 368 128 b 313 74 325 78 319 74 b 250 436 382 197 360 421 b 115 335 185 446 140 382 b 154 736 124 468 138 604 b 136 751 156 746 146 754 b 44 715 114 749 76 739 b 1 636 18 697 3 668 b 8 69 -1 532 -10 235 b 92 -18 8 69 13 -11 b 113 1 103 -19 113 -10 b 111 232 108 76 108 153 b 210 390 119 268 151 381 b 239 186 210 390 267 375 b 225 124 239 186 233 156 b 144 128 194 146 165 158 b 129 63 128 104 128 81 b 167 3 132 21 167 3 b 272 21 224 -26 272 21 b 290 40 278 26 285 33 b 310 38 297 38 303 38 b 358 69 326 39 343 46 l 358 69 b 431 203 381 101 404 144 b 422 224 435 211 431 221 z m 190 58 b 168 108 163 50 158 93 b 215 94 175 118 197 107 b 190 58 207 76 199 61 z "},"c":{"ha":347,"x_min":0,"x_max":0,"o":"m 242 279 b 269 299 254 279 264 288 b 251 401 296 360 251 401 b 154 435 232 422 201 439 b 11 286 154 435 53 432 b 122 1 -31 139 53 24 b 326 94 253 -39 326 94 b 382 203 343 122 363 158 b 374 224 386 211 382 221 b 371 224 372 224 372 224 b 361 219 367 225 364 222 b 303 113 354 203 332 154 b 182 39 303 113 244 32 b 110 214 96 49 110 214 b 225 369 119 335 189 393 b 210 301 225 369 243 346 b 213 288 207 297 208 290 b 242 279 221 282 231 279 z "},"d":{"ha":436,"x_min":0,"x_max":0,"o":"m 463 224 b 460 224 461 224 461 224 b 450 219 456 225 453 222 b 360 72 440 197 401 114 b 357 139 354 68 356 104 b 401 736 358 336 376 540 b 385 751 403 746 394 754 b 292 715 363 749 325 739 b 249 636 265 697 250 668 b 243 394 247 586 244 494 b 129 436 221 418 183 442 b 3 272 129 436 29 422 b 144 1 -24 122 71 11 b 261 54 211 -8 246 19 b 317 0 269 26 285 -4 b 471 203 360 7 407 64 b 463 224 475 211 471 221 z m 192 42 b 133 75 167 38 142 57 b 110 211 121 103 111 140 b 208 378 106 332 169 397 b 243 310 239 363 243 322 b 243 307 243 310 243 308 b 243 307 243 307 243 307 l 243 307 b 250 136 243 247 246 188 b 192 42 250 131 247 50 z "},"e":{"ha":347,"x_min":0,"x_max":0,"o":"m 374 224 b 371 224 372 224 372 224 b 361 219 367 225 363 222 b 303 113 354 203 331 154 b 182 39 303 113 244 32 b 110 214 94 49 110 214 b 111 231 110 219 111 225 b 269 299 238 211 269 299 b 251 401 296 360 251 401 b 154 435 232 422 200 439 b 11 286 154 435 53 432 b 122 1 -32 139 51 24 b 326 94 251 -39 326 94 b 382 203 343 122 363 158 b 374 224 386 211 382 221 z m 240 378 b 233 299 240 378 268 347 b 118 263 204 260 150 257 b 240 378 143 353 214 403 z "},"f":{"ha":235,"x_min":0,"x_max":0,"o":"m 131 251 b 168 318 143 271 156 293 b 161 339 172 325 169 336 b 158 339 160 339 160 339 b 149 335 154 340 150 339 b 119 285 144 326 133 307 b 149 650 125 407 136 531 b 131 667 150 660 140 668 b 39 628 108 663 71 651 b -3 549 14 610 -1 579 b 0 225 -3 486 -4 356 b 128 -164 0 225 -3 -174 b 131 251 257 -156 239 176 z m 140 -110 b 118 214 114 -111 117 154 b 140 -110 200 128 169 -108 z "},"g":{"ha":465,"x_min":0,"x_max":0,"o":"m 382 119 b 394 375 382 193 392 331 b 385 386 394 381 390 386 b 286 353 339 385 307 369 b 136 439 279 369 240 453 b 4 274 136 439 32 425 b 151 1 -24 122 75 7 b 260 50 201 -3 239 19 b 260 -58 261 17 261 -21 b 208 -297 86 -106 69 -281 b 365 -122 299 -310 343 -222 b 428 -160 392 -135 414 -149 b 499 -174 446 -172 475 -183 b 531 -131 529 -161 531 -131 b 454 -58 539 -74 454 -58 b 376 -49 426 -53 401 -50 b 382 18 379 -25 381 -3 b 501 203 415 44 454 100 b 492 224 504 211 500 221 b 490 224 492 224 490 224 b 481 219 486 225 482 222 b 389 72 471 197 431 114 b 382 119 382 82 382 119 z m 196 42 b 140 76 174 32 150 53 b 114 213 129 104 117 142 b 218 382 111 335 178 401 b 251 310 253 364 253 321 b 256 106 250 282 243 182 b 196 42 250 89 236 58 z m 176 -251 b 154 -190 140 -240 154 -190 b 247 -108 174 -121 247 -108 b 257 -107 250 -108 254 -107 b 235 -212 253 -147 246 -185 b 176 -251 225 -239 201 -258 z "},"h":{"ha":410,"x_min":0,"x_max":0,"o":"m 436 224 b 433 224 435 224 433 224 b 424 219 429 225 425 222 b 333 72 414 197 375 114 b 336 296 321 75 328 193 b 244 436 336 296 357 436 b 119 332 185 436 144 386 b 154 681 126 444 138 563 b 138 697 156 690 147 699 b 44 661 115 693 78 685 b 0 583 18 644 1 615 b 8 69 -4 479 -8 211 b 90 -18 8 69 13 -10 b 111 0 101 -19 111 -11 b 111 156 110 50 110 103 b 190 356 117 218 147 358 b 199 300 200 354 203 340 b 240 10 190 224 179 46 b 444 203 294 -24 356 8 b 436 224 449 211 444 221 z "},"i":{"ha":217,"x_min":0,"x_max":0,"o":"m 243 224 b 240 224 242 224 242 224 b 231 219 236 225 232 222 b 140 72 221 197 182 114 b 153 414 124 76 147 354 b 142 425 153 419 147 425 b 40 390 94 424 61 407 b 7 329 21 375 10 353 b 47 10 0 254 -14 46 b 251 203 101 -24 163 8 b 243 224 256 211 251 221 z m 101 460 b 165 506 136 460 165 481 b 101 553 165 532 136 553 b 36 506 65 553 36 532 b 101 460 36 481 65 460 z "},"j":{"ha":215,"x_min":0,"x_max":0,"o":"m 100 460 b 164 506 136 460 164 481 b 100 553 164 532 136 553 b 36 506 64 553 36 532 b 100 460 36 481 64 460 z m 203 -58 b 125 -49 175 -53 150 -50 b 131 17 128 -26 129 -4 b 251 203 164 43 204 100 b 242 224 254 211 250 221 b 239 224 240 224 240 224 b 231 219 236 225 232 222 b 139 72 219 197 181 114 b 151 414 122 76 146 354 b 140 425 151 419 147 425 b 39 390 93 424 60 407 b 7 329 21 375 8 353 b 3 122 3 285 -4 196 b 8 -58 7 83 11 11 b -43 -297 -165 -106 -182 -281 b 113 -122 47 -310 92 -222 b 176 -160 140 -135 163 -149 b 247 -174 194 -172 224 -183 b 279 -131 278 -161 279 -131 b 203 -58 288 -74 203 -58 z m 4 -107 b -17 -212 1 -147 -6 -185 b -75 -251 -26 -239 -50 -258 b -97 -190 -111 -240 -97 -190 b -44 -124 -87 -156 -65 -135 b 4 -107 -44 -124 -21 -108 z "},"k":{"ha":369,"x_min":0,"x_max":0,"o":"m 396 224 b 394 224 396 224 394 224 b 385 219 390 225 386 222 b 293 72 375 197 335 114 b 268 58 293 72 282 58 b 256 185 246 60 240 83 b 325 272 308 214 325 272 b 246 436 325 272 375 425 b 121 339 186 442 146 393 b 156 681 128 450 140 564 b 139 697 157 690 149 699 b 46 661 117 693 79 685 b 1 583 19 644 3 615 b 10 69 -3 479 -6 211 b 92 -18 10 69 14 -10 b 113 0 103 -19 113 -11 b 113 156 111 50 111 103 b 192 356 118 218 149 358 b 153 204 217 354 232 247 b 139 185 144 200 139 193 b 217 -6 129 83 154 3 b 315 47 268 -12 315 47 b 406 203 342 79 371 128 b 396 224 408 211 404 221 z "},"l":{"ha":192,"x_min":0,"x_max":0,"o":"m 71 0 b 226 203 115 7 163 64 b 218 224 231 211 226 221 b 215 224 217 224 217 224 b 206 219 211 225 207 222 b 115 72 196 197 157 114 b 113 139 110 68 111 104 b 153 671 113 318 128 475 b 135 688 153 681 144 689 b 42 651 113 683 75 674 b 0 572 17 633 0 603 b 10 92 -4 468 -10 244 b 71 0 10 92 17 -7 z "},"m":{"ha":600,"x_min":0,"x_max":0,"o":"m 317 122 b 318 150 319 140 318 150 b 381 356 321 213 354 358 b 389 300 390 354 394 340 b 431 10 382 225 369 47 b 635 203 486 -22 546 8 b 626 224 639 211 635 221 b 624 224 625 224 625 224 b 614 219 619 225 615 222 b 524 72 604 197 565 114 b 526 296 511 75 518 193 b 435 438 526 296 547 438 b 328 354 383 438 350 399 b 238 438 321 393 300 438 b 131 357 186 438 153 400 b 135 428 132 392 133 417 b 124 439 135 435 131 439 b 33 401 78 438 54 418 b 3 342 17 386 6 365 b 1 176 0 306 -3 239 b 99 -14 3 67 26 -8 b 117 4 108 -14 117 -7 b 121 154 117 42 118 97 b 182 356 125 219 157 358 b 190 300 192 354 196 340 b 192 136 189 257 185 199 b 272 44 192 136 196 40 b 317 122 306 47 315 96 z "},"n":{"ha":414,"x_min":0,"x_max":0,"o":"m 440 224 b 438 224 439 224 439 224 b 429 219 435 225 431 222 b 338 72 418 197 379 114 b 340 296 326 75 333 193 b 250 436 340 296 361 436 b 131 340 193 436 156 392 b 136 428 133 383 135 415 b 125 439 136 435 131 439 b 35 401 79 438 56 418 b 4 342 17 386 6 365 b 1 176 1 306 -1 239 b 100 -14 4 67 26 -8 b 118 4 110 -14 118 -7 b 122 167 118 44 119 106 b 194 356 128 236 154 358 b 203 300 204 354 208 340 b 246 10 196 224 183 46 b 449 203 300 -24 360 8 b 440 224 453 211 449 221 z "},"o":{"ha":342,"x_min":0,"x_max":0,"o":"m 322 343 b 315 342 319 346 315 344 b 296 303 311 333 306 319 b 149 436 275 392 217 442 b 32 296 83 432 29 363 b 6 232 11 265 6 232 b 178 4 -17 111 42 -26 b 300 188 178 4 282 28 b 301 261 303 214 303 239 b 326 314 311 276 319 294 b 322 343 329 324 328 335 z m 163 388 b 246 249 201 390 244 347 b 169 229 225 233 200 225 b 121 256 169 229 139 232 b 151 329 131 289 143 315 b 146 344 156 336 151 343 b 117 346 135 346 125 346 b 163 388 126 371 144 386 z m 236 151 b 171 49 218 56 181 51 b 113 196 103 33 108 151 b 244 208 153 182 203 185 b 236 151 244 208 242 174 z "},"p":{"ha":415,"x_min":0,"x_max":0,"o":"m 440 224 b 438 224 439 224 439 224 b 428 219 433 225 429 222 b 349 85 419 199 386 128 b 331 74 343 78 338 74 b 267 436 400 199 378 424 b 146 363 210 443 171 403 b 153 419 149 382 150 401 b 135 436 154 429 144 438 b 46 399 113 432 78 422 b 4 319 19 381 7 358 b 17 -249 -3 215 -6 -83 b 100 -335 17 -249 21 -328 b 119 -315 111 -335 121 -326 b 133 225 110 -142 118 43 b 228 390 138 251 165 381 b 256 186 228 390 285 375 b 242 124 256 186 251 156 b 163 128 213 146 183 158 b 147 63 146 104 146 81 b 183 3 150 21 183 3 b 289 21 240 -26 289 21 b 308 40 296 26 303 33 b 328 38 314 38 321 38 b 376 69 344 39 361 46 l 376 69 b 449 203 399 101 422 144 b 440 224 453 211 449 221 z m 208 58 b 186 108 181 50 175 93 b 232 94 193 118 215 107 b 208 58 225 76 217 61 z "},"q":{"ha":467,"x_min":0,"x_max":0,"o":"m 493 224 b 490 224 492 224 490 224 b 481 219 486 225 482 222 b 390 72 471 197 432 114 b 394 375 374 76 390 314 b 385 386 396 381 390 386 b 286 353 340 385 307 369 b 136 439 279 369 240 453 b 4 274 136 439 32 425 b 151 1 -24 122 75 7 b 253 40 197 -3 231 15 b 269 -249 254 -62 260 -171 b 353 -335 269 -249 275 -328 b 374 -315 364 -335 374 -326 b 372 11 367 -210 368 -100 b 501 203 408 33 450 92 b 493 224 506 211 501 221 z m 196 42 b 140 76 174 32 150 53 b 115 213 129 104 117 142 b 218 382 113 335 179 401 b 253 310 253 364 253 321 b 253 132 250 285 246 204 b 253 96 253 121 253 108 b 196 42 246 79 229 56 z "},"r":{"ha":340,"x_min":0,"x_max":0,"o":"m 81 518 b 68 543 75 532 68 543 b 13 563 57 560 36 583 b 32 476 -17 539 32 476 b 56 369 57 433 57 406 b 7 203 53 310 17 225 b 10 193 6 199 7 194 b 13 192 11 192 11 192 b 33 199 19 186 29 190 b 92 392 72 288 89 349 b 92 467 92 392 96 428 b 144 447 107 458 126 451 b 171 10 124 368 61 106 b 375 203 218 -32 286 8 b 365 224 378 211 374 221 b 364 224 365 224 364 224 b 354 219 360 225 356 222 b 263 72 344 197 304 114 b 271 374 221 79 250 263 b 207 469 279 418 251 464 b 81 518 117 481 82 515 z "},"s":{"ha":250,"x_min":0,"x_max":0,"o":"m 144 443 b 174 389 144 443 142 388 b 194 414 193 390 194 414 b 97 528 197 467 157 532 b 6 422 44 524 14 471 b -1 326 1 403 -3 364 b 57 107 0 314 4 231 b -72 -175 -85 -22 -72 -175 b 1 -332 -71 -236 -51 -297 b 100 -353 31 -351 65 -358 b 229 -256 124 -351 196 -337 b 172 149 289 -129 232 31 b 272 186 172 149 222 175 b 285 206 282 189 286 197 b 267 217 282 214 275 218 b 158 176 229 207 193 193 b 97 285 135 222 113 260 b 64 413 57 353 64 413 b 113 506 68 468 83 506 l 113 506 b 144 443 146 506 144 443 z m -37 -118 b 11 11 -31 -72 -14 -29 b 71 78 29 38 53 63 b 78 -311 143 -79 189 -299 b -40 -200 78 -311 -21 -319 b -37 -118 -44 -160 -37 -118 z "},"t":{"ha":192,"x_min":0,"x_max":0,"o":"m 378 614 b 142 611 300 606 221 610 b 156 736 146 653 151 694 b 139 751 157 746 149 754 b 46 715 117 749 79 739 b 3 636 19 697 4 668 b 3 613 3 629 3 621 b -85 628 -25 614 -71 618 b -69 581 -103 642 -128 571 b 1 586 -46 583 -22 585 b 8 92 -3 461 -8 235 b 71 0 8 92 17 -7 b 226 203 114 7 163 64 b 217 224 229 211 225 221 b 215 224 217 224 215 224 b 206 219 211 225 207 222 b 114 72 194 197 156 114 b 111 139 110 68 111 104 b 139 586 113 286 122 438 b 201 585 160 585 181 585 l 201 585 b 288 583 231 583 258 583 b 394 567 303 583 376 581 b 378 614 411 554 436 624 z "},"u":{"ha":425,"x_min":0,"x_max":0,"o":"m 449 224 b 447 224 449 224 447 224 b 438 219 443 225 439 222 b 346 72 428 197 389 114 b 358 414 331 76 354 354 b 349 425 360 419 354 425 b 247 390 300 424 268 407 b 214 329 228 375 217 353 b 207 226 211 306 208 268 b 200 178 207 219 204 193 b 144 53 189 129 167 63 b 125 86 133 49 128 65 b 146 426 117 201 125 314 b 136 439 147 432 142 438 b 43 410 101 440 72 431 b 8 351 24 397 11 374 b 1 182 0 296 -3 239 b 68 13 1 182 4 50 b 117 0 81 4 97 -1 b 215 93 163 4 194 44 b 254 10 221 54 233 22 b 458 203 308 -24 369 8 b 449 224 463 211 458 221 z "},"v":{"ha":315,"x_min":0,"x_max":0,"o":"m 299 368 l 297 371 b 288 368 294 374 289 372 b 263 304 285 353 278 321 b 222 436 265 338 274 436 b 219 257 161 436 140 278 b 147 57 206 176 176 74 b 129 86 142 54 133 68 b 115 426 110 201 107 314 b 106 439 115 432 111 438 b 19 410 72 440 44 431 b -8 351 3 397 -7 374 b 3 182 -11 296 -7 239 b 82 13 3 182 18 50 b 131 0 96 4 111 -1 b 256 257 131 0 218 4 b 306 318 285 265 299 294 b 299 368 310 335 308 353 z m 213 344 b 222 360 213 344 214 361 b 226 296 229 358 231 332 b 213 344 218 300 208 311 z "},"w":{"ha":508,"x_min":0,"x_max":0,"o":"m 492 368 l 490 371 b 481 368 486 374 481 372 b 454 304 478 353 471 321 b 415 436 458 338 465 436 b 413 257 354 436 333 278 b 339 57 399 176 369 74 b 322 86 335 54 325 68 b 308 426 303 201 299 314 b 299 439 308 432 304 438 b 213 410 265 440 238 431 b 185 351 196 397 186 374 b 185 281 183 328 183 304 b 147 54 185 196 183 68 b 129 86 143 53 133 64 b 114 426 108 201 106 314 b 104 439 115 432 110 438 b 19 410 71 440 44 431 b -10 351 1 397 -8 374 b 1 182 -11 296 -8 239 b 81 13 1 182 18 50 b 129 0 94 4 110 -1 b 213 108 129 0 186 -1 b 275 13 224 71 243 31 b 322 0 288 4 304 -1 b 449 257 322 0 410 4 b 499 318 478 265 492 294 b 492 368 503 335 500 353 z m 404 344 b 415 360 404 344 407 361 b 418 296 422 358 422 332 b 404 344 411 300 400 311 z "},"x":{"ha":226,"x_min":0,"x_max":0,"o":"m 228 22 b 172 90 207 32 186 54 b 136 201 158 126 147 164 b 176 436 188 257 275 375 b 167 431 172 439 167 436 b 125 246 167 401 163 315 b 93 429 111 306 100 367 b 82 439 93 435 88 439 b 3 394 49 435 24 419 b -14 331 -11 378 -17 353 b 29 163 -6 275 10 218 b 38 142 29 163 32 154 b -28 14 8 110 -36 53 b 26 -21 -28 14 -17 -29 b 33 -10 32 -19 35 -15 b 53 107 28 7 19 53 b 140 7 71 68 101 22 b 228 15 140 7 186 -10 b 228 22 231 17 229 21 z "},"y":{"ha":424,"x_min":0,"x_max":0,"o":"m 411 -58 b 332 -49 382 -53 357 -50 b 338 17 335 -26 336 -4 b 458 203 372 43 411 100 b 449 224 461 211 457 221 b 446 224 449 224 447 224 b 438 219 443 225 439 222 b 346 72 426 197 388 114 b 358 414 329 76 353 354 b 347 425 358 419 354 425 b 246 390 300 424 267 407 b 214 329 228 375 215 353 b 207 225 211 306 208 267 b 200 178 207 217 204 193 b 143 53 189 129 167 63 b 125 86 133 49 128 65 b 146 426 117 201 125 314 b 136 439 146 432 142 438 b 43 410 101 440 72 431 b 7 351 24 397 11 374 b 1 182 -1 296 -3 239 b 67 13 1 182 4 50 b 117 0 81 4 97 -1 b 213 89 161 4 192 43 b 215 -58 215 50 217 -6 b 164 -297 42 -106 25 -281 b 321 -122 254 -310 299 -222 b 383 -160 347 -135 369 -149 b 454 -174 401 -172 431 -183 b 486 -131 485 -161 486 -131 b 411 -58 494 -74 411 -58 z m 213 -107 b 190 -212 208 -147 201 -185 b 132 -251 181 -239 157 -258 b 110 -190 96 -240 110 -190 b 163 -124 119 -156 142 -136 b 213 -107 163 -124 189 -107 z "},"z":{"ha":340,"x_min":0,"x_max":0,"o":"m 67 543 b 11 563 56 560 35 582 b 31 476 -17 539 31 476 b 56 369 56 433 56 406 b 6 203 51 310 15 225 b 8 193 4 199 6 194 b 11 192 10 192 10 192 b 32 199 18 186 29 190 b 90 392 71 288 89 349 b 90 467 90 392 94 428 b 144 447 106 458 125 451 b 114 122 128 390 92 239 b 119 -58 119 85 122 13 b 65 -297 -56 -104 -72 -281 b 222 -122 157 -310 201 -222 b 286 -160 250 -135 272 -149 b 357 -174 303 -172 333 -183 b 389 -131 386 -161 389 -131 b 313 -58 396 -74 313 -58 b 235 -49 285 -53 258 -50 b 239 4 236 -31 238 -12 b 374 203 276 28 321 89 b 365 224 378 211 374 221 b 363 224 364 224 363 224 b 353 219 358 225 354 222 b 263 72 343 197 304 114 b 269 374 219 79 249 263 b 206 469 278 418 250 464 b 79 518 115 481 82 515 b 67 543 76 531 67 543 z m 115 -107 b 93 -212 111 -147 104 -185 b 35 -251 82 -239 60 -258 b 11 -190 -1 -240 11 -190 b 67 -122 22 -154 46 -133 b 115 -107 67 -122 92 -107 z "},"æ":{"ha":799,"x_min":0,"x_max":0,"o":"m 764 224 b 761 224 763 224 763 224 b 751 219 757 225 753 222 b 693 113 744 203 721 154 b 572 39 693 113 635 32 b 500 214 485 49 500 214 b 501 231 500 219 501 225 b 660 299 628 211 660 299 b 642 401 686 360 642 401 b 544 435 622 422 590 439 b 446 376 544 435 490 433 b 450 435 447 403 449 422 b 440 446 450 440 446 446 b 314 386 367 444 328 404 b 186 439 292 413 250 446 b 54 274 186 439 82 425 b 201 1 26 122 125 7 b 317 61 258 -3 297 26 b 347 10 324 36 333 17 b 454 39 381 -8 414 -6 b 513 1 474 21 493 7 b 717 94 643 -39 717 94 b 772 203 733 122 753 158 b 764 224 776 211 772 221 z m 631 378 b 624 299 631 378 660 347 b 508 263 594 260 540 257 b 631 378 535 353 604 403 z m 246 42 b 190 76 224 32 200 53 b 165 213 179 104 167 142 b 268 382 161 335 229 401 b 303 307 307 361 303 307 l 303 307 b 307 113 301 253 300 175 b 246 42 306 101 294 61 z "},"+":{"ha":196,"x_min":0,"x_max":0,"o":"m 174 256 b 157 271 174 263 167 268 b 140 276 153 274 147 275 b 125 278 136 276 131 278 b 124 292 124 283 124 288 b 122 304 124 296 124 301 b 121 314 122 308 121 311 b 107 328 117 322 111 326 b 99 329 103 329 99 329 b 83 313 92 328 86 321 b 78 296 81 307 79 301 b 76 281 78 290 76 286 b 64 281 72 281 68 281 b 53 281 60 281 56 281 b 31 274 43 281 35 278 b 25 250 26 268 25 261 b 35 238 26 243 31 240 b 43 235 39 235 43 235 b 49 233 44 235 47 235 b 54 233 50 233 53 233 b 69 232 60 232 64 232 b 74 231 71 231 72 231 b 74 219 74 226 74 222 b 74 208 74 214 74 210 b 81 185 74 197 76 190 b 103 181 86 181 93 179 b 117 189 110 181 114 185 b 119 197 119 193 119 197 b 121 203 119 200 119 201 b 121 210 121 206 121 207 b 122 224 122 214 122 218 b 124 229 122 226 124 228 b 138 231 128 229 132 231 b 150 232 142 231 146 231 b 158 233 154 232 157 233 b 174 247 168 238 172 243 b 174 256 175 251 174 256 z "},"-":{"ha":274,"x_min":0,"x_max":0,"o":"m 213 256 b 196 271 213 263 206 268 b 179 276 192 274 186 275 b 160 278 174 276 167 278 b 139 281 153 279 146 279 b 119 281 133 281 126 281 b 103 281 114 281 108 281 b 92 281 99 281 94 281 b 69 274 82 281 74 278 b 64 250 65 268 64 261 b 74 238 65 243 69 240 b 82 235 78 235 82 235 b 88 233 83 235 85 235 b 93 233 89 233 92 233 b 108 232 97 232 103 232 b 142 229 118 231 131 231 b 160 229 149 229 154 229 b 175 231 165 229 171 231 b 189 232 181 231 185 231 b 197 233 193 232 196 233 b 211 247 207 238 210 243 b 213 256 214 251 213 256 z "},"−":{"ha":215,"x_min":0,"x_max":0,"o":"m 182 256 b 165 271 182 263 175 268 b 149 276 161 274 156 275 b 129 278 143 276 136 278 b 108 281 122 279 115 279 b 89 281 103 281 96 281 b 72 281 83 281 78 281 b 61 281 68 281 64 281 b 39 274 51 281 43 278 b 33 250 35 268 33 261 b 43 238 35 243 39 240 b 51 235 47 235 51 235 b 57 233 53 235 54 235 b 63 233 58 233 61 233 b 78 232 67 232 72 232 b 111 229 88 231 100 231 b 129 229 118 229 124 229 b 144 231 135 229 140 231 b 158 232 150 231 154 231 b 167 233 163 232 165 233 b 181 247 176 238 179 243 b 182 256 183 251 182 256 z "},"×":{"ha":192,"x_min":0,"x_max":0,"o":"m 150 274 b 157 293 153 281 157 288 b 140 311 157 311 143 311 b 100 289 129 311 111 300 b 63 317 75 314 75 317 b 39 294 56 317 39 307 b 63 256 39 261 63 264 b 36 221 47 240 36 231 b 57 196 36 214 44 196 b 97 221 82 196 93 217 b 136 194 110 201 131 194 b 154 213 154 194 154 210 b 132 254 154 224 142 240 b 150 274 138 260 143 267 z "},"÷":{"ha":174,"x_min":0,"x_max":0,"o":"m 161 256 b 146 271 161 263 154 268 b 129 276 140 274 135 275 b 110 278 122 276 117 278 b 89 281 103 279 96 279 b 69 281 82 281 75 281 b 53 281 63 281 57 281 b 42 281 47 281 43 281 b 18 274 31 281 22 278 b 14 250 14 268 13 261 b 22 238 14 243 18 240 b 31 235 26 235 31 235 b 36 233 32 235 35 235 b 43 233 39 233 40 233 b 57 232 47 232 51 232 b 92 229 68 231 79 231 b 108 229 97 229 103 229 b 125 231 114 229 119 231 b 138 232 129 231 135 231 b 147 233 142 232 144 233 b 161 247 156 238 160 243 b 161 256 163 251 161 256 z m 85 215 b 61 192 72 215 61 206 b 85 168 61 179 72 168 b 108 192 99 168 108 179 b 85 215 108 206 99 215 z m 89 294 b 113 318 101 294 113 306 b 89 342 113 332 101 342 b 65 318 76 342 65 332 b 89 294 65 306 76 294 z "},"=":{"ha":250,"x_min":0,"x_max":0,"o":"m 186 208 b 172 225 185 215 179 221 b 160 229 169 226 164 228 b 144 232 156 231 150 231 b 129 233 139 232 133 233 b 113 235 124 233 118 233 b 100 235 108 235 103 235 b 90 235 96 235 93 233 b 72 228 82 235 76 232 b 69 204 69 222 68 215 b 76 192 69 197 74 194 b 83 189 81 189 83 189 b 88 188 85 189 86 188 b 92 186 89 188 90 188 b 103 185 96 186 99 186 b 110 185 106 185 107 185 b 117 183 111 185 114 185 b 129 183 121 183 125 183 b 143 183 135 183 139 183 b 156 183 147 183 153 183 b 167 185 160 183 164 185 b 174 188 169 186 172 186 b 185 200 181 190 183 196 b 186 208 186 204 186 208 z m 76 258 b 82 256 79 256 82 256 b 86 254 83 256 85 256 b 92 253 88 254 90 254 b 103 251 94 253 99 253 b 108 251 104 251 107 251 b 115 251 111 251 114 251 b 129 250 119 250 125 250 b 143 250 133 250 139 250 b 156 250 147 250 151 250 b 165 251 160 250 163 251 b 174 254 169 253 171 253 b 185 267 181 257 183 263 b 185 275 186 271 185 275 b 172 292 185 282 179 288 b 160 296 168 293 164 294 b 144 299 154 297 150 299 b 128 300 139 300 133 300 b 113 301 122 300 117 301 b 99 301 107 301 103 301 b 90 301 96 301 92 300 b 72 294 82 301 75 299 b 68 272 68 289 68 282 b 76 258 69 265 72 261 z "},".":{"ha":179,"x_min":0,"x_max":0,"o":"m 90 72 b 54 36 71 72 54 56 b 90 -1 54 15 71 -1 b 128 36 111 -1 128 15 b 90 72 128 56 111 72 z "},",":{"ha":157,"x_min":0,"x_max":0,"o":"m 107 58 b 83 63 101 61 94 63 b 71 56 76 61 72 58 b 68 49 68 51 68 49 b 60 3 64 39 63 21 b 57 -21 60 -6 58 -14 b 56 -36 56 -26 56 -32 b 58 -44 56 -39 57 -42 b 64 -49 60 -46 63 -47 b 71 -53 68 -51 71 -53 b 82 -51 75 -54 78 -53 b 88 -49 83 -51 85 -50 b 92 -44 89 -47 90 -46 b 107 -15 99 -37 104 -26 b 113 18 110 -4 111 7 b 113 40 113 28 113 36 b 107 58 114 49 111 54 z "},"`":{"ha":203,"x_min":0,"x_max":0,"o":"m 65 717 b 111 699 79 710 96 703 b 158 696 128 694 144 693 b 167 699 161 696 165 697 b 175 703 169 700 172 701 b 183 715 179 706 182 710 b 183 726 183 715 185 719 b 181 736 183 729 182 732 b 172 746 179 739 176 743 b 151 756 168 749 161 751 b 119 768 143 758 132 764 b 58 793 97 778 72 789 b 49 794 58 793 54 794 b 29 783 43 793 35 792 b 39 740 29 783 18 767 b 65 717 39 740 50 725 z "},"´":{"ha":201,"x_min":0,"x_max":0,"o":"m 136 717 b 164 740 153 725 164 740 b 172 783 183 767 172 783 b 154 794 167 792 160 793 b 144 793 149 794 144 793 b 82 768 129 789 106 778 b 50 756 71 764 60 758 b 31 746 42 751 33 749 b 22 736 26 743 24 739 b 19 726 19 732 19 729 b 19 715 18 719 19 715 b 28 703 21 710 24 706 b 35 699 31 701 32 700 b 44 696 38 697 40 696 b 90 699 57 693 74 694 b 136 717 107 703 124 710 z "},"¨":{"ha":271,"x_min":0,"x_max":0,"o":"m 68 772 b 31 729 46 771 29 751 b 74 690 32 706 51 689 b 113 733 96 692 114 711 b 68 772 111 757 90 774 z m 194 765 b 157 721 172 764 156 744 b 200 683 158 699 178 682 b 239 726 222 685 240 704 b 194 765 238 749 218 767 z "},"˚":{"ha":207,"x_min":0,"x_max":0,"o":"m 104 785 b 56 736 78 785 56 763 b 104 686 56 708 78 686 b 154 736 132 686 154 708 b 104 785 154 763 132 785 z m 104 715 b 85 736 93 715 85 725 b 104 756 85 747 93 756 b 125 736 115 756 125 747 b 104 715 125 725 115 715 z "},"˜":{"ha":233,"x_min":0,"x_max":0,"o":"m 225 722 b 110 757 213 783 143 769 b 33 785 78 744 61 792 b 29 740 6 778 29 740 b 174 713 67 663 157 711 b 214 693 197 714 197 692 b 225 722 229 696 225 722 z "},"'":{"ha":168,"x_min":0,"x_max":0,"o":"m 113 821 b 86 825 106 825 97 825 b 71 818 78 824 72 821 b 67 811 68 814 67 811 b 58 768 64 801 61 785 b 54 744 57 760 56 751 b 53 731 53 739 53 733 b 57 722 53 726 54 724 b 63 717 58 719 60 718 b 71 714 67 714 71 714 b 83 714 75 713 79 713 b 89 717 85 715 88 715 b 96 721 92 718 93 719 b 113 749 103 728 108 739 b 119 782 117 760 118 772 b 119 804 119 792 119 800 b 113 821 121 811 118 818 z "},"\"":{"ha":235,"x_min":0,"x_max":0,"o":"m 104 826 b 79 829 99 829 90 831 b 63 822 71 829 65 825 b 60 817 61 819 60 817 b 51 772 56 807 54 789 b 47 750 50 764 49 757 b 46 735 46 743 46 738 b 49 726 46 732 47 729 b 56 722 51 725 53 724 b 64 718 60 719 64 718 b 76 719 68 718 72 718 b 82 722 78 719 81 721 b 88 726 85 724 86 725 b 106 754 96 733 101 743 b 111 786 110 765 111 776 b 113 808 113 796 113 804 b 104 826 113 817 111 822 z m 178 803 b 151 807 172 807 164 807 b 136 800 143 806 139 803 b 133 793 133 796 133 793 b 125 750 129 783 128 767 b 121 726 124 742 122 733 b 119 713 119 721 118 715 b 122 704 119 708 121 706 b 129 699 124 701 126 700 b 138 696 133 696 138 696 b 150 696 142 694 146 694 b 156 699 151 697 154 697 b 161 703 157 700 160 701 b 179 732 168 710 175 721 b 185 764 182 742 185 754 b 186 786 186 774 186 782 b 178 803 186 794 183 800 z "},"*":{"ha":218,"x_min":0,"x_max":0,"o":"m 174 797 b 171 806 172 803 171 806 b 149 814 167 813 158 815 b 138 814 146 814 142 814 b 138 818 138 815 138 817 b 131 839 139 828 136 835 b 107 842 125 842 118 843 b 93 833 100 842 96 838 b 90 826 90 831 90 828 b 74 831 85 831 79 832 b 56 814 67 829 61 824 b 54 797 51 807 53 801 b 58 790 56 793 58 790 b 61 788 58 789 60 789 b 64 783 61 786 63 785 b 61 782 63 783 61 783 b 46 767 51 779 47 774 b 53 743 44 761 46 753 b 67 735 56 738 61 735 b 74 736 71 735 74 736 b 79 736 75 736 76 736 b 85 738 81 738 82 738 b 85 738 85 738 85 738 b 86 731 85 736 86 733 b 88 722 86 728 88 725 b 103 710 92 715 97 711 b 111 710 107 708 111 710 b 128 724 119 710 125 715 b 131 729 129 726 129 728 b 131 729 131 729 131 729 b 139 726 135 728 136 726 b 157 729 147 724 153 726 b 164 735 161 732 164 735 b 163 758 168 742 167 750 b 156 769 160 761 158 765 b 161 774 157 771 160 772 b 168 779 164 775 167 778 b 174 797 174 786 174 793 z "},"!":{"ha":185,"x_min":0,"x_max":0,"o":"m 88 74 b 51 38 67 74 51 57 b 88 0 51 17 67 0 b 124 38 108 0 124 17 b 88 74 124 57 108 74 z m 128 333 b 129 422 129 363 129 393 b 131 507 131 451 131 481 b 131 576 131 532 131 556 b 132 603 131 586 132 596 b 133 624 132 611 132 618 b 133 653 133 633 133 644 b 133 667 133 658 133 663 b 133 679 133 671 133 675 b 128 718 133 694 132 707 b 96 747 122 738 111 747 b 72 713 85 749 78 731 b 65 676 68 694 65 676 b 63 653 65 669 64 661 b 60 624 63 643 61 635 b 57 593 60 614 58 604 b 57 576 57 588 57 582 b 56 558 57 571 56 564 b 53 407 53 511 53 458 b 56 264 53 356 54 306 b 58 208 56 243 57 225 b 60 188 58 200 58 193 b 61 171 60 181 60 175 b 81 110 65 133 74 117 b 93 104 88 103 93 104 b 118 176 104 106 113 133 b 128 333 125 218 128 275 z "},"?":{"ha":389,"x_min":0,"x_max":0,"o":"m 365 571 b 169 754 364 686 271 760 b 32 576 169 754 24 738 b 143 456 36 485 113 464 b 172 461 153 453 164 454 b 208 529 193 479 207 501 b 199 539 208 536 203 540 b 146 536 188 535 168 531 b 88 614 119 543 90 567 b 168 728 79 728 168 728 b 279 615 269 736 279 615 b 154 264 292 481 215 411 b 157 108 125 193 131 136 b 175 117 164 101 175 107 b 208 224 171 144 186 186 b 365 571 247 290 368 454 z m 174 74 b 136 38 153 74 136 57 b 174 0 136 17 153 0 b 210 38 193 0 210 17 b 174 74 210 57 193 74 z "},"/":{"ha":269,"x_min":0,"x_max":0,"o":"m 243 771 b 213 732 235 774 222 753 b 194 689 201 711 194 689 b 183 660 190 681 188 671 b 171 626 179 650 175 638 b 158 588 167 614 163 601 b 153 568 157 582 154 575 b 146 546 150 561 147 553 b 92 361 128 489 110 424 b 46 183 75 297 58 236 b 29 115 39 158 33 135 b 22 89 26 106 25 96 b 18 68 21 81 19 74 b 14 -11 10 21 11 0 b 24 -19 18 -21 24 -19 b 69 63 33 -21 50 13 b 131 256 88 114 110 182 b 161 364 142 292 151 328 b 190 467 172 400 182 435 b 215 553 200 499 208 528 b 225 586 218 565 222 576 b 232 610 228 596 231 603 b 243 647 236 624 240 636 b 247 664 244 653 246 658 b 251 679 250 669 250 674 b 261 728 257 699 260 714 b 243 771 263 753 257 767 z "},"\\":{"ha":263,"x_min":0,"x_max":0,"o":"m 24 771 b 6 728 10 767 4 753 b 15 679 7 714 10 699 b 19 664 17 674 17 669 b 24 647 21 658 22 653 b 35 610 26 636 31 624 b 42 586 36 603 39 596 b 51 553 44 576 49 565 b 76 467 58 528 67 499 b 106 364 85 435 94 400 b 136 256 115 328 125 292 b 197 63 157 182 179 114 b 243 -19 217 13 233 -21 b 253 -11 243 -19 249 -21 b 249 68 256 0 257 21 b 244 89 247 74 246 81 b 238 115 242 96 240 106 b 221 183 233 135 228 158 b 175 361 208 236 192 297 b 121 546 157 424 139 489 b 114 568 119 553 117 561 b 108 588 113 575 110 582 b 96 626 104 601 100 614 b 83 660 92 638 88 650 b 72 689 79 671 76 681 b 54 732 72 689 65 711 b 24 771 44 753 32 774 z "},"[":{"ha":204,"x_min":0,"x_max":0,"o":"m 186 7 b 164 13 181 8 174 10 b 132 19 154 14 143 15 b 115 25 126 21 121 22 b 108 28 113 25 111 26 b 103 32 107 29 104 31 b 97 43 100 36 99 39 l 97 44 l 97 46 b 96 47 96 46 96 47 b 96 50 96 49 96 49 b 96 51 96 50 96 51 b 96 57 96 53 96 54 b 96 58 96 57 96 58 b 96 61 96 60 96 61 b 97 89 96 71 96 79 b 97 118 97 99 97 108 b 99 147 97 128 97 138 b 99 178 99 157 99 168 b 99 210 99 189 99 199 b 100 242 99 221 99 231 b 103 371 100 285 101 329 b 104 435 103 393 104 414 b 106 494 104 456 106 475 b 110 596 106 532 108 567 b 110 617 110 603 110 610 b 110 626 110 619 110 624 b 111 636 111 629 111 633 b 113 664 111 647 111 657 b 117 704 114 679 115 693 b 121 719 118 710 119 715 b 121 721 121 719 121 721 b 122 722 121 721 121 722 b 122 725 122 724 122 724 l 122 726 l 124 726 l 124 726 l 124 726 l 124 726 l 122 726 b 124 728 122 726 122 728 b 124 729 124 728 124 729 b 129 731 125 729 126 729 b 140 733 133 731 138 732 b 153 735 144 733 149 735 b 186 746 167 738 178 742 b 197 761 193 750 197 756 b 181 774 197 765 190 769 b 140 781 169 776 156 779 b 117 781 133 781 125 781 b 114 781 117 781 115 781 l 114 781 l 113 779 b 110 779 111 779 111 779 b 103 778 108 779 106 779 b 99 776 101 778 100 778 b 96 776 97 776 97 776 b 89 772 93 775 92 774 b 85 769 88 771 86 769 b 81 765 83 768 82 767 b 76 761 79 764 78 763 b 74 757 76 760 75 758 b 71 753 72 756 72 754 b 69 751 71 751 69 751 b 61 732 67 744 64 738 b 56 711 58 725 57 718 b 49 668 53 697 50 682 b 47 644 49 660 47 653 b 47 633 47 640 47 636 b 46 621 46 629 46 625 b 43 571 44 606 44 589 b 42 544 42 563 42 554 b 40 532 42 540 40 536 b 40 518 40 526 40 522 b 38 463 39 500 39 482 b 36 406 38 444 38 425 b 35 350 36 388 36 368 b 35 293 35 331 35 313 b 35 267 35 285 35 275 b 35 239 35 257 35 249 b 35 213 35 231 35 221 b 35 188 35 204 35 196 b 36 163 35 179 35 171 b 36 139 36 154 36 147 b 38 96 38 124 38 110 b 39 76 38 89 39 83 b 39 67 39 74 39 71 b 39 63 39 65 39 64 b 39 57 39 61 39 58 b 43 35 40 50 42 42 b 53 15 46 28 49 21 b 67 -1 57 8 61 3 b 82 -11 72 -6 76 -8 b 107 -19 90 -15 100 -18 b 128 -21 115 -21 122 -21 b 157 -19 140 -21 150 -21 b 188 -11 174 -17 182 -14 b 196 0 199 -6 196 0 b 186 7 194 1 192 4 z "},"]":{"ha":204,"x_min":0,"x_max":0,"o":"m 169 519 b 169 546 169 528 169 538 b 168 571 169 554 168 563 b 168 596 168 579 168 588 b 167 619 168 604 168 613 b 165 663 167 635 167 649 b 165 682 165 669 165 676 b 164 692 165 686 165 689 b 164 696 164 693 164 694 b 164 701 164 699 164 700 b 160 724 164 710 163 717 b 151 744 158 731 154 738 b 138 760 147 750 142 756 b 122 769 132 764 126 768 b 96 778 113 775 104 776 b 75 781 89 779 82 781 b 46 778 64 781 54 779 b 15 769 31 775 21 772 b 8 760 6 764 8 760 b 17 753 8 757 13 754 b 40 747 22 750 31 749 b 71 740 49 744 60 743 b 88 735 78 739 83 736 b 94 731 90 733 93 732 b 100 726 97 729 99 728 b 107 715 103 724 106 719 l 107 714 l 107 714 b 107 711 107 713 107 713 b 107 710 107 711 107 710 b 108 707 107 708 108 708 b 108 703 108 706 108 704 b 108 700 108 701 108 700 b 108 697 108 699 108 699 b 107 671 107 689 107 679 b 106 642 107 661 106 651 b 106 611 106 632 106 621 b 106 581 106 601 106 590 b 104 549 106 571 104 560 b 104 517 104 539 104 528 b 101 388 103 474 101 431 b 100 324 100 365 100 344 b 99 265 99 304 99 283 b 94 163 97 226 96 192 b 93 142 94 156 94 149 b 93 132 93 139 93 135 b 93 124 93 129 93 126 b 92 94 93 111 92 101 b 86 54 90 79 89 65 b 83 39 85 49 85 43 b 82 38 83 39 82 39 b 82 36 82 38 82 36 b 81 33 82 35 81 35 l 81 33 l 81 32 l 81 32 l 81 32 l 81 32 l 81 32 b 81 31 81 32 81 31 b 81 31 81 31 81 31 b 75 28 78 29 76 29 b 63 26 71 28 67 26 b 51 24 58 25 54 25 b 18 14 36 21 25 18 b 6 -3 11 8 7 4 b 24 -14 6 -7 13 -11 b 63 -21 33 -18 49 -21 b 86 -22 71 -22 78 -22 b 89 -21 88 -22 88 -21 l 90 -21 l 92 -21 b 93 -21 92 -21 93 -21 b 101 -19 96 -21 99 -19 b 104 -18 103 -19 103 -18 b 108 -17 106 -18 107 -18 b 114 -14 110 -17 113 -15 b 119 -10 117 -12 118 -11 b 124 -6 121 -8 122 -7 b 126 -3 125 -4 125 -4 b 129 1 128 -1 129 0 b 132 7 131 3 132 6 b 133 8 133 7 133 8 b 142 28 138 14 140 21 b 147 47 144 35 146 40 b 154 92 151 61 153 76 b 156 114 156 99 156 107 b 157 126 157 118 157 122 b 157 138 157 131 157 133 b 161 188 158 153 160 171 b 163 214 161 196 161 206 b 163 228 163 218 163 222 b 164 240 163 232 164 236 b 165 296 164 258 165 278 b 167 353 167 315 167 333 b 168 410 167 371 168 390 b 169 465 168 428 168 447 b 169 492 169 474 169 483 b 169 519 169 501 169 511 z "},"@":{"ha":575,"x_min":0,"x_max":0,"o":"m 472 144 b 458 138 468 147 463 142 b 278 51 432 97 376 36 b 163 269 278 51 136 63 b 326 457 163 269 181 454 b 458 329 326 457 453 460 b 372 181 463 228 408 192 b 356 178 367 179 358 178 b 356 176 356 176 356 176 b 360 219 343 178 351 201 b 369 239 363 225 367 232 b 371 239 369 239 369 239 b 371 239 371 239 371 239 b 371 240 371 240 371 240 b 382 300 379 257 407 296 b 358 361 397 354 358 361 b 256 328 296 378 256 328 b 222 282 244 317 232 300 b 204 238 217 272 208 254 b 201 203 201 228 201 215 b 246 161 204 182 218 163 b 321 218 293 160 317 206 b 336 158 301 165 336 158 b 346 158 339 158 342 158 l 346 158 b 490 268 346 158 442 163 b 322 490 539 375 465 488 b 81 285 169 492 93 381 b 269 21 81 285 36 50 b 472 126 269 21 407 3 b 472 144 475 132 478 140 z m 318 253 b 317 251 318 251 317 251 b 317 250 317 251 317 250 b 314 243 315 247 314 244 b 258 186 304 226 282 186 b 267 253 258 186 233 189 b 353 335 301 315 332 339 b 356 294 353 335 368 333 b 318 253 338 286 325 265 z "},"¢":{"ha":360,"x_min":0,"x_max":0,"o":"m 261 704 b 272 679 265 697 268 689 b 281 651 275 671 278 661 b 288 625 283 643 286 633 b 297 588 292 608 294 596 b 314 564 303 574 308 567 b 322 564 318 563 322 564 b 335 597 329 565 333 578 b 333 629 335 607 335 618 b 328 668 332 642 331 654 b 315 708 325 682 321 694 b 296 744 310 721 304 733 b 271 772 289 756 279 765 b 258 779 267 775 263 778 b 253 782 257 781 254 782 b 250 783 251 783 251 783 b 249 785 250 783 249 785 b 244 786 247 785 246 785 b 242 786 243 786 243 786 b 240 788 242 786 240 788 b 232 789 238 788 235 788 b 225 789 229 789 228 789 b 222 789 224 789 222 789 b 218 788 221 788 219 788 b 218 788 218 788 218 788 b 204 814 214 806 210 814 b 197 786 201 814 199 801 b 196 786 196 786 196 786 b 182 785 190 786 186 785 b 176 783 181 783 178 783 b 172 782 175 782 174 782 b 169 781 171 781 169 781 b 131 758 157 776 143 768 b 97 721 119 747 107 735 b 83 697 92 713 88 706 b 71 672 79 689 75 681 b 53 618 64 654 58 636 b 33 500 43 581 38 540 b 28 382 29 461 28 421 b 28 353 28 372 28 363 b 28 324 28 343 28 333 b 29 265 28 304 28 285 b 36 208 31 246 33 226 b 46 156 39 190 42 172 b 63 107 51 139 56 122 b 85 67 69 92 76 78 b 90 58 86 64 88 61 b 96 50 92 56 94 53 b 103 43 99 47 100 44 b 108 36 104 40 107 38 b 121 25 113 32 117 28 b 126 21 124 24 125 22 b 132 17 129 19 131 18 b 138 14 133 17 136 15 b 143 11 139 13 140 13 b 147 8 144 10 146 10 b 150 7 149 8 150 8 b 153 7 151 7 151 7 b 163 3 156 6 160 4 b 171 1 165 3 168 1 b 179 0 174 0 176 0 b 188 -1 182 -1 185 -1 b 199 -1 192 -1 194 -1 b 207 -19 203 -24 207 -19 b 211 -1 208 -18 210 -12 b 225 -3 215 -1 219 -3 b 232 -1 228 -3 229 -3 b 240 0 235 -1 238 -1 b 256 6 244 1 250 3 b 288 32 268 11 278 21 b 307 67 296 43 303 56 b 319 101 313 79 317 92 b 331 150 326 124 329 142 b 332 190 335 168 335 182 b 311 206 328 199 321 204 b 296 193 304 207 299 200 b 292 185 294 190 293 188 b 290 181 292 182 290 181 b 278 138 288 169 283 154 b 274 125 276 133 275 129 b 272 118 274 122 272 119 b 269 111 271 115 271 114 b 260 86 267 103 264 94 b 249 67 257 79 253 72 b 236 53 244 60 240 56 b 225 44 233 49 229 46 b 222 43 224 43 224 43 b 217 47 221 44 218 46 b 222 653 225 199 222 564 b 222 692 224 667 224 681 b 222 729 222 706 222 718 b 240 729 229 732 235 733 b 240 729 240 729 240 729 b 240 729 240 729 240 729 b 243 726 242 729 243 728 b 247 724 244 725 246 725 b 261 704 251 718 257 713 z m 190 64 b 168 85 182 69 175 76 b 147 117 160 94 154 104 b 133 161 142 129 138 144 b 124 214 129 178 126 196 b 119 275 122 233 121 254 b 119 338 119 294 119 317 b 121 403 119 360 121 382 b 129 522 122 446 125 486 b 147 614 133 558 139 590 b 167 661 153 636 161 651 b 192 701 169 664 179 683 b 192 643 192 683 192 664 b 192 67 188 463 189 147 b 193 63 192 65 193 64 b 190 64 192 63 192 63 z "},"$":{"ha":433,"x_min":0,"x_max":0,"o":"m 335 344 b 278 413 319 365 300 386 b 246 449 265 426 256 438 b 246 653 246 540 246 618 b 244 743 247 690 246 719 b 268 740 251 743 260 743 b 297 721 279 736 289 729 b 303 715 299 718 301 717 b 304 713 303 714 303 714 b 315 685 310 703 314 693 b 314 607 322 653 308 624 b 333 593 317 600 322 596 b 365 635 358 588 364 614 b 365 656 365 643 365 650 b 364 672 365 664 364 669 b 363 678 364 674 363 676 b 351 714 361 690 357 703 b 333 742 347 725 340 735 b 324 753 331 746 326 749 b 315 760 321 756 318 757 b 313 763 314 760 313 761 b 310 764 311 763 310 763 b 307 765 308 764 307 765 b 304 767 307 765 306 767 b 301 768 304 767 303 768 b 296 771 300 769 299 771 b 290 774 294 772 293 772 b 288 775 290 774 289 775 b 285 776 286 775 286 776 b 281 778 283 776 282 776 b 278 778 281 778 279 778 b 275 779 276 779 275 779 l 272 779 l 271 781 b 264 782 268 781 267 781 b 257 782 261 782 258 782 l 257 782 l 254 782 l 253 783 b 251 783 253 783 251 783 b 246 783 249 783 247 783 b 242 783 244 783 243 783 b 228 814 239 804 233 814 b 219 783 224 814 222 800 b 214 782 218 783 215 783 b 169 769 199 781 185 776 b 133 739 156 761 143 751 b 117 714 126 732 121 724 b 88 588 101 689 85 647 b 100 519 88 561 93 539 b 181 396 104 506 122 460 b 213 361 192 383 203 372 b 215 67 213 232 214 113 b 217 50 217 61 217 56 b 206 49 213 50 210 49 b 190 50 200 49 194 49 b 190 50 190 50 190 50 b 185 50 189 50 186 50 l 188 49 b 165 54 179 50 172 51 b 139 67 156 57 146 61 b 118 83 131 71 124 76 b 101 103 111 89 107 96 b 90 124 97 110 94 117 b 79 165 85 139 82 153 b 76 182 78 171 78 176 b 76 197 76 188 76 193 l 76 197 b 93 268 76 242 90 263 b 94 269 94 268 94 269 l 94 269 l 94 269 b 143 342 119 301 160 311 b 107 344 135 357 121 353 b 99 338 106 343 103 340 b 81 319 93 333 88 328 b 79 318 81 318 79 318 l 79 318 b 68 301 76 313 72 307 b 54 271 63 292 58 282 b 43 233 49 260 46 247 b 40 213 42 228 40 221 b 39 190 39 206 39 199 b 43 143 38 175 39 160 b 61 92 46 126 51 108 b 99 44 69 75 82 58 b 126 25 107 36 117 31 b 158 13 136 19 147 15 b 194 6 171 10 182 7 b 221 6 203 6 211 6 b 229 -19 225 -25 229 -19 b 236 7 232 -18 235 -8 b 267 13 246 7 257 10 b 301 26 279 15 290 19 b 318 36 307 29 313 33 b 332 49 324 40 328 44 b 356 78 342 58 349 68 b 379 143 368 99 375 121 b 382 165 381 150 382 158 b 335 344 389 256 350 321 z m 193 528 b 178 665 165 581 174 644 b 217 736 185 708 201 728 b 217 721 217 726 217 721 b 213 494 215 668 214 585 b 193 528 204 508 197 519 z m 240 60 b 246 319 243 125 244 222 b 294 178 276 278 293 236 b 240 60 294 117 271 78 z "},"€":{"ha":417,"x_min":0,"x_max":0,"o":"m 383 163 b 378 207 383 178 382 193 b 364 242 375 219 369 232 b 346 263 358 251 351 258 b 339 268 343 264 340 267 b 331 271 336 268 333 269 b 325 271 329 271 326 271 b 322 272 324 272 322 272 b 319 272 321 272 321 272 b 315 271 318 272 317 271 b 311 271 314 271 313 271 b 307 267 310 269 308 268 b 303 261 304 265 304 263 b 303 258 303 260 303 258 b 324 229 303 250 315 243 b 326 224 324 228 325 225 b 328 217 326 221 328 219 b 332 201 331 213 331 207 b 335 161 335 190 335 176 b 333 140 335 154 333 147 b 332 129 332 136 332 132 b 329 118 331 125 331 121 l 329 117 l 329 117 l 329 117 l 329 117 l 329 114 b 328 108 328 113 328 111 b 325 100 326 106 325 103 b 318 83 322 93 321 88 b 310 71 315 79 313 75 b 301 63 307 68 304 65 b 293 57 299 60 296 58 b 290 54 293 56 292 56 b 288 53 289 54 288 54 b 283 51 286 53 285 53 b 257 57 269 49 257 57 l 257 57 b 249 64 254 60 251 61 b 225 85 240 69 232 76 b 206 117 218 94 211 104 b 190 161 200 129 194 144 b 182 214 186 178 183 196 b 178 275 179 233 178 254 b 176 326 176 292 176 308 b 235 329 203 326 225 328 b 261 344 264 335 261 344 b 178 363 260 356 221 361 b 179 394 178 372 178 383 b 238 397 206 394 228 396 b 263 413 267 401 263 413 b 179 431 263 424 224 428 b 186 522 181 463 183 494 b 204 614 190 558 197 590 b 215 642 208 625 211 635 b 293 721 225 665 261 749 b 293 721 293 721 293 721 b 293 721 293 721 293 721 b 293 721 293 721 293 721 l 293 721 b 308 701 299 715 304 708 b 321 667 314 692 319 679 b 322 663 322 665 322 664 b 322 657 322 660 322 658 l 324 653 l 324 647 b 325 624 324 639 325 632 b 322 581 325 608 324 594 b 318 563 321 574 319 568 b 313 547 317 557 315 551 b 300 528 310 538 304 532 b 289 518 296 524 292 521 b 271 510 282 515 276 513 b 268 508 271 510 269 508 b 265 507 267 508 267 507 b 261 504 264 506 263 504 b 257 497 258 501 258 499 b 257 494 257 496 257 494 b 268 482 257 490 260 486 b 282 478 272 481 276 479 b 303 479 289 478 296 478 b 326 490 311 481 319 485 b 347 513 335 496 342 504 b 361 542 353 521 358 531 b 369 572 365 551 368 561 b 375 635 374 593 375 614 b 374 650 375 640 374 644 b 374 658 374 653 374 656 b 372 661 374 658 374 660 b 372 667 372 663 372 664 b 365 697 371 676 368 688 b 340 744 360 717 350 732 b 314 769 331 757 321 764 b 294 781 307 774 300 778 b 275 785 288 783 282 785 b 267 786 272 785 269 786 b 261 786 265 786 264 786 b 254 786 258 786 256 786 b 240 785 249 786 244 785 b 235 783 238 783 236 783 b 231 782 233 782 232 782 b 226 781 228 781 226 781 b 189 758 215 776 201 768 b 156 721 176 747 165 735 b 140 697 150 713 144 706 b 129 672 136 689 132 681 b 111 618 122 654 115 636 b 92 500 101 581 94 540 b 88 431 89 478 88 454 b 63 432 76 431 68 431 b 15 411 29 432 15 426 b 43 397 15 400 43 397 b 86 394 54 396 68 396 b 86 382 86 390 86 386 b 85 364 86 375 85 369 b 60 364 75 364 65 364 b 13 343 26 365 13 358 b 40 331 13 332 40 331 b 85 326 51 329 67 328 b 85 324 85 326 85 325 b 88 265 85 304 86 285 b 93 208 89 246 90 226 b 104 156 96 190 100 172 b 121 107 108 139 114 122 b 142 67 126 92 135 78 b 147 58 144 64 146 61 b 154 50 150 56 151 53 b 160 43 156 47 158 44 b 167 36 163 40 164 38 b 179 25 171 32 175 28 b 185 21 181 24 182 22 b 190 17 186 19 188 18 b 194 14 192 17 193 15 b 200 11 197 13 199 13 b 206 8 201 10 204 10 b 208 7 207 8 207 8 b 210 7 208 7 210 7 b 219 3 214 6 217 4 b 221 3 221 3 221 3 b 276 -3 228 1 253 -7 b 306 4 285 -1 294 0 b 324 13 311 7 317 10 b 340 28 329 17 335 22 b 356 46 346 33 351 39 b 367 68 360 54 364 61 b 372 81 369 72 371 76 b 375 92 374 85 374 89 b 376 99 376 94 376 96 l 378 101 l 378 103 l 378 104 l 378 104 b 379 111 379 107 379 110 b 381 117 379 113 381 115 b 383 163 382 132 383 149 z "},"£":{"ha":400,"x_min":0,"x_max":0,"o":"m 379 635 b 379 650 379 640 379 644 b 378 658 378 653 378 656 b 378 661 378 658 378 660 b 378 667 378 663 378 664 b 371 697 375 676 374 688 b 344 744 364 717 354 732 b 318 769 335 757 325 764 b 299 781 313 774 306 778 b 281 785 292 783 286 785 b 276 786 279 785 278 786 b 250 786 268 788 258 788 b 246 785 249 786 247 785 b 242 785 244 785 243 785 b 239 783 239 783 239 783 b 228 779 235 782 232 781 b 222 778 226 779 225 778 b 218 775 221 776 219 775 b 215 774 217 774 215 774 b 213 772 214 772 213 772 b 207 768 211 771 208 769 b 196 761 203 767 200 764 b 186 753 193 758 189 756 b 176 742 183 749 179 746 b 158 719 169 735 164 728 b 143 693 153 711 147 703 b 131 665 139 685 135 675 b 113 604 122 646 117 625 b 94 478 103 564 97 519 b 92 431 93 461 92 446 b 68 432 81 431 72 431 b 19 411 33 432 19 426 b 47 397 19 400 47 397 b 90 394 58 396 74 396 b 90 382 90 390 90 386 b 90 364 90 376 90 369 b 65 364 79 364 71 364 b 17 343 31 365 17 358 b 44 331 17 332 44 331 b 90 326 56 329 72 328 b 90 197 90 279 90 236 b 93 99 92 154 92 119 b 94 76 93 90 93 83 b 82 76 89 76 85 76 b 64 74 75 76 69 75 b 47 67 58 72 53 69 b 26 46 38 61 31 54 b 22 35 24 42 22 38 b 24 24 22 31 22 26 b 36 10 25 18 29 14 b 42 7 38 8 40 7 b 47 6 43 6 46 6 b 57 4 51 6 54 4 b 61 4 58 4 60 4 b 63 6 63 4 63 4 b 64 6 64 6 64 6 b 65 6 64 6 64 6 b 68 6 65 6 67 6 b 68 6 68 6 68 6 b 76 6 71 6 74 6 b 88 6 81 6 83 6 b 115 4 96 6 106 6 b 150 0 126 3 138 1 b 168 -1 156 0 161 -1 l 172 -3 l 178 -3 b 188 -3 181 -3 183 -3 b 224 -6 200 -4 213 -4 b 261 -3 236 -6 249 -4 b 292 6 272 -1 283 1 b 297 8 294 6 296 7 b 303 11 300 8 301 10 b 311 15 306 13 308 14 b 333 47 328 28 332 39 b 332 56 333 51 333 54 b 331 60 331 58 331 60 b 317 68 328 64 322 67 b 304 68 313 68 308 68 b 299 68 303 68 300 68 b 294 68 297 68 296 68 b 292 68 294 68 293 68 b 261 65 282 67 272 65 b 225 68 251 65 239 67 b 183 72 213 69 197 71 b 174 74 181 72 176 72 b 164 74 169 74 167 74 b 157 75 161 74 160 74 b 165 113 160 86 163 99 b 176 224 169 146 174 183 b 179 286 178 244 179 265 b 181 318 181 297 181 308 b 181 326 181 321 181 324 b 240 329 207 326 229 328 b 265 344 268 335 265 344 b 182 363 264 356 225 361 b 183 394 182 372 182 383 b 243 397 210 394 232 396 b 268 413 271 401 268 413 b 185 431 267 424 228 428 b 186 461 185 440 185 451 b 197 560 188 497 192 531 b 215 632 201 589 208 614 b 221 643 217 636 219 640 b 297 721 231 669 267 749 b 297 721 297 721 297 721 b 299 721 297 721 299 721 b 299 721 299 721 299 721 l 299 721 b 314 701 304 715 310 708 b 326 667 319 692 324 679 b 326 663 326 665 326 664 b 328 657 328 660 328 658 l 328 653 l 328 647 b 329 624 329 639 329 632 b 326 581 329 608 328 594 b 322 563 325 574 324 568 b 318 547 321 557 319 551 b 306 528 314 538 310 532 b 294 518 301 524 297 521 b 276 510 288 515 281 513 b 272 508 275 510 274 508 b 269 507 272 508 271 507 b 265 504 268 506 267 504 b 263 497 264 501 263 499 b 261 494 261 496 261 494 b 272 482 261 490 265 486 b 288 478 276 481 282 479 b 307 479 293 478 300 478 b 332 490 315 481 324 485 b 353 513 339 496 346 504 b 367 542 358 521 363 531 b 375 572 369 551 372 561 b 379 635 378 593 379 614 z "},"D":{"ha":715,"x_min":0,"x_max":0,"o":"m 396 -82 b 319 104 296 -82 319 104 b 361 576 325 263 342 422 b 343 593 363 586 353 594 b 250 557 321 589 283 579 b 208 478 225 539 208 508 b 204 111 206 408 201 256 b 410 -128 204 111 192 -144 b 669 314 410 -128 633 -128 b 383 788 708 790 383 788 b 46 415 163 797 31 607 b 60 385 47 404 51 393 b 138 344 75 371 103 349 b 161 365 150 343 161 353 b 374 732 156 446 157 729 b 533 318 374 732 560 744 b 396 -82 507 -112 396 -82 z "},"Ç":{"ha":546,"x_min":0,"x_max":0,"o":"m 203 296 b 328 732 203 296 226 736 b 382 606 393 729 388 640 b 393 600 382 600 388 596 b 442 654 415 614 435 643 b 444 667 444 658 444 663 b 313 785 442 808 313 785 b 61 267 313 785 90 771 b 307 -129 38 -137 303 -129 l 308 -131 b 311 -135 308 -132 310 -133 b 313 -139 311 -135 313 -136 b 311 -143 313 -140 313 -142 b 310 -147 311 -144 311 -146 b 296 -154 307 -153 303 -156 b 286 -157 293 -154 289 -154 b 285 -164 285 -160 283 -161 b 306 -174 285 -171 293 -175 b 313 -172 307 -174 310 -172 b 315 -176 314 -174 315 -176 b 307 -200 315 -176 317 -187 b 296 -208 306 -204 300 -210 b 288 -199 292 -208 289 -200 l 288 -196 b 286 -192 286 -194 286 -193 b 279 -186 283 -189 281 -186 b 274 -186 276 -185 275 -185 b 265 -194 271 -186 267 -189 b 267 -207 265 -199 265 -203 b 276 -221 268 -208 271 -215 b 299 -228 281 -224 286 -226 l 301 -228 b 318 -225 307 -228 313 -226 b 344 -194 340 -218 344 -197 b 346 -189 344 -193 346 -190 b 335 -158 346 -174 339 -164 b 338 -149 336 -156 338 -153 l 338 -140 b 333 -126 338 -135 336 -131 b 507 75 382 -121 488 -90 b 401 281 528 250 438 276 b 394 269 396 281 392 275 b 433 89 410 242 443 171 b 306 -79 421 -17 365 -86 b 203 296 246 -72 181 22 z "},"ç":{"ha":347,"x_min":0,"x_max":0,"o":"m 242 279 b 269 299 254 279 264 288 b 251 401 296 360 251 401 b 154 435 232 422 201 439 b 11 286 154 435 53 432 b 122 1 -31 139 53 24 b 153 -4 133 -1 143 -3 b 154 -10 154 -6 154 -7 l 154 -14 b 153 -18 153 -15 153 -17 b 139 -25 150 -24 144 -25 b 128 -28 136 -25 132 -25 b 126 -33 126 -29 126 -32 b 147 -43 128 -40 136 -44 l 154 -43 b 157 -47 157 -44 157 -46 b 150 -71 157 -47 158 -57 b 139 -79 147 -74 142 -79 b 131 -68 135 -79 131 -71 l 129 -67 b 128 -62 129 -65 128 -64 b 121 -56 125 -58 122 -57 l 117 -56 b 108 -65 113 -56 108 -58 b 110 -76 107 -68 108 -72 b 119 -92 110 -78 113 -86 b 140 -97 122 -93 129 -97 l 143 -97 b 160 -96 150 -97 156 -97 b 186 -65 182 -89 186 -67 b 188 -60 188 -62 188 -61 b 176 -29 189 -44 182 -33 b 179 -19 178 -26 179 -24 b 179 -10 181 -15 181 -12 l 179 -6 b 326 94 272 0 326 94 b 382 203 343 122 363 158 b 374 224 386 211 382 221 l 371 224 b 361 219 367 225 364 222 b 303 113 354 203 332 154 b 182 39 303 113 244 32 b 110 214 96 49 110 214 b 225 369 119 335 189 393 b 210 301 225 369 243 346 b 213 288 207 297 208 290 b 242 279 221 282 231 279 z "},"Ø":{"ha":588,"x_min":0,"x_max":0,"o":"m 483 757 b 451 722 475 760 463 742 l 435 693 b 306 786 418 806 306 786 b 54 265 306 786 83 772 b 154 -75 43 76 96 -22 b 150 -135 147 -108 147 -126 b 158 -143 153 -144 158 -143 b 192 -101 167 -143 178 -128 b 301 -132 249 -133 301 -132 b 532 199 301 -132 506 -144 b 525 411 532 199 540 304 b 568 513 544 440 560 475 l 568 519 b 529 640 569 536 568 603 b 514 635 524 646 515 642 b 500 521 513 611 508 567 b 460 590 489 547 476 572 b 479 642 465 607 475 633 l 483 657 l 489 671 b 499 715 494 689 497 703 b 483 757 501 739 497 753 z m 450 351 b 444 207 450 274 444 207 b 299 -82 431 6 358 -89 b 228 -21 274 -78 249 -60 b 340 256 263 58 321 203 l 374 349 b 450 351 419 338 450 351 z m 196 294 b 321 733 196 294 219 738 b 378 628 375 731 379 668 b 314 604 338 631 314 604 b 271 499 294 588 275 556 b 314 379 267 444 285 404 l 306 354 b 207 76 286 297 222 124 b 201 61 206 72 204 67 b 196 294 192 118 188 194 z m 449 399 b 422 386 440 392 432 388 b 388 390 413 385 400 385 l 410 449 b 431 510 417 471 424 492 b 449 399 440 478 446 439 z m 378 572 b 386 571 381 572 383 571 l 382 563 b 375 543 381 556 378 550 b 368 524 372 538 369 531 l 343 461 b 340 489 342 469 340 478 b 378 572 333 575 378 572 z "},"ø":{"ha":342,"x_min":0,"x_max":0,"o":"m 282 493 b 251 461 274 496 261 479 b 232 426 240 444 232 426 l 226 415 b 149 436 204 431 176 438 b 32 296 83 432 29 363 b 6 232 11 265 6 232 b 76 17 -10 147 14 54 b 68 -50 65 -22 65 -42 b 75 -58 69 -58 75 -58 b 118 1 83 -60 100 -36 b 178 4 136 0 156 0 b 300 188 178 4 282 28 b 301 261 303 214 303 239 b 326 314 311 276 319 294 b 322 343 329 324 328 335 b 315 342 319 346 315 344 b 296 303 311 333 306 319 b 269 367 290 328 281 349 b 275 389 274 376 272 379 l 281 401 l 285 414 b 296 454 290 431 293 444 b 282 493 299 476 294 489 z m 236 151 b 171 49 218 56 181 51 b 142 51 158 46 149 47 b 186 157 156 82 171 117 b 203 192 197 183 194 172 b 244 208 217 194 231 200 b 236 151 244 208 242 174 z m 163 388 b 208 368 178 389 194 382 b 201 351 206 363 203 357 l 194 335 b 188 317 192 329 189 324 l 153 232 b 121 256 143 236 131 243 b 151 329 131 289 143 315 b 146 344 156 336 151 343 b 117 346 135 346 125 346 b 163 388 126 371 144 386 z m 113 196 b 138 189 121 193 128 190 b 111 121 125 156 119 144 b 113 196 108 149 111 178 z m 246 249 b 218 233 238 242 228 238 l 238 285 l 242 294 b 246 249 244 281 246 265 z "},"Ÿ":{"ha":664,"x_min":0,"x_max":0,"o":"m 619 406 b 615 553 619 457 618 507 b 572 649 613 589 600 626 b 479 692 544 671 514 685 b 461 672 469 694 460 685 b 486 411 472 593 482 506 b 482 235 486 411 490 335 b 368 54 478 203 453 57 b 357 465 271 50 332 300 b 203 789 386 654 336 783 b 40 682 101 793 57 718 b 38 642 35 669 33 654 b 104 571 49 599 83 579 b 118 579 111 568 118 572 b 196 756 113 640 146 775 b 204 239 250 733 221 458 b 333 4 186 14 333 4 b 457 57 392 -1 431 24 b 350 -179 436 -33 404 -121 b 138 -244 350 -179 242 -293 b 96 -89 138 -244 63 -218 b 206 32 115 -14 179 21 b 208 47 213 35 214 43 b 107 60 176 76 131 67 b 82 42 97 56 89 50 b 33 -104 28 -22 33 -104 b 129 -278 33 -104 28 -233 b 422 -226 285 -349 422 -226 b 619 406 626 -43 619 406 z m 426 826 b 389 783 404 825 388 806 b 432 744 390 760 410 743 b 471 788 454 746 472 765 b 426 826 469 811 449 828 z m 553 819 b 515 775 531 818 514 799 b 558 738 517 753 536 736 b 597 781 581 739 599 758 b 553 819 596 803 576 821 z "},"À":{"ha":596,"x_min":0,"x_max":0,"o":"m 544 789 b 544 789 544 789 544 789 l 544 789 b 544 789 544 789 544 789 b 513 782 533 789 522 788 b 233 483 444 763 294 697 b 185 214 208 394 193 300 b 76 206 132 213 96 208 b 46 192 65 203 54 199 b 14 115 21 172 8 144 b 35 104 15 106 26 100 b 178 139 82 119 131 131 b 175 -85 172 39 174 -44 b 208 -126 176 -104 189 -121 b 228 -129 214 -128 221 -129 b 242 -117 236 -131 242 -124 b 244 146 240 -81 236 22 b 407 149 307 151 364 150 b 408 11 407 100 407 54 b 450 -86 410 -25 422 -62 b 543 -131 476 -107 508 -124 b 560 -111 553 -133 561 -124 b 563 765 531 128 529 450 b 544 789 565 778 556 790 z m 429 515 b 408 200 419 408 411 301 b 250 214 347 208 296 213 b 456 707 269 410 322 631 b 429 515 456 707 443 651 z m 476 853 b 522 835 490 846 507 839 b 569 832 539 831 556 829 b 578 835 572 832 576 833 b 586 839 581 836 583 838 b 594 851 590 842 593 846 b 594 863 594 851 596 856 b 592 872 594 865 593 868 b 583 882 590 875 588 879 b 563 892 579 885 572 888 b 531 904 554 894 543 900 b 469 929 508 914 483 925 b 460 931 469 929 465 931 b 440 919 454 929 446 928 b 450 876 440 919 429 903 b 476 853 450 876 461 861 z "},"Á":{"ha":596,"x_min":0,"x_max":0,"o":"m 544 789 b 544 789 544 789 544 789 l 544 789 b 544 789 544 789 544 789 b 513 782 533 789 522 788 b 233 483 444 763 294 697 b 185 214 208 394 193 300 b 76 206 132 213 96 208 b 46 192 65 203 54 199 b 14 115 21 172 8 144 b 35 104 15 106 26 100 b 178 139 82 119 131 131 b 175 -85 172 39 174 -44 b 208 -126 176 -104 189 -121 b 228 -129 214 -128 221 -129 b 242 -117 236 -131 242 -124 b 244 146 240 -81 236 22 b 407 149 307 151 364 150 b 408 11 407 100 407 54 b 450 -86 410 -25 422 -62 b 543 -131 476 -107 508 -124 b 560 -111 553 -133 561 -124 b 563 765 531 128 529 450 b 544 789 565 778 556 790 z m 429 515 b 408 200 419 408 411 301 b 250 214 347 208 296 213 b 456 707 269 410 322 631 b 429 515 456 707 443 651 z m 558 836 b 586 860 575 844 586 860 b 594 903 606 886 594 903 b 576 914 589 911 582 913 b 567 913 571 914 567 913 b 504 888 551 908 528 897 b 472 875 493 883 482 878 b 453 865 464 871 456 868 b 444 856 449 863 446 858 b 442 846 442 851 442 849 b 442 835 440 839 442 835 b 450 822 443 829 446 825 b 457 818 453 821 454 819 b 467 815 460 817 463 815 b 513 818 479 813 496 814 b 558 836 529 822 546 829 z "},"Ã":{"ha":596,"x_min":0,"x_max":0,"o":"m 544 789 b 544 789 544 789 544 789 l 544 789 b 544 789 544 789 544 789 b 513 782 533 789 522 788 b 233 483 444 763 294 697 b 185 214 208 394 193 300 b 76 206 132 213 96 208 b 46 192 65 203 54 199 b 14 115 21 172 8 144 b 35 104 15 106 26 100 b 178 139 82 119 131 131 b 175 -85 172 39 174 -44 b 208 -126 176 -104 189 -121 b 228 -129 214 -128 221 -129 b 242 -117 236 -131 242 -124 b 244 146 240 -81 236 22 b 407 149 307 151 364 150 b 408 11 407 100 407 54 b 450 -86 410 -25 422 -62 b 543 -131 476 -107 508 -124 b 560 -111 553 -133 561 -124 b 563 765 531 128 529 450 b 544 789 565 778 556 790 z m 429 515 b 408 200 419 408 411 301 b 250 214 347 208 296 213 b 456 707 269 410 322 631 b 429 515 456 707 443 651 z m 593 854 b 478 889 581 915 511 901 b 401 917 446 876 429 924 b 397 872 374 910 397 872 b 542 844 435 794 525 843 b 582 825 565 846 565 824 b 593 854 597 828 593 854 z "},"Ä":{"ha":596,"x_min":0,"x_max":0,"o":"m 544 789 b 544 789 544 789 544 789 l 544 789 b 544 789 544 789 544 789 b 513 782 533 789 522 788 b 233 483 444 763 294 697 b 185 214 208 394 193 300 b 76 206 132 213 96 208 b 46 192 65 203 54 199 b 14 115 21 172 8 144 b 35 104 15 106 26 100 b 178 139 82 119 131 131 b 175 -85 172 39 174 -44 b 208 -126 176 -104 189 -121 b 228 -129 214 -128 221 -129 b 242 -117 236 -131 242 -124 b 244 146 240 -81 236 22 b 407 149 307 151 364 150 b 408 11 407 100 407 54 b 450 -86 410 -25 422 -62 b 543 -131 476 -107 508 -124 b 560 -111 553 -133 561 -124 b 563 765 531 128 529 450 b 544 789 565 778 556 790 z m 429 515 b 408 200 419 408 411 301 b 250 214 347 208 296 213 b 456 707 269 410 322 631 b 429 515 456 707 443 651 z m 408 917 b 371 874 386 915 369 896 b 414 835 372 850 392 833 b 453 878 436 836 454 856 b 408 917 451 901 431 918 z m 535 910 b 497 865 513 908 496 889 b 540 828 499 843 518 826 b 579 871 563 829 581 849 b 535 910 578 893 558 911 z "},"Å":{"ha":596,"x_min":0,"x_max":0,"o":"m 544 789 b 544 789 544 789 544 789 l 544 789 b 544 789 544 789 544 789 b 513 782 533 789 522 788 b 233 483 444 763 294 697 b 185 214 208 394 193 300 b 76 206 132 213 96 208 b 46 192 65 203 54 199 b 14 115 21 172 8 144 b 35 104 15 106 26 100 b 178 139 82 119 131 131 b 175 -85 172 39 174 -44 b 208 -126 176 -104 189 -121 b 228 -129 214 -128 221 -129 b 242 -117 236 -131 242 -124 b 244 146 240 -81 236 22 b 407 149 307 151 364 150 b 408 11 407 100 407 54 b 450 -86 410 -25 422 -62 b 543 -131 476 -107 508 -124 b 560 -111 553 -133 561 -124 b 563 765 531 128 529 450 b 544 789 565 778 556 790 z m 429 515 b 408 200 419 408 411 301 b 250 214 347 208 296 213 b 456 707 269 410 322 631 b 429 515 456 707 443 651 z m 510 924 b 461 875 483 924 461 901 b 510 825 461 847 483 825 b 560 875 538 825 560 847 b 510 924 560 901 538 924 z m 510 854 b 490 875 499 854 490 864 b 510 894 490 886 499 894 b 531 875 521 894 531 886 b 510 854 531 864 521 854 z "},"È":{"ha":543,"x_min":0,"x_max":0,"o":"m 301 -79 b 429 89 363 -76 417 -17 b 390 269 438 171 406 242 b 397 281 388 275 392 281 b 503 75 433 276 524 250 b 304 -129 479 -137 304 -129 b 47 149 304 -129 25 -172 b 272 429 63 365 272 429 b 160 601 272 429 144 432 b 308 785 174 775 308 785 b 440 667 308 785 438 808 b 438 654 440 663 440 658 b 389 600 431 643 411 614 b 378 606 383 596 378 600 b 324 732 383 640 389 729 b 256 604 324 732 267 729 b 339 450 247 493 308 454 b 346 440 343 449 346 444 l 344 419 b 322 381 344 403 336 389 b 190 149 282 358 201 296 b 301 -79 175 -50 267 -81 z m 296 835 b 342 817 310 828 326 821 b 389 814 358 813 375 811 b 397 817 392 814 396 815 b 406 821 400 818 403 819 b 414 833 410 824 413 828 b 414 844 414 833 415 838 b 411 854 414 847 413 850 b 403 864 410 857 407 861 b 382 874 399 867 392 869 b 350 886 374 876 363 882 b 289 911 328 896 303 907 b 279 913 289 911 285 913 b 260 901 274 911 265 910 b 269 858 260 901 249 885 b 296 835 269 858 281 843 z "},"É":{"ha":543,"x_min":0,"x_max":0,"o":"m 301 -79 b 190 149 267 -81 175 -50 b 322 381 201 296 282 358 b 344 419 336 389 344 403 l 346 440 b 339 450 346 444 343 449 b 256 604 308 454 247 493 b 324 732 267 729 324 732 b 378 606 389 729 383 640 b 389 600 378 600 383 596 b 438 654 411 614 431 643 b 440 667 440 658 440 663 b 308 785 438 808 308 785 b 160 601 308 785 174 775 b 272 429 144 432 272 429 b 47 149 272 429 63 365 b 304 -129 25 -172 304 -129 b 503 75 304 -129 479 -137 b 397 281 524 250 433 276 b 390 269 392 281 388 275 b 429 89 406 242 438 171 b 301 -79 417 -17 363 -76 z m 379 844 b 407 868 396 853 407 868 b 415 911 426 894 415 911 b 397 922 410 919 403 921 b 388 921 392 922 388 921 b 325 896 372 917 349 906 b 293 883 314 892 303 886 b 274 874 285 879 276 876 b 265 864 269 871 267 867 b 263 854 263 860 263 857 b 263 843 261 847 263 843 b 271 831 264 838 267 833 b 278 826 274 829 275 828 b 288 824 281 825 283 824 b 333 826 300 821 317 822 b 379 844 350 831 367 838 z "},"Ë":{"ha":543,"x_min":0,"x_max":0,"o":"m 301 -79 b 429 89 363 -76 417 -17 b 390 269 438 171 406 242 b 397 281 388 275 392 281 b 503 75 433 276 524 250 b 304 -129 479 -137 304 -129 b 47 149 304 -129 25 -172 b 272 429 63 365 272 429 b 160 601 272 429 144 432 b 308 785 174 775 308 785 b 440 667 308 785 438 808 b 438 654 440 663 440 658 b 389 600 431 643 411 614 b 378 606 383 596 378 600 b 324 732 383 640 389 729 b 256 604 324 732 267 729 b 339 450 247 493 308 454 b 346 440 343 449 346 444 l 344 419 b 322 381 344 403 336 389 b 190 149 282 358 201 296 b 301 -79 175 -50 267 -81 z m 253 901 b 215 858 231 900 214 881 b 258 819 217 835 236 818 b 297 863 281 821 299 840 b 253 901 296 886 275 903 z m 379 894 b 342 850 357 893 340 874 b 385 813 343 828 363 811 b 424 856 407 814 425 833 b 379 894 422 878 403 896 z "},"Ì":{"ha":290,"x_min":0,"x_max":0,"o":"m 310 775 b 281 788 301 783 292 788 b 61 751 246 790 179 796 b 38 725 51 747 42 736 l 31 699 b 33 694 29 697 31 694 b 138 713 50 700 86 710 b 133 692 136 706 135 699 b 86 29 96 454 79 228 b 126 -68 88 -7 100 -46 b 138 -76 131 -71 135 -74 b 57 -78 107 -79 79 -79 b 51 -85 53 -78 51 -81 b 103 -125 57 -108 75 -121 b 254 -126 182 -135 228 -131 b 282 -114 264 -124 274 -121 b 308 -58 300 -100 310 -81 b 288 -44 307 -49 297 -42 b 233 -60 268 -51 250 -56 b 238 708 210 160 210 428 b 321 692 264 706 290 700 b 340 711 331 689 339 699 b 310 775 340 738 328 760 z m 160 854 b 206 836 174 847 190 840 b 253 833 222 832 239 831 b 261 836 256 833 260 835 b 269 840 264 838 267 839 b 278 853 274 843 276 847 b 278 864 278 853 279 857 b 275 874 278 867 276 869 b 267 883 274 876 271 881 b 246 893 263 886 256 889 b 214 906 238 896 226 901 b 153 931 192 915 167 926 b 143 932 153 931 149 932 b 124 921 138 931 129 929 b 133 878 124 921 113 904 b 160 854 133 878 144 863 z "},"Í":{"ha":290,"x_min":0,"x_max":0,"o":"m 310 775 b 281 788 301 783 292 788 b 61 751 246 790 179 796 b 38 725 51 747 42 736 l 31 699 b 33 694 29 697 31 694 b 138 713 50 700 86 710 b 133 692 136 706 135 699 b 86 29 96 454 79 228 b 126 -68 88 -7 100 -46 b 138 -76 131 -71 135 -74 b 57 -78 107 -79 79 -79 b 51 -85 53 -78 51 -81 b 103 -125 57 -108 75 -121 b 254 -126 182 -135 228 -131 b 282 -114 264 -124 274 -121 b 308 -58 300 -100 310 -81 b 288 -44 307 -49 297 -42 b 233 -60 268 -51 250 -56 b 238 708 210 160 210 428 b 321 692 264 706 290 700 b 340 711 331 689 339 699 b 310 775 340 738 328 760 z m 239 853 b 267 876 256 861 267 876 b 275 919 286 903 275 919 b 257 931 269 928 263 929 b 247 929 251 931 247 929 b 185 904 232 925 208 914 b 153 892 174 900 163 894 b 133 882 144 888 136 885 b 125 872 129 879 126 875 b 122 863 122 868 122 865 b 122 851 121 856 122 851 b 131 839 124 846 126 842 b 138 835 133 838 135 836 b 147 832 140 833 143 832 b 193 835 160 829 176 831 b 239 853 210 839 226 846 z "},"Ï":{"ha":290,"x_min":0,"x_max":0,"o":"m 310 775 b 281 788 301 783 292 788 b 61 751 246 790 179 796 b 38 725 51 747 42 736 l 31 699 b 33 694 29 697 31 694 b 138 713 50 700 86 710 b 133 692 136 706 135 699 b 86 29 96 454 79 228 b 126 -68 88 -7 100 -46 b 138 -76 131 -71 135 -74 b 57 -78 107 -79 79 -79 b 51 -85 53 -78 51 -81 b 103 -125 57 -108 75 -121 b 254 -126 182 -135 228 -131 b 282 -114 264 -124 274 -121 b 308 -58 300 -100 310 -81 b 288 -44 307 -49 297 -42 b 233 -60 268 -51 250 -56 b 238 708 210 160 210 428 b 321 692 264 706 290 700 b 340 711 331 689 339 699 b 310 775 340 738 328 760 z m 132 900 b 94 857 110 899 93 879 b 138 818 96 833 115 817 b 176 861 160 819 178 839 b 132 900 175 885 154 901 z m 258 893 b 221 849 236 892 219 872 b 264 811 222 826 242 810 b 303 854 286 813 304 832 b 258 893 301 876 282 894 z "},"Ñ":{"ha":647,"x_min":0,"x_max":0,"o":"m 615 -112 b 597 467 596 51 589 254 b 579 663 603 592 579 663 b 490 729 547 750 490 729 b 356 510 438 721 392 625 b 192 789 356 683 306 783 b 31 671 92 794 46 711 b 28 625 25 657 24 640 b 93 547 38 578 72 556 b 108 557 100 544 108 550 b 186 751 103 625 136 774 b 210 192 240 728 242 432 b 164 -81 186 24 171 -53 b 176 -96 161 -89 168 -97 b 246 -71 207 -94 231 -82 b 271 -36 257 -62 265 -50 b 314 149 288 17 303 83 l 315 149 b 465 617 315 149 388 593 b 485 510 465 617 499 629 l 485 510 b 465 10 465 332 460 158 b 506 -86 467 -26 479 -64 b 599 -132 532 -108 564 -124 b 615 -112 608 -133 617 -124 z m 522 840 b 407 875 510 901 440 888 b 331 903 375 863 358 910 b 326 858 303 896 326 858 b 471 831 364 781 454 829 b 511 811 494 832 494 810 b 522 840 526 814 522 840 z "},"Ò":{"ha":588,"x_min":0,"x_max":0,"o":"m 529 640 b 514 635 524 646 515 642 b 500 521 513 611 508 567 b 411 622 481 571 453 610 b 435 656 422 635 431 649 b 438 667 438 658 438 663 b 306 786 435 810 306 786 b 54 265 306 786 83 772 b 301 -132 31 -142 301 -132 b 532 199 301 -132 506 -144 b 525 411 532 199 540 304 b 568 513 544 440 560 475 b 568 519 568 515 568 518 b 529 640 569 536 568 603 z m 378 572 b 449 399 426 568 443 485 b 422 386 440 392 432 388 b 340 489 394 383 349 389 b 378 572 333 575 378 572 z m 450 351 b 444 207 450 274 444 207 b 299 -82 431 6 358 -89 b 196 294 239 -74 174 21 b 321 733 196 294 219 738 b 378 628 375 731 379 668 b 314 604 338 631 314 604 b 271 499 294 588 275 556 b 374 349 264 414 314 364 b 450 351 419 338 450 351 z m 306 842 b 351 824 319 835 336 828 b 399 821 368 819 385 818 b 407 824 401 821 406 822 b 415 828 410 825 413 826 b 424 840 419 831 422 835 b 424 851 424 840 425 844 b 421 861 424 854 422 857 b 413 871 419 864 417 868 b 392 881 408 874 401 876 b 360 893 383 883 372 889 b 299 918 338 903 313 914 b 289 919 299 918 294 919 b 269 908 283 918 275 917 b 279 865 269 908 258 892 b 306 842 279 865 290 850 z "},"Ó":{"ha":588,"x_min":0,"x_max":0,"o":"m 529 640 b 514 635 524 646 515 642 b 500 521 513 611 508 567 b 411 622 481 571 453 610 b 435 656 422 635 431 649 b 438 667 438 658 438 663 b 306 786 435 810 306 786 b 54 265 306 786 83 772 b 301 -132 31 -142 301 -132 b 532 199 301 -132 506 -144 b 525 411 532 199 540 304 b 568 513 544 440 560 475 b 568 519 568 515 568 518 b 529 640 569 536 568 603 z m 378 572 b 449 399 426 568 443 485 b 422 386 440 392 432 388 b 340 489 394 383 349 389 b 378 572 333 575 378 572 z m 450 351 b 444 207 450 274 444 207 b 299 -82 431 6 358 -89 b 196 294 239 -74 174 21 b 321 733 196 294 219 738 b 378 628 375 731 379 668 b 314 604 338 631 314 604 b 271 499 294 588 275 556 b 374 349 264 414 314 364 b 450 351 419 338 450 351 z m 382 839 b 410 863 399 847 410 863 b 418 906 429 889 418 906 b 400 917 413 914 406 915 b 390 915 394 917 390 915 b 328 890 375 911 351 900 b 296 878 317 886 306 881 b 276 868 288 874 279 871 b 268 858 272 865 269 861 b 265 849 265 854 265 851 b 265 838 264 842 265 838 b 274 825 267 832 269 828 b 281 821 276 824 278 822 b 290 818 283 819 286 818 b 336 821 303 815 319 817 b 382 839 353 825 369 832 z "},"Õ":{"ha":588,"x_min":0,"x_max":0,"o":"m 529 640 b 514 635 524 646 515 642 b 500 521 513 611 508 567 b 411 622 481 571 453 610 b 435 656 422 635 431 649 b 438 667 438 658 438 663 b 306 786 435 810 306 786 b 54 265 306 786 83 772 b 301 -132 31 -142 301 -132 b 532 199 301 -132 506 -144 b 525 411 532 199 540 304 b 568 513 544 440 560 475 b 568 519 568 515 568 518 b 529 640 569 536 568 603 z m 378 572 b 449 399 426 568 443 485 b 422 386 440 392 432 388 b 340 489 394 383 349 389 b 378 572 333 575 378 572 z m 450 351 b 444 207 450 274 444 207 b 299 -82 431 6 358 -89 b 196 294 239 -74 174 21 b 321 733 196 294 219 738 b 378 628 375 731 379 668 b 314 604 338 631 314 604 b 271 499 294 588 275 556 b 374 349 264 414 314 364 b 450 351 419 338 450 351 z m 453 849 b 338 883 440 910 371 896 b 261 911 306 871 289 918 b 257 867 233 904 257 867 b 401 839 294 789 385 838 b 442 819 425 840 425 818 b 453 849 457 822 453 849 z "},"Ö":{"ha":588,"x_min":0,"x_max":0,"o":"m 529 640 b 514 635 524 646 515 642 b 500 521 513 611 508 567 b 411 622 481 571 453 610 b 435 656 422 635 431 649 b 438 667 438 658 438 663 b 306 786 435 810 306 786 b 54 265 306 786 83 772 b 301 -132 31 -142 301 -132 b 532 199 301 -132 506 -144 b 525 411 532 199 540 304 b 568 513 544 440 560 475 b 568 519 568 515 568 518 b 529 640 569 536 568 603 z m 378 572 b 449 399 426 568 443 485 b 422 386 440 392 432 388 b 340 489 394 383 349 389 b 378 572 333 575 378 572 z m 450 351 b 444 207 450 274 444 207 b 299 -82 431 6 358 -89 b 196 294 239 -74 174 21 b 321 733 196 294 219 738 b 378 628 375 731 379 668 b 314 604 338 631 314 604 b 271 499 294 588 275 556 b 374 349 264 414 314 364 b 450 351 419 338 450 351 z m 282 913 b 244 869 260 911 243 892 b 288 831 246 846 265 829 b 326 874 310 832 328 851 b 282 913 325 897 304 914 z m 408 906 b 371 861 386 904 369 885 b 414 824 372 839 392 822 b 453 867 436 825 454 844 b 408 906 451 889 432 907 z "},"Ù":{"ha":639,"x_min":0,"x_max":0,"o":"m 615 788 b 519 749 579 782 547 769 b 472 656 490 728 475 692 b 457 182 457 515 451 350 b 350 -24 457 163 451 -17 b 339 431 253 -31 315 249 b 185 789 368 640 318 782 b 24 671 83 794 39 711 b 19 625 18 657 17 640 b 86 547 31 578 65 556 b 100 557 93 544 100 550 b 178 751 94 625 128 774 b 186 181 232 728 203 422 b 315 -79 168 -68 315 -79 b 464 36 403 -89 444 -21 b 469 -29 465 14 468 -7 b 554 -131 474 -76 503 -128 b 575 -107 565 -132 575 -121 b 631 767 561 210 585 531 b 615 788 633 779 625 789 z m 368 842 b 414 824 382 835 399 828 b 461 821 431 819 447 818 b 469 824 464 821 468 822 b 478 828 472 825 475 826 b 486 840 482 831 485 835 b 486 851 486 840 488 844 b 483 861 486 854 485 857 b 475 871 482 864 479 868 b 454 881 471 874 464 876 b 422 893 446 883 435 889 b 361 918 400 903 375 914 b 351 919 361 918 357 919 b 332 908 346 918 338 917 b 342 865 332 908 321 892 b 368 842 342 865 353 850 z "},"Ú":{"ha":639,"x_min":0,"x_max":0,"o":"m 615 788 b 519 749 579 782 547 769 b 472 656 490 728 475 692 b 457 182 457 515 451 350 b 350 -24 457 163 451 -17 b 339 431 253 -31 315 249 b 185 789 368 640 318 782 b 24 671 83 794 39 711 b 19 625 18 657 17 640 b 86 547 31 578 65 556 b 100 557 93 544 100 550 b 178 751 94 625 128 774 b 186 181 232 728 203 422 b 315 -79 168 -68 315 -79 b 464 36 403 -89 444 -21 b 469 -29 465 14 468 -7 b 554 -131 474 -76 503 -128 b 575 -107 565 -132 575 -121 b 631 767 561 210 585 531 b 615 788 633 779 625 789 z m 453 818 b 481 842 469 826 481 842 b 489 885 500 868 489 885 b 471 896 483 893 476 894 b 461 894 465 896 461 894 b 399 869 446 890 422 879 b 367 857 388 865 376 860 b 347 847 358 853 350 850 b 339 838 343 844 340 840 b 336 828 336 833 336 831 b 336 817 335 821 336 817 b 344 804 338 811 340 807 b 351 800 347 803 349 801 b 361 797 354 799 357 797 b 407 800 374 794 390 796 b 453 818 424 804 440 811 z "},"Ü":{"ha":639,"x_min":0,"x_max":0,"o":"m 615 788 b 519 749 579 782 547 769 b 472 656 490 728 475 692 b 457 182 457 515 451 350 b 350 -24 457 163 451 -17 b 339 431 253 -31 315 249 b 185 789 368 640 318 782 b 24 671 83 794 39 711 b 19 625 18 657 17 640 b 86 547 31 578 65 556 b 100 557 93 544 100 550 b 178 751 94 625 128 774 b 186 181 232 728 203 422 b 315 -79 168 -68 315 -79 b 464 36 403 -89 444 -21 b 469 -29 465 14 468 -7 b 554 -131 474 -76 503 -128 b 575 -107 565 -132 575 -121 b 631 767 561 210 585 531 b 615 788 633 779 625 789 z m 340 924 b 303 881 318 922 301 903 b 346 842 304 857 324 840 b 385 885 368 843 386 863 b 340 924 383 908 363 925 z m 467 917 b 429 872 444 915 428 896 b 472 835 431 850 450 833 b 511 878 494 836 513 856 b 467 917 510 900 490 918 z "},"Ý":{"ha":664,"x_min":0,"x_max":0,"o":"m 619 406 b 615 553 619 457 618 507 b 572 649 613 589 600 626 b 479 692 544 671 514 685 b 461 672 469 694 460 685 b 486 411 472 593 482 506 b 482 235 486 411 490 335 b 368 54 478 203 453 57 b 357 465 271 50 332 300 b 203 789 386 654 336 783 b 40 682 101 793 57 718 b 38 642 35 669 33 654 b 104 571 49 599 83 579 b 118 579 111 568 118 572 b 196 756 113 640 146 775 b 204 239 250 733 221 458 b 333 4 186 14 333 4 b 457 57 392 -1 431 24 b 350 -179 436 -33 404 -121 b 138 -244 350 -179 242 -293 b 96 -89 138 -244 63 -218 b 206 32 115 -14 179 21 b 208 47 213 35 214 43 b 107 60 176 76 131 67 b 82 42 97 56 89 50 b 33 -104 28 -22 33 -104 b 129 -278 33 -104 28 -233 b 422 -226 285 -349 422 -226 b 619 406 626 -43 619 406 z m 483 811 b 511 835 500 819 511 835 b 519 878 531 861 519 878 b 501 889 514 886 507 888 b 492 888 496 889 492 888 b 429 863 476 883 453 872 b 397 850 418 858 407 853 b 378 840 389 846 381 843 b 369 831 374 838 371 833 b 367 821 367 826 367 824 b 367 810 365 814 367 810 b 375 797 368 804 371 800 b 382 793 378 796 379 794 b 392 790 385 792 388 790 b 438 793 404 788 421 789 b 483 811 454 797 471 804 z "},"à":{"ha":467,"x_min":0,"x_max":0,"o":"m 492 224 b 490 224 492 224 490 224 b 481 219 486 225 482 222 b 389 72 471 197 431 114 b 400 435 374 76 394 374 b 389 446 400 440 396 446 b 264 386 317 444 278 404 b 136 439 242 413 200 446 b 4 274 136 439 32 425 b 151 1 -24 122 75 7 b 267 61 208 -3 247 26 b 297 10 274 36 283 17 b 501 203 353 -21 413 8 b 492 224 504 211 500 221 z m 196 42 b 140 76 174 32 150 53 b 114 213 129 104 117 142 b 218 382 111 335 178 401 b 253 307 257 361 253 307 l 253 307 b 257 113 250 253 250 175 b 196 42 256 101 244 61 z m 203 508 b 249 490 217 501 233 494 b 296 488 265 486 282 485 b 304 490 299 488 303 489 b 313 494 307 492 310 493 b 321 507 317 497 319 501 b 321 518 321 507 322 511 b 318 528 321 521 319 524 b 310 538 317 531 314 535 b 289 547 306 540 299 543 b 257 560 281 550 269 556 b 196 585 235 569 210 581 b 186 586 196 585 192 586 b 167 575 181 585 172 583 b 176 532 167 575 156 558 b 203 508 176 532 188 517 z "},"á":{"ha":467,"x_min":0,"x_max":0,"o":"m 492 224 b 490 224 492 224 490 224 b 481 219 486 225 482 222 b 389 72 471 197 431 114 b 400 435 374 76 394 374 b 389 446 400 440 396 446 b 264 386 317 444 278 404 b 136 439 242 413 200 446 b 4 274 136 439 32 425 b 151 1 -24 122 75 7 b 267 61 208 -3 247 26 b 297 10 274 36 283 17 b 501 203 353 -21 413 8 b 492 224 504 211 500 221 z m 196 42 b 140 76 174 32 150 53 b 114 213 129 104 117 142 b 218 382 111 335 178 401 b 253 307 257 361 253 307 l 253 307 b 257 113 250 253 250 175 b 196 42 256 101 244 61 z m 310 493 b 338 517 326 501 338 517 b 346 560 357 543 346 560 b 328 571 340 568 333 569 b 318 569 322 571 318 569 b 256 544 303 565 279 554 b 224 532 244 540 233 535 b 204 522 215 528 207 525 b 196 513 200 519 197 515 b 193 503 193 508 193 506 b 193 492 192 496 193 492 b 201 479 194 486 197 482 b 208 475 204 478 206 476 b 218 472 211 474 214 472 b 264 475 231 469 247 471 b 310 493 281 479 297 486 z "},"ã":{"ha":467,"x_min":0,"x_max":0,"o":"m 492 224 b 490 224 492 224 490 224 b 481 219 486 225 482 222 b 389 72 471 197 431 114 b 400 435 374 76 394 374 b 389 446 400 440 396 446 b 264 386 317 444 278 404 b 136 439 242 413 200 446 b 4 274 136 439 32 425 b 151 1 -24 122 75 7 b 267 61 208 -3 247 26 b 297 10 274 36 283 17 b 501 203 353 -21 413 8 b 492 224 504 211 500 221 z m 196 42 b 140 76 174 32 150 53 b 114 213 129 104 117 142 b 218 382 111 335 178 401 b 253 307 257 361 253 307 l 253 307 b 257 113 250 253 250 175 b 196 42 256 101 244 61 z m 332 499 b 217 533 319 560 250 546 b 140 561 185 521 168 568 b 136 517 113 554 136 517 b 281 489 174 439 264 488 b 321 469 304 490 304 468 b 332 499 336 472 332 499 z "},"ä":{"ha":467,"x_min":0,"x_max":0,"o":"m 492 224 b 490 224 492 224 490 224 b 481 219 486 225 482 222 b 389 72 471 197 431 114 b 400 435 374 76 394 374 b 389 446 400 440 396 446 b 264 386 317 444 278 404 b 136 439 242 413 200 446 b 4 274 136 439 32 425 b 151 1 -24 122 75 7 b 267 61 208 -3 247 26 b 297 10 274 36 283 17 b 501 203 353 -21 413 8 b 492 224 504 211 500 221 z m 196 42 b 140 76 174 32 150 53 b 114 213 129 104 117 142 b 218 382 111 335 178 401 b 253 307 257 361 253 307 l 253 307 b 257 113 250 253 250 175 b 196 42 256 101 244 61 z m 171 561 b 133 518 149 560 132 540 b 176 479 135 494 154 478 b 215 522 199 481 217 500 b 171 561 214 546 193 563 z m 297 554 b 260 510 275 553 258 533 b 303 472 261 488 281 471 b 342 515 325 474 343 493 b 297 554 340 538 321 556 z "},"å":{"ha":467,"x_min":0,"x_max":0,"o":"m 492 224 b 490 224 492 224 490 224 b 481 219 486 225 482 222 b 389 72 471 197 431 114 b 400 435 374 76 394 374 b 389 446 400 440 396 446 b 264 386 317 444 278 404 b 136 439 242 413 200 446 b 4 274 136 439 32 425 b 151 1 -24 122 75 7 b 267 61 208 -3 247 26 b 297 10 274 36 283 17 b 501 203 353 -21 413 8 b 492 224 504 211 500 221 z m 196 42 b 140 76 174 32 150 53 b 114 213 129 104 117 142 b 218 382 111 335 178 401 b 253 307 257 361 253 307 l 253 307 b 257 113 250 253 250 175 b 196 42 256 101 244 61 z m 249 557 b 200 508 222 557 200 535 b 249 458 200 481 222 458 b 299 508 276 458 299 481 b 249 557 299 535 276 557 z m 249 488 b 229 508 238 488 229 497 b 249 528 229 519 238 528 b 269 508 260 528 269 519 b 249 488 269 497 260 488 z "},"è":{"ha":347,"x_min":0,"x_max":0,"o":"m 374 224 b 371 224 372 224 372 224 b 361 219 367 225 363 222 b 303 113 354 203 331 154 b 182 39 303 113 244 32 b 110 214 94 49 110 214 b 111 231 110 219 111 225 b 269 299 238 211 269 299 b 251 401 296 360 251 401 b 154 435 232 422 200 439 b 11 286 154 435 53 432 b 122 1 -32 139 51 24 b 326 94 251 -39 326 94 b 382 203 343 122 363 158 b 374 224 386 211 382 221 z m 240 378 b 233 299 240 378 268 347 b 118 263 204 260 150 257 b 240 378 143 353 214 403 z m 149 483 b 194 465 163 476 179 469 b 242 463 211 461 228 460 b 250 465 244 463 249 464 b 258 469 253 467 256 468 b 267 482 263 472 265 476 b 267 493 267 482 268 486 b 264 503 267 496 265 499 b 256 513 263 506 260 510 b 235 522 251 515 244 518 b 203 535 226 525 215 531 b 142 560 181 544 156 556 b 132 561 142 560 138 561 b 113 550 126 560 118 558 b 122 507 113 550 101 533 b 149 483 122 507 133 492 z "},"é":{"ha":347,"x_min":0,"x_max":0,"o":"m 374 224 b 371 224 372 224 372 224 b 361 219 367 225 363 222 b 303 113 354 203 331 154 b 182 39 303 113 244 32 b 110 214 94 49 110 214 b 111 231 110 219 111 225 b 269 299 238 211 269 299 b 251 401 296 360 251 401 b 154 435 232 422 200 439 b 11 286 154 435 53 432 b 122 1 -32 139 51 24 b 326 94 251 -39 326 94 b 382 203 343 122 363 158 b 374 224 386 211 382 221 z m 240 378 b 233 299 240 378 268 347 b 118 263 204 260 150 257 b 240 378 143 353 214 403 z m 217 499 b 244 522 233 507 244 522 b 253 565 264 549 253 565 b 235 576 247 574 240 575 b 225 575 229 576 225 575 b 163 550 210 571 186 560 b 131 538 151 546 140 540 b 111 528 122 533 114 531 b 103 518 107 525 104 521 b 100 508 100 514 100 511 b 100 497 99 501 100 497 b 108 485 101 492 104 488 b 115 481 111 483 113 482 b 125 478 118 479 121 478 b 171 481 138 475 154 476 b 217 499 188 485 204 492 z "},"ë":{"ha":347,"x_min":0,"x_max":0,"o":"m 374 224 b 371 224 372 224 372 224 b 361 219 367 225 363 222 b 303 113 354 203 331 154 b 182 39 303 113 244 32 b 110 214 94 49 110 214 b 111 231 110 219 111 225 b 269 299 238 211 269 299 b 251 401 296 360 251 401 b 154 435 232 422 200 439 b 11 286 154 435 53 432 b 122 1 -32 139 51 24 b 326 94 251 -39 326 94 b 382 203 343 122 363 158 b 374 224 386 211 382 221 z m 240 378 b 233 299 240 378 268 347 b 118 263 204 260 150 257 b 240 378 143 353 214 403 z m 110 557 b 72 514 88 556 71 536 b 115 475 74 490 93 474 b 154 518 138 476 156 496 b 110 557 153 542 132 558 z m 236 550 b 199 506 214 549 197 529 b 242 468 200 483 219 467 b 281 511 264 469 282 489 b 236 550 279 533 260 551 z "},"ì":{"ha":217,"x_min":0,"x_max":0,"o":"m 243 224 b 240 224 242 224 242 224 b 231 219 236 225 232 222 b 140 72 221 197 182 114 b 153 414 124 76 147 354 b 142 425 153 419 147 425 b 40 390 94 424 61 407 b 7 329 21 375 10 353 b 47 10 0 254 -14 46 b 251 203 101 -24 163 8 b 243 224 256 211 251 221 z m 61 476 b 107 458 75 469 92 463 b 154 456 124 454 140 453 b 163 458 157 456 161 457 b 171 463 165 460 168 461 b 179 475 175 465 178 469 b 179 486 179 475 181 479 b 176 496 179 489 178 492 b 168 506 175 499 172 503 b 147 515 164 508 157 511 b 115 528 139 518 128 524 b 54 553 93 538 68 549 b 44 554 54 553 50 554 b 25 543 39 553 31 551 b 35 500 25 543 14 526 b 61 476 35 500 46 485 z "},"í":{"ha":217,"x_min":0,"x_max":0,"o":"m 243 224 b 240 224 242 224 242 224 b 231 219 236 225 232 222 b 140 72 221 197 182 114 b 153 414 124 76 147 354 b 142 425 153 419 147 425 b 40 390 94 424 61 407 b 7 329 21 375 10 353 b 47 10 0 254 -14 46 b 251 203 101 -24 163 8 b 243 224 256 211 251 221 z m 142 481 b 169 504 158 489 169 504 b 178 547 189 531 178 547 b 160 558 172 556 165 557 b 150 557 154 558 150 557 b 88 532 135 553 111 542 b 56 519 76 528 65 522 b 36 510 47 515 39 513 b 28 500 32 507 29 503 b 25 490 25 496 25 493 b 25 479 24 483 25 479 b 33 467 26 474 29 469 b 40 463 36 465 38 464 b 50 460 43 461 46 460 b 96 463 63 457 79 458 b 142 481 113 467 129 474 z "},"ï":{"ha":217,"x_min":0,"x_max":0,"o":"m 243 224 b 240 224 242 224 242 224 b 231 219 236 225 232 222 b 140 72 221 197 182 114 b 153 414 124 76 147 354 b 142 425 153 419 147 425 b 40 390 94 424 61 407 b 7 329 21 375 10 353 b 47 10 0 254 -14 46 b 251 203 101 -24 163 8 b 243 224 256 211 251 221 z m 32 543 b -6 500 10 542 -7 522 b 38 461 -4 476 15 460 b 76 504 60 463 78 482 b 32 543 75 528 54 544 z m 158 536 b 121 492 136 535 119 515 b 164 454 122 469 142 453 b 203 497 186 456 204 475 b 158 536 201 519 182 538 z "},"ñ":{"ha":414,"x_min":0,"x_max":0,"o":"m 440 224 b 438 224 439 224 439 224 b 429 219 435 225 431 222 b 338 72 418 197 379 114 b 340 296 326 75 333 193 b 250 436 340 296 361 436 b 131 340 193 436 156 392 b 136 428 133 383 135 415 b 125 439 136 435 131 439 b 35 401 79 438 56 418 b 4 342 17 386 6 365 b 1 176 1 306 -1 239 b 100 -14 4 67 26 -8 b 118 4 110 -14 118 -7 b 122 167 118 44 119 106 b 194 356 128 236 154 358 b 203 300 204 354 208 340 b 246 10 196 224 183 46 b 449 203 300 -24 360 8 b 440 224 453 211 449 221 z m 303 511 b 188 546 290 572 221 558 b 111 574 156 533 139 581 b 107 529 83 567 107 529 b 251 501 144 451 235 500 b 292 482 275 503 275 481 b 303 511 307 485 303 511 z "},"ò":{"ha":342,"x_min":0,"x_max":0,"o":"m 322 343 b 315 342 319 346 315 344 b 296 303 311 333 306 319 b 149 436 275 392 217 442 b 32 296 83 432 29 363 b 6 232 11 265 6 232 b 178 4 -17 111 42 -26 b 300 188 178 4 282 28 b 301 261 303 214 303 239 b 326 314 311 276 319 294 b 322 343 329 324 328 335 z m 163 388 b 246 249 201 390 244 347 b 169 229 225 233 200 225 b 121 256 169 229 139 232 b 151 329 131 289 143 315 b 146 344 156 336 151 343 b 117 346 135 346 125 346 b 163 388 126 371 144 386 z m 236 151 b 171 49 218 56 181 51 b 113 196 103 33 108 151 b 244 208 153 182 203 185 b 236 151 244 208 242 174 z m 132 492 b 178 474 146 485 163 478 b 225 471 194 469 211 468 b 233 474 228 471 232 472 b 242 478 236 475 239 476 b 250 490 246 481 249 485 b 250 501 250 490 251 494 b 247 511 250 504 249 507 b 239 521 246 514 243 518 b 218 531 235 524 228 526 b 186 543 210 533 199 539 b 125 568 164 553 139 564 b 115 569 125 568 121 569 b 96 558 110 568 101 567 b 106 515 96 558 85 542 b 132 492 106 515 117 500 z "},"ó":{"ha":342,"x_min":0,"x_max":0,"o":"m 322 343 b 315 342 319 346 315 344 b 296 303 311 333 306 319 b 149 436 275 392 217 442 b 32 296 83 432 29 363 b 6 232 11 265 6 232 b 178 4 -17 111 42 -26 b 300 188 178 4 282 28 b 301 261 303 214 303 239 b 326 314 311 276 319 294 b 322 343 329 324 328 335 z m 163 388 b 246 249 201 390 244 347 b 169 229 225 233 200 225 b 121 256 169 229 139 232 b 151 329 131 289 143 315 b 146 344 156 336 151 343 b 117 346 135 346 125 346 b 163 388 126 371 144 386 z m 236 151 b 171 49 218 56 181 51 b 113 196 103 33 108 151 b 244 208 153 182 203 185 b 236 151 244 208 242 174 z m 203 493 b 231 517 219 501 231 517 b 239 560 250 543 239 560 b 221 571 233 568 226 569 b 211 569 215 571 211 569 b 149 544 196 565 172 554 b 117 532 138 540 126 535 b 97 522 108 528 100 525 b 89 513 93 519 90 515 b 86 503 86 508 86 506 b 86 492 85 496 86 492 b 94 479 88 486 90 482 b 101 475 97 478 99 476 b 111 472 104 474 107 472 b 157 475 124 469 140 471 b 203 493 174 479 190 486 z "},"õ":{"ha":342,"x_min":0,"x_max":0,"o":"m 322 343 b 315 342 319 346 315 344 b 296 303 311 333 306 319 b 149 436 275 392 217 442 b 32 296 83 432 29 363 b 6 232 11 265 6 232 b 178 4 -17 111 42 -26 b 300 188 178 4 282 28 b 301 261 303 214 303 239 b 326 314 311 276 319 294 b 322 343 329 324 328 335 z m 163 388 b 246 249 201 390 244 347 b 169 229 225 233 200 225 b 121 256 169 229 139 232 b 151 329 131 289 143 315 b 146 344 156 336 151 343 b 117 346 135 346 125 346 b 163 388 126 371 144 386 z m 236 151 b 171 49 218 56 181 51 b 113 196 103 33 108 151 b 244 208 153 182 203 185 b 236 151 244 208 242 174 z m 275 500 b 160 535 263 561 193 547 b 83 563 128 522 111 569 b 79 518 56 556 79 518 b 224 490 117 440 207 489 b 264 471 247 492 247 469 b 275 500 279 474 275 500 z "},"ö":{"ha":342,"x_min":0,"x_max":0,"o":"m 322 343 b 315 342 319 346 315 344 b 296 303 311 333 306 319 b 149 436 275 392 217 442 b 32 296 83 432 29 363 b 6 232 11 265 6 232 b 178 4 -17 111 42 -26 b 300 188 178 4 282 28 b 301 261 303 214 303 239 b 326 314 311 276 319 294 b 322 343 329 324 328 335 z m 163 388 b 246 249 201 390 244 347 b 169 229 225 233 200 225 b 121 256 169 229 139 232 b 151 329 131 289 143 315 b 146 344 156 336 151 343 b 117 346 135 346 125 346 b 163 388 126 371 144 386 z m 236 151 b 171 49 218 56 181 51 b 113 196 103 33 108 151 b 244 208 153 182 203 185 b 236 151 244 208 242 174 z m 94 553 b 57 510 72 551 56 532 b 100 471 58 486 78 469 b 139 514 122 472 140 492 b 94 553 138 538 117 554 z m 221 546 b 183 501 199 544 182 525 b 226 464 185 479 204 463 b 265 507 249 465 267 485 b 221 546 264 529 244 547 z "},"ù":{"ha":425,"x_min":0,"x_max":0,"o":"m 449 224 b 447 224 449 224 447 224 b 438 219 443 225 439 222 b 346 72 428 197 389 114 b 358 414 331 76 354 354 b 349 425 360 419 354 425 b 247 390 300 424 268 407 b 214 329 228 375 217 353 b 207 226 211 306 208 268 b 200 178 207 219 204 193 b 144 53 189 129 167 63 b 125 86 133 49 128 65 b 146 426 117 201 125 314 b 136 439 147 432 142 438 b 43 410 101 440 72 431 b 8 351 24 397 11 374 b 1 182 0 296 -3 239 b 68 13 1 182 4 50 b 117 0 81 4 97 -1 b 215 93 163 4 194 44 b 254 10 221 54 233 22 b 458 203 308 -24 369 8 b 449 224 463 211 458 221 z m 171 499 b 217 481 185 492 201 485 b 264 478 233 476 250 475 b 272 481 267 478 271 479 b 281 485 275 482 278 483 b 289 497 285 488 288 492 b 289 508 289 497 290 501 b 286 518 289 511 288 514 b 278 528 285 521 282 525 b 257 538 274 531 267 533 b 225 550 249 540 238 546 b 164 575 203 560 178 571 b 154 576 164 575 160 576 b 135 565 149 575 140 574 b 144 522 135 565 124 549 b 171 499 144 522 156 507 z "},"ú":{"ha":425,"x_min":0,"x_max":0,"o":"m 449 224 b 447 224 449 224 447 224 b 438 219 443 225 439 222 b 346 72 428 197 389 114 b 358 414 331 76 354 354 b 349 425 360 419 354 425 b 247 390 300 424 268 407 b 214 329 228 375 217 353 b 207 226 211 306 208 268 b 200 178 207 219 204 193 b 144 53 189 129 167 63 b 125 86 133 49 128 65 b 146 426 117 201 125 314 b 136 439 147 432 142 438 b 43 410 101 440 72 431 b 8 351 24 397 11 374 b 1 182 0 296 -3 239 b 68 13 1 182 4 50 b 117 0 81 4 97 -1 b 215 93 163 4 194 44 b 254 10 221 54 233 22 b 458 203 308 -24 369 8 b 449 224 463 211 458 221 z m 258 499 b 286 522 275 507 286 522 b 294 565 306 549 294 565 b 276 576 289 574 282 575 b 267 575 271 576 267 575 b 204 550 251 571 228 560 b 172 538 193 546 182 540 b 153 528 164 533 156 531 b 144 518 149 525 146 521 b 142 508 142 514 142 511 b 142 497 140 501 142 497 b 150 485 143 492 146 488 b 157 481 153 483 154 482 b 167 478 160 479 163 478 b 213 481 179 475 196 476 b 258 499 229 485 246 492 z "},"ü":{"ha":425,"x_min":0,"x_max":0,"o":"m 449 224 b 447 224 449 224 447 224 b 438 219 443 225 439 222 b 346 72 428 197 389 114 b 358 414 331 76 354 354 b 349 425 360 419 354 425 b 247 390 300 424 268 407 b 214 329 228 375 217 353 b 207 226 211 306 208 268 b 200 178 207 219 204 193 b 144 53 189 129 167 63 b 125 86 133 49 128 65 b 146 426 117 201 125 314 b 136 439 147 432 142 438 b 43 410 101 440 72 431 b 8 351 24 397 11 374 b 1 182 0 296 -3 239 b 68 13 1 182 4 50 b 117 0 81 4 97 -1 b 215 93 163 4 194 44 b 254 10 221 54 233 22 b 458 203 308 -24 369 8 b 449 224 463 211 458 221 z m 132 563 b 94 519 110 561 93 542 b 138 481 96 496 115 479 b 176 524 160 482 178 501 b 132 563 175 547 154 564 z m 258 556 b 221 511 236 554 219 535 b 264 474 222 489 242 472 b 303 517 286 475 304 494 b 258 556 301 539 282 557 z "},"ý":{"ha":424,"x_min":0,"x_max":0,"o":"m 411 -58 b 332 -49 382 -53 357 -50 b 338 17 335 -26 336 -4 b 458 203 372 43 411 100 b 449 224 461 211 457 221 b 446 224 449 224 447 224 b 438 219 443 225 439 222 b 346 72 426 197 388 114 b 358 414 329 76 353 354 b 347 425 358 419 354 425 b 246 390 300 424 267 407 b 214 329 228 375 215 353 b 207 225 211 306 208 267 b 200 178 207 217 204 193 b 143 53 189 129 167 63 b 125 86 133 49 128 65 b 146 426 117 201 125 314 b 136 439 146 432 142 438 b 43 410 101 440 72 431 b 7 351 24 397 11 374 b 1 182 -1 296 -3 239 b 67 13 1 182 4 50 b 117 0 81 4 97 -1 b 213 89 161 4 192 43 b 215 -58 215 50 217 -6 b 164 -297 42 -106 25 -281 b 321 -122 254 -310 299 -222 b 383 -160 347 -135 369 -149 b 454 -174 401 -172 431 -183 b 486 -131 485 -161 486 -131 b 411 -58 494 -74 411 -58 z m 213 -107 b 190 -212 208 -147 201 -185 b 132 -251 181 -239 157 -258 b 110 -190 96 -240 110 -190 b 163 -124 119 -156 142 -136 b 213 -107 163 -124 189 -107 z m 267 507 b 294 531 283 515 294 531 b 303 574 314 557 303 574 b 285 585 297 582 290 583 b 275 583 279 585 275 583 b 213 558 260 579 236 568 b 181 546 201 554 190 549 b 161 536 172 542 164 539 b 153 526 157 533 154 529 b 150 517 150 522 150 519 b 150 506 149 510 150 506 b 158 493 151 500 154 496 b 165 489 161 492 163 490 b 175 486 168 488 171 486 b 221 489 188 483 204 485 b 267 507 238 493 254 500 z "},"ÿ":{"ha":424,"x_min":0,"x_max":0,"o":"m 411 -58 b 332 -49 382 -53 357 -50 b 338 17 335 -26 336 -4 b 458 203 372 43 411 100 b 449 224 461 211 457 221 b 446 224 449 224 447 224 b 438 219 443 225 439 222 b 346 72 426 197 388 114 b 358 414 329 76 353 354 b 347 425 358 419 354 425 b 246 390 300 424 267 407 b 214 329 228 375 215 353 b 207 225 211 306 208 267 b 200 178 207 217 204 193 b 143 53 189 129 167 63 b 125 86 133 49 128 65 b 146 426 117 201 125 314 b 136 439 146 432 142 438 b 43 410 101 440 72 431 b 7 351 24 397 11 374 b 1 182 -1 296 -3 239 b 67 13 1 182 4 50 b 117 0 81 4 97 -1 b 213 89 161 4 192 43 b 215 -58 215 50 217 -6 b 164 -297 42 -106 25 -281 b 321 -122 254 -310 299 -222 b 383 -160 347 -135 369 -149 b 454 -174 401 -172 431 -183 b 486 -131 485 -161 486 -131 b 411 -58 494 -74 411 -58 z m 213 -107 b 190 -212 208 -147 201 -185 b 132 -251 181 -239 157 -258 b 110 -190 96 -240 110 -190 b 163 -124 119 -156 142 -136 b 213 -107 163 -124 189 -107 z m 135 567 b 97 524 113 565 96 546 b 140 485 99 500 118 483 b 179 528 163 486 181 506 b 135 567 178 551 157 568 z m 261 560 b 224 515 239 558 222 539 b 267 478 225 493 244 476 b 306 521 289 479 307 499 b 261 560 304 543 285 561 z "},"ˆ":{"ha":250,"x_min":0,"x_max":0,"o":"m 228 782 b 224 792 228 785 226 788 b 210 803 222 794 217 799 b 186 819 203 808 194 814 b 140 851 169 832 151 846 b 138 853 140 851 139 853 b 126 856 133 854 131 856 b 117 854 124 856 119 856 b 114 853 114 853 114 853 b 65 824 101 847 83 835 b 40 808 56 818 47 813 b 25 799 33 804 28 801 b 19 790 22 796 21 793 b 19 782 19 788 19 785 b 24 775 21 778 24 775 b 33 767 25 771 29 768 b 40 765 35 767 38 765 b 49 765 43 765 46 765 b 89 776 61 765 75 769 b 125 797 103 782 115 790 b 125 797 125 797 125 797 b 125 797 125 797 125 797 b 158 774 133 789 146 781 b 197 760 172 767 186 761 b 207 760 201 760 204 760 b 214 761 208 760 211 760 b 224 767 218 763 222 764 b 228 775 224 767 226 771 b 228 782 229 776 229 779 z "},"Â":{"ha":596,"x_min":0,"x_max":0,"o":"m 544 789 b 544 789 544 789 544 789 l 544 789 b 544 789 544 789 544 789 b 513 782 533 789 522 788 b 233 483 444 763 294 697 b 185 214 208 394 193 300 b 76 206 132 213 96 208 b 46 192 65 203 54 199 b 14 115 21 172 8 144 b 35 104 15 106 26 100 b 178 139 82 119 131 131 b 175 -85 172 39 174 -44 b 208 -126 176 -104 189 -121 b 228 -129 214 -128 221 -129 b 242 -117 236 -131 242 -124 b 244 146 240 -81 236 22 b 407 149 307 151 364 150 b 408 11 407 100 407 54 b 450 -86 410 -25 422 -62 b 543 -131 476 -107 508 -124 b 560 -111 553 -133 561 -124 b 563 765 531 128 529 450 b 544 789 565 778 556 790 z m 429 515 b 408 200 419 408 411 301 b 250 214 347 208 296 213 b 456 707 269 410 322 631 b 429 515 456 707 443 651 z m 594 843 b 590 853 594 846 593 849 b 576 864 589 856 583 860 b 553 881 569 869 561 875 b 507 913 536 893 518 907 b 504 914 507 913 506 914 b 493 917 500 915 497 917 b 483 915 490 917 486 917 b 481 914 481 914 481 914 b 432 885 468 908 450 896 b 407 869 422 879 414 874 b 392 860 400 865 394 863 b 386 851 389 857 388 854 b 386 843 386 849 386 846 b 390 836 388 839 390 836 b 400 828 392 832 396 829 b 407 826 401 828 404 826 b 415 826 410 826 413 826 b 456 838 428 826 442 831 b 492 858 469 843 482 851 b 492 858 492 858 492 858 b 492 858 492 858 492 858 b 525 835 500 850 513 842 b 564 821 539 828 553 822 b 574 821 568 821 571 821 b 581 822 575 821 578 821 b 590 828 585 824 589 825 b 594 836 590 828 593 832 b 594 843 596 838 596 840 z "},"Ô":{"ha":588,"x_min":0,"x_max":0,"o":"m 529 640 b 514 635 524 646 515 642 b 500 521 513 611 508 567 b 411 622 481 571 453 610 b 435 656 422 635 431 649 b 438 667 438 658 438 663 b 306 786 435 810 306 786 b 54 265 306 786 83 772 b 301 -132 31 -142 301 -132 b 532 199 301 -132 506 -144 b 525 411 532 199 540 304 b 568 513 544 440 560 475 b 568 519 568 515 568 518 b 529 640 569 536 568 603 z m 378 572 b 449 399 426 568 443 485 b 422 386 440 392 432 388 b 340 489 394 383 349 389 b 378 572 333 575 378 572 z m 450 351 b 444 207 450 274 444 207 b 299 -82 431 6 358 -89 b 196 294 239 -74 174 21 b 321 733 196 294 219 738 b 378 628 375 731 379 668 b 314 604 338 631 314 604 b 271 499 294 588 275 556 b 374 349 264 414 314 364 b 450 351 419 338 450 351 z m 438 838 b 433 847 438 840 436 843 b 419 858 432 850 426 854 b 396 875 413 864 404 869 b 350 907 379 888 361 901 b 347 908 350 907 349 908 b 336 911 343 910 340 911 b 326 910 333 911 329 911 b 324 908 324 908 324 908 b 275 879 311 903 293 890 b 250 864 265 874 257 868 b 235 854 243 860 238 857 b 229 846 232 851 231 849 b 229 838 229 843 229 840 b 233 831 231 833 233 831 b 243 822 235 826 239 824 b 250 821 244 822 247 821 b 258 821 253 821 256 821 b 299 832 271 821 285 825 b 335 853 313 838 325 846 b 335 853 335 853 335 853 b 335 853 335 853 335 853 b 368 829 343 844 356 836 b 407 815 382 822 396 817 b 417 815 411 815 414 815 b 424 817 418 815 421 815 b 433 822 428 818 432 819 b 438 831 433 822 436 826 b 438 838 439 832 439 835 z "},"â":{"ha":467,"x_min":0,"x_max":0,"o":"m 492 224 b 490 224 492 224 490 224 b 481 219 486 225 482 222 b 389 72 471 197 431 114 b 400 435 374 76 394 374 b 389 446 400 440 396 446 b 264 386 317 444 278 404 b 136 439 242 413 200 446 b 4 274 136 439 32 425 b 151 1 -24 122 75 7 b 267 61 208 -3 247 26 b 297 10 274 36 283 17 b 501 203 353 -21 413 8 b 492 224 504 211 500 221 z m 196 42 b 140 76 174 32 150 53 b 114 213 129 104 117 142 b 218 382 111 335 178 401 b 253 307 257 361 253 307 l 253 307 b 257 113 250 253 250 175 b 196 42 256 101 244 61 z m 340 497 b 336 507 340 500 339 503 b 322 518 335 510 329 514 b 299 535 315 524 307 529 b 253 567 282 547 264 561 b 250 568 253 567 251 568 b 239 571 246 569 243 571 b 229 569 236 571 232 571 b 226 568 226 568 226 568 b 178 539 214 563 196 550 b 153 524 168 533 160 528 b 138 514 146 519 140 517 b 132 506 135 511 133 508 b 132 497 132 503 132 500 b 136 490 133 493 136 490 b 146 482 138 486 142 483 b 153 481 147 482 150 481 b 161 481 156 481 158 481 b 201 492 174 481 188 485 b 238 513 215 497 228 506 b 238 513 238 513 238 513 b 238 513 238 513 238 513 b 271 489 246 504 258 496 b 310 475 285 482 299 476 b 319 475 314 475 317 475 b 326 476 321 475 324 475 b 336 482 331 478 335 479 b 340 490 336 482 339 486 b 340 497 342 492 342 494 z "},"ê":{"ha":347,"x_min":0,"x_max":0,"o":"m 374 224 b 371 224 372 224 372 224 b 361 219 367 225 363 222 b 303 113 354 203 331 154 b 182 39 303 113 244 32 b 110 214 94 49 110 214 b 111 231 110 219 111 225 b 269 299 238 211 269 299 b 251 401 296 360 251 401 b 154 435 232 422 200 439 b 11 286 154 435 53 432 b 122 1 -32 139 51 24 b 326 94 251 -39 326 94 b 382 203 343 122 363 158 b 374 224 386 211 382 221 z m 240 378 b 233 299 240 378 268 347 b 118 263 204 260 150 257 b 240 378 143 353 214 403 z m 286 490 b 282 500 286 493 285 496 b 268 511 281 503 275 507 b 244 528 261 517 253 522 b 199 560 228 540 210 554 b 196 561 199 560 197 561 b 185 564 192 563 189 564 b 175 563 182 564 178 564 b 172 561 172 561 172 561 b 124 532 160 556 142 543 b 99 517 114 526 106 521 b 83 507 92 513 86 510 b 78 499 81 504 79 501 b 78 490 78 496 78 493 b 82 483 79 486 82 483 b 92 475 83 479 88 476 b 99 474 93 475 96 474 b 107 474 101 474 104 474 b 147 485 119 474 133 478 b 183 506 161 490 174 499 b 183 506 183 506 183 506 b 183 506 183 506 183 506 b 217 482 192 497 204 489 b 256 468 231 475 244 469 b 265 468 260 468 263 468 b 272 469 267 468 269 468 b 282 475 276 471 281 472 b 286 483 282 475 285 479 b 286 490 288 485 288 488 z "},"î":{"ha":217,"x_min":0,"x_max":0,"o":"m 243 224 b 240 224 242 224 242 224 b 231 219 236 225 232 222 b 140 72 221 197 182 114 b 153 414 124 76 147 354 b 142 425 153 419 147 425 b 40 390 94 424 61 407 b 7 329 21 375 10 353 b 47 10 0 254 -14 46 b 251 203 101 -24 163 8 b 243 224 256 211 251 221 z m 201 481 b 197 490 201 483 200 486 b 183 501 196 493 190 497 b 160 518 176 507 168 513 b 114 550 143 531 125 544 b 111 551 114 550 113 551 b 100 554 107 553 104 554 b 90 553 97 554 93 554 b 88 551 88 551 88 551 b 39 522 75 546 57 533 b 14 507 29 517 21 511 b -1 497 7 503 1 500 b -7 489 -4 494 -6 492 b -7 481 -7 486 -7 483 b -3 474 -6 476 -3 474 b 7 465 -1 469 3 467 b 14 464 8 465 11 464 b 22 464 17 464 19 464 b 63 475 35 464 49 468 b 99 496 76 481 89 489 b 99 496 99 496 99 496 b 99 496 99 496 99 496 b 132 472 107 488 119 479 b 171 458 146 465 160 460 b 181 458 175 458 178 458 b 188 460 182 458 185 458 b 197 465 192 461 196 463 b 201 474 197 465 200 469 b 201 481 203 475 203 478 z "},"Ê":{"ha":543,"x_min":0,"x_max":0,"o":"m 301 -79 b 429 89 363 -76 417 -17 b 390 269 438 171 406 242 b 397 281 388 275 392 281 b 503 75 433 276 524 250 b 304 -129 479 -137 304 -129 b 47 149 304 -129 25 -172 b 272 429 63 365 272 429 b 160 601 272 429 144 432 b 308 785 174 775 308 785 b 440 667 308 785 438 808 b 438 654 440 663 440 658 b 389 600 431 643 411 614 b 378 606 383 596 378 600 b 324 732 383 640 389 729 b 256 604 324 732 267 729 b 339 450 247 493 308 454 b 346 440 343 449 346 444 l 344 419 b 322 381 344 403 336 389 b 190 149 282 358 201 296 b 301 -79 175 -50 267 -81 z m 438 846 b 433 856 438 849 436 851 b 419 867 432 858 426 863 b 396 883 413 872 404 878 b 350 915 379 896 361 910 b 347 917 350 915 349 917 b 336 919 343 918 340 919 b 326 918 333 919 329 919 b 324 917 324 917 324 917 b 275 888 311 911 293 899 b 250 872 265 882 257 876 b 235 863 243 868 238 865 b 229 854 232 860 231 857 b 229 846 229 851 229 849 b 233 839 231 842 233 839 b 243 831 235 835 239 832 b 250 829 244 831 247 829 b 258 829 253 829 256 829 b 299 840 271 829 285 833 b 335 861 313 846 325 854 b 335 861 335 861 335 861 b 335 861 335 861 335 861 b 368 838 343 853 356 844 b 407 824 382 831 396 825 b 417 824 411 824 414 824 b 424 825 418 824 421 824 b 433 831 428 826 432 828 b 438 839 433 831 436 835 b 438 846 439 840 439 843 z "},"û":{"ha":425,"x_min":0,"x_max":0,"o":"m 449 224 b 447 224 449 224 447 224 b 438 219 443 225 439 222 b 346 72 428 197 389 114 b 358 414 331 76 354 354 b 349 425 360 419 354 425 b 247 390 300 424 268 407 b 214 329 228 375 217 353 b 207 226 211 306 208 268 b 200 178 207 219 204 193 b 144 53 189 129 167 63 b 125 86 133 49 128 65 b 146 426 117 201 125 314 b 136 439 147 432 142 438 b 43 410 101 440 72 431 b 8 351 24 397 11 374 b 1 182 0 296 -3 239 b 68 13 1 182 4 50 b 117 0 81 4 97 -1 b 215 93 163 4 194 44 b 254 10 221 54 233 22 b 458 203 308 -24 369 8 b 449 224 463 211 458 221 z m 306 504 b 301 514 306 507 304 510 b 288 525 300 517 294 521 b 264 542 281 531 272 536 b 218 574 247 554 229 568 b 215 575 218 574 217 575 b 204 578 211 576 208 578 b 194 576 201 578 197 578 b 192 575 192 575 192 575 b 143 546 179 569 161 557 b 118 531 133 540 125 535 b 103 521 111 526 106 524 b 97 513 100 518 99 515 b 97 504 97 510 97 507 b 101 497 99 500 101 497 b 111 489 103 493 107 490 b 118 488 113 489 115 488 b 126 488 121 488 124 488 b 167 499 139 488 153 492 b 203 519 181 504 193 513 b 203 519 203 519 203 519 b 203 519 203 519 203 519 b 236 496 211 511 224 503 b 275 482 250 489 264 483 b 285 482 279 482 282 482 b 292 483 286 482 289 482 b 301 489 296 485 300 486 b 306 497 301 489 304 493 b 306 504 307 499 307 501 z "},"Î":{"ha":290,"x_min":0,"x_max":0,"o":"m 310 775 b 281 788 301 783 292 788 b 61 751 246 790 179 796 b 38 725 51 747 42 736 l 31 699 b 33 694 29 697 31 694 b 138 713 50 700 86 710 b 133 692 136 706 135 699 b 86 29 96 454 79 228 b 126 -68 88 -7 100 -46 b 138 -76 131 -71 135 -74 b 57 -78 107 -79 79 -79 b 51 -85 53 -78 51 -81 b 103 -125 57 -108 75 -121 b 254 -126 182 -135 228 -131 b 282 -114 264 -124 274 -121 b 308 -58 300 -100 310 -81 b 288 -44 307 -49 297 -42 b 233 -60 268 -51 250 -56 b 238 708 210 160 210 428 b 321 692 264 706 290 700 b 340 711 331 689 339 699 b 310 775 340 738 328 760 z m 304 846 b 300 856 304 849 303 851 b 286 867 299 858 293 863 b 263 883 279 872 271 878 b 217 915 246 896 228 910 b 214 917 217 915 215 917 b 203 919 210 918 207 919 b 193 918 200 919 196 919 b 190 917 190 917 190 917 b 142 888 178 911 160 899 b 117 872 132 882 124 876 b 101 863 110 868 104 865 b 96 854 99 860 97 857 b 96 846 96 851 96 849 b 100 839 97 842 100 839 b 110 831 101 835 106 832 b 117 829 111 831 114 829 b 125 829 119 829 122 829 b 165 840 138 829 151 833 b 201 861 179 846 192 854 b 201 861 201 861 201 861 b 201 861 201 861 201 861 b 235 838 210 853 222 844 b 274 824 249 831 263 825 b 283 824 278 824 281 824 b 290 825 285 824 288 824 b 300 831 294 826 299 828 b 304 839 300 831 303 835 b 304 846 306 840 306 843 z "},"Û":{"ha":639,"x_min":0,"x_max":0,"o":"m 615 788 b 519 749 579 782 547 769 b 472 656 490 728 475 692 b 457 182 457 515 451 350 b 350 -24 457 163 451 -17 b 339 431 253 -31 315 249 b 185 789 368 640 318 782 b 24 671 83 794 39 711 b 19 625 18 657 17 640 b 86 547 31 578 65 556 b 100 557 93 544 100 550 b 178 751 94 625 128 774 b 186 181 232 728 203 422 b 315 -79 168 -68 315 -79 b 464 36 403 -89 444 -21 b 469 -29 465 14 468 -7 b 554 -131 474 -76 503 -128 b 575 -107 565 -132 575 -121 b 631 767 561 210 585 531 b 615 788 633 779 625 789 z m 494 854 b 490 864 494 857 493 860 b 476 875 489 867 483 871 b 453 892 469 881 461 886 b 407 924 436 904 418 918 b 404 925 407 924 406 925 b 393 928 400 926 397 928 b 383 926 390 928 386 928 b 381 925 381 925 381 925 b 332 896 368 919 350 907 b 307 881 322 890 314 885 b 292 871 300 876 294 874 b 286 863 289 868 288 865 b 286 854 286 860 286 857 b 290 847 288 850 290 847 b 300 839 292 843 296 840 b 307 838 301 839 304 838 b 315 838 310 838 313 838 b 356 849 328 838 342 842 b 392 869 369 854 382 863 b 392 869 392 869 392 869 b 392 869 392 869 392 869 b 425 846 400 861 413 853 b 464 832 439 839 453 833 b 474 832 468 832 471 832 b 481 833 475 832 478 832 b 490 839 485 835 489 836 b 494 847 490 839 493 843 b 494 854 496 849 496 851 z "},"ô":{"ha":342,"x_min":0,"x_max":0,"o":"m 322 343 b 315 342 319 346 315 344 b 296 303 311 333 306 319 b 149 436 275 392 217 442 b 32 296 83 432 29 363 b 6 232 11 265 6 232 b 178 4 -17 111 42 -26 b 300 188 178 4 282 28 b 301 261 303 214 303 239 b 326 314 311 276 319 294 b 322 343 329 324 328 335 z m 163 388 b 246 249 201 390 244 347 b 169 229 225 233 200 225 b 121 256 169 229 139 232 b 151 329 131 289 143 315 b 146 344 156 336 151 343 b 117 346 135 346 125 346 b 163 388 126 371 144 386 z m 236 151 b 171 49 218 56 181 51 b 113 196 103 33 108 151 b 244 208 153 182 203 185 b 236 151 244 208 242 174 z m 275 485 b 271 494 275 488 274 490 b 257 506 269 497 264 501 b 233 522 250 511 242 517 b 188 554 217 535 199 549 b 185 556 188 554 186 556 b 174 558 181 557 178 558 b 164 557 171 558 167 558 b 161 556 161 556 161 556 b 113 526 149 550 131 538 b 88 511 103 521 94 515 b 72 501 81 507 75 504 b 67 493 69 499 68 496 b 67 485 67 490 67 488 b 71 478 68 481 71 478 b 81 469 72 474 76 471 b 88 468 82 469 85 468 b 96 468 90 468 93 468 b 136 479 108 468 122 472 b 172 500 150 485 163 493 b 172 500 172 500 172 500 b 172 500 172 500 172 500 b 206 476 181 492 193 483 b 244 463 219 469 233 464 b 254 463 249 463 251 463 b 261 464 256 463 258 463 b 271 469 265 465 269 467 b 275 478 271 469 274 474 b 275 485 276 479 276 482 z "},"A":{"ha":596,"x_min":0,"x_max":0,"o":"m 544 789 b 544 789 544 789 544 789 l 544 789 b 544 789 544 789 544 789 b 513 782 533 789 522 788 b 233 483 444 763 294 697 b 185 214 208 394 193 300 b 76 206 132 213 96 208 b 46 192 65 203 54 199 b 14 115 21 172 8 144 b 35 104 15 106 26 100 b 178 139 82 119 131 131 b 175 -85 172 39 174 -44 b 208 -126 176 -104 189 -121 b 228 -129 214 -128 221 -129 b 242 -117 236 -131 242 -124 b 244 146 240 -81 236 22 b 407 149 307 151 364 150 b 408 11 407 100 407 54 b 450 -86 410 -25 422 -62 b 543 -131 476 -107 508 -124 b 560 -111 553 -133 561 -124 b 563 765 531 128 529 450 b 544 789 565 778 556 790 z m 429 515 b 408 200 419 408 411 301 b 250 214 347 208 296 213 b 456 707 269 410 322 631 b 429 515 456 707 443 651 z "},"B":{"ha":624,"x_min":0,"x_max":0,"o":"m 621 490 b 381 788 631 642 578 778 b 43 415 161 797 28 607 b 57 385 44 404 49 393 b 135 344 72 371 101 349 b 158 365 147 343 158 353 b 371 732 154 446 154 729 b 497 526 371 732 511 736 b 328 279 497 526 483 307 b 358 576 335 379 346 479 b 342 593 360 586 351 594 b 249 557 319 589 282 579 b 206 478 222 539 207 508 b 201 111 204 408 199 256 b 407 -128 201 111 189 -144 b 575 54 407 -128 557 -117 b 471 279 593 225 517 272 b 621 490 471 279 613 350 z m 490 90 b 393 -82 483 -81 393 -82 b 317 104 293 -82 317 104 b 325 242 318 150 321 196 b 490 90 372 239 496 221 z "},"C":{"ha":546,"x_min":0,"x_max":0,"o":"m 203 296 b 328 732 203 296 226 736 b 382 606 393 729 388 640 b 393 600 382 600 388 596 b 442 654 415 614 435 643 b 444 667 444 658 444 663 b 313 785 442 808 313 785 b 61 267 313 785 90 771 b 308 -129 38 -140 308 -129 b 507 75 308 -129 483 -137 b 401 281 528 250 438 276 b 394 269 396 281 392 275 b 433 89 410 242 443 171 b 306 -79 421 -17 365 -86 b 203 296 246 -72 181 22 z "},"&":{"ha":589,"x_min":0,"x_max":0,"o":"m 578 100 b 565 106 575 103 569 104 b 457 129 542 108 503 114 b 413 229 457 164 439 200 b 346 271 413 229 392 256 b 322 258 317 279 319 264 b 347 189 331 242 340 215 b 338 196 343 192 340 194 b 249 286 299 228 271 257 b 261 290 253 288 257 289 l 261 290 b 261 290 261 290 261 290 b 271 294 263 292 265 293 b 271 294 271 294 271 294 b 275 297 272 296 274 296 b 279 299 276 297 278 299 b 308 315 286 303 297 308 b 369 376 332 329 357 350 b 372 383 371 378 372 381 b 363 472 389 424 367 464 b 239 539 347 503 314 539 b 133 396 161 539 115 479 b 165 313 136 385 143 354 b 25 157 64 276 24 214 b 114 22 25 117 36 57 b 257 0 149 7 183 0 b 440 74 368 1 436 56 b 443 78 442 75 442 76 b 517 54 467 67 492 58 b 525 54 518 54 522 53 b 578 88 536 58 560 68 b 578 100 581 92 579 97 z m 340 99 b 340 99 340 99 340 99 b 340 99 340 99 340 99 b 325 82 339 96 333 90 b 274 61 314 74 297 63 b 201 72 243 58 219 65 b 125 164 171 83 125 100 b 132 200 125 164 129 186 b 164 243 139 219 153 235 b 176 251 168 246 172 249 l 176 251 b 197 263 182 254 189 258 b 350 125 231 218 279 169 b 340 99 349 115 346 107 l 340 99 z m 310 481 b 310 481 310 481 310 481 b 328 442 314 475 326 460 b 310 393 328 421 317 403 b 219 333 290 371 258 350 b 190 429 197 374 192 407 b 210 483 190 460 204 478 b 265 501 231 503 253 504 b 310 481 293 497 310 481 z "},"":{"ha":1032,"x_min":0,"x_max":0,"o":"m 978 -61 b 851 28 946 -24 910 11 b 518 14 757 54 663 38 b 383 133 376 -8 383 133 b 400 435 385 225 396 392 b 389 446 400 440 396 446 b 264 386 317 444 278 404 b 136 440 242 414 200 446 b 4 275 136 440 32 426 b 151 1 -24 122 75 7 b 267 61 208 -3 247 26 b 515 -21 267 61 311 -64 b 778 -32 515 -21 664 10 b 903 -142 829 -51 861 -69 b 953 -193 913 -161 928 -189 b 1004 -175 985 -200 1004 -175 b 978 -61 1042 -133 978 -61 z m 196 42 b 140 76 174 32 150 53 b 115 213 129 104 117 142 b 218 382 111 335 179 401 b 253 307 257 361 253 307 l 253 308 b 257 114 251 253 250 176 b 196 42 256 101 244 61 z "},"":{"ha":851,"x_min":0,"x_max":0,"o":"m 804 29 b 676 118 772 67 736 101 b 344 104 582 143 489 128 b 326 103 338 103 332 103 b 250 436 378 229 351 422 b 115 335 185 446 140 382 b 154 736 124 468 138 604 b 138 751 156 746 147 754 b 44 715 114 749 78 739 b 1 636 18 697 3 668 b 10 69 -1 532 -10 235 b 92 -18 10 69 13 -11 b 113 1 103 -19 113 -10 b 111 232 108 76 108 153 b 210 390 119 268 151 381 b 239 186 210 390 267 375 b 225 124 239 186 233 156 b 144 128 194 146 165 158 b 129 63 128 104 128 81 b 167 3 132 21 167 3 b 272 21 224 -26 272 21 b 290 40 278 26 285 33 l 307 64 b 340 69 318 65 329 67 b 603 58 340 69 489 100 b 728 -51 656 39 688 21 b 779 -103 738 -71 754 -99 b 829 -85 811 -110 829 -85 b 804 29 868 -43 804 29 z m 190 58 b 168 108 163 50 158 93 b 215 94 176 118 197 107 b 190 58 208 76 200 61 z "},"":{"ha":743,"x_min":0,"x_max":0,"o":"m 236 3 b 496 -7 236 3 382 35 b 621 -117 547 -26 579 -44 b 671 -168 631 -136 646 -164 b 722 -150 703 -175 722 -150 b 696 -36 760 -108 696 -36 b 569 53 664 1 629 36 b 236 39 475 78 382 63 b 182 38 215 36 200 36 l 182 38 b 110 214 94 46 110 214 b 225 369 119 335 189 393 b 210 301 225 369 243 346 b 213 288 207 297 208 290 b 242 279 221 282 231 279 b 269 299 254 279 264 288 b 251 401 296 360 251 401 b 154 435 232 422 200 439 b 11 286 154 435 53 432 b 122 1 -32 139 51 24 b 160 -6 136 -3 149 -6 b 236 3 189 -7 236 3 z "},"":{"ha":1011,"x_min":0,"x_max":0,"o":"m 356 139 b 400 736 357 336 376 540 b 383 751 401 746 393 754 b 290 715 361 749 324 739 b 249 636 264 697 249 668 b 242 394 246 586 243 494 b 129 436 219 418 183 442 b 3 272 129 436 29 422 b 143 1 -24 122 71 11 b 251 39 200 -7 235 13 b 488 -21 276 4 340 -53 b 749 -32 488 -21 636 10 b 875 -142 801 -51 833 -69 b 925 -193 885 -161 900 -189 b 976 -175 957 -200 976 -175 b 950 -61 1014 -133 950 -61 b 824 28 918 -24 882 11 b 490 14 729 54 635 38 b 361 90 403 0 372 51 b 356 139 357 103 356 139 z m 192 42 b 133 75 165 38 142 57 b 108 211 121 103 110 140 b 207 378 106 332 168 397 b 242 310 239 363 242 322 b 242 307 242 310 242 308 b 242 307 242 307 242 307 l 242 307 b 249 136 243 247 244 188 b 192 42 249 131 246 50 z "},"":{"ha":750,"x_min":0,"x_max":0,"o":"m 699 -36 b 572 53 667 1 632 36 b 239 39 478 78 385 63 b 185 38 218 36 203 36 b 111 214 97 46 111 214 b 113 231 111 219 111 225 b 269 299 239 211 269 299 b 253 401 297 360 253 401 b 154 435 233 422 201 439 b 11 286 154 435 54 432 b 124 1 -31 139 53 24 b 163 -6 136 -3 151 -6 b 239 3 192 -7 239 3 b 499 -7 239 3 385 35 b 624 -117 550 -26 582 -44 b 674 -168 633 -136 649 -164 b 725 -150 706 -175 725 -150 b 699 -36 763 -108 699 -36 z m 242 378 b 235 299 242 378 269 347 b 119 263 206 260 151 257 b 242 378 144 353 214 403 z "},"":{"ha":658,"x_min":0,"x_max":0,"o":"m 597 208 b 469 297 565 246 529 281 b 138 283 376 322 282 307 b 119 282 132 282 125 282 b 149 650 125 404 136 531 b 132 667 150 660 142 668 b 39 628 110 663 72 651 b -1 549 14 610 -1 579 b 1 225 -3 486 -3 356 b 128 -164 1 225 -3 -174 b 135 249 256 -156 240 169 b 396 238 147 251 288 276 b 521 128 449 218 481 200 b 572 76 531 108 547 81 b 622 94 604 69 622 94 b 597 208 661 136 597 208 z m 142 -110 b 118 214 115 -111 117 154 b 142 -110 200 128 169 -108 z "},"":{"ha":906,"x_min":0,"x_max":0,"o":"m 893 -96 b 853 -60 893 -96 885 -65 b 786 -89 828 -56 803 -74 b 439 -122 719 -150 619 -169 b 368 -101 417 -115 393 -108 b 382 18 375 -61 381 -19 b 501 203 417 44 456 100 b 493 224 506 211 501 221 b 490 224 492 224 492 224 b 481 219 486 225 482 222 b 390 72 471 197 432 114 b 383 119 383 82 383 119 b 396 375 382 193 392 331 b 385 386 396 381 392 386 b 286 353 340 385 308 369 b 136 439 281 369 240 453 b 4 274 136 439 32 425 b 151 1 -24 122 75 7 b 260 50 203 -3 239 19 b 261 4 260 50 261 18 b 260 -79 261 -22 261 -51 b 167 -103 222 -79 192 -86 b 119 -178 126 -131 119 -172 b 210 -297 110 -231 140 -289 b 360 -139 293 -308 338 -232 b 433 -164 403 -151 433 -164 b 513 -193 465 -176 488 -183 b 679 -228 603 -225 679 -228 b 826 -192 735 -229 783 -215 b 893 -96 826 -192 913 -149 z m 197 42 b 142 76 174 32 150 53 b 115 213 129 104 117 142 b 218 382 113 335 179 401 b 253 310 253 364 253 321 b 256 106 250 282 244 182 b 197 42 251 89 236 58 z m 236 -212 b 178 -251 225 -239 203 -258 b 156 -179 143 -242 156 -179 l 156 -179 b 188 -133 158 -169 165 -149 b 257 -115 206 -121 228 -115 b 236 -212 253 -153 246 -186 z "},"":{"ha":971,"x_min":0,"x_max":0,"o":"m 324 132 b 335 296 321 189 335 296 b 244 436 335 296 356 436 b 118 332 185 436 144 386 b 154 681 125 444 138 563 b 136 697 156 690 146 699 b 43 661 114 693 76 685 b 0 583 17 644 1 615 b 8 69 -4 479 -8 211 b 90 -18 8 69 11 -10 b 111 0 101 -19 111 -11 b 110 156 110 50 110 103 b 189 356 115 218 147 358 b 197 300 199 354 203 340 b 208 61 197 300 174 135 b 456 -21 208 61 253 -64 b 718 -32 456 -21 604 10 b 844 -142 771 -51 803 -69 b 894 -193 853 -161 869 -189 b 946 -175 926 -200 946 -175 b 919 -61 983 -133 919 -61 b 792 28 888 -24 851 11 b 460 14 699 54 604 36 b 324 132 325 -7 324 132 z "},"":{"ha":776,"x_min":0,"x_max":0,"o":"m 101 460 b 165 506 136 460 165 481 b 101 553 165 532 136 553 b 36 506 65 553 36 532 b 101 460 36 481 65 460 z m 726 -61 b 600 28 694 -24 658 11 b 267 14 506 54 411 38 b 150 60 200 4 168 31 b 135 158 129 92 135 158 b 153 414 138 247 149 375 b 142 425 153 419 147 425 b 40 390 94 424 61 407 b 7 329 21 375 10 353 b 3 146 4 290 -1 214 b 15 61 3 146 4 90 b 264 -21 15 61 60 -64 b 526 -32 264 -21 413 10 b 651 -142 578 -51 610 -69 b 701 -193 661 -161 676 -189 b 753 -175 733 -200 753 -175 b 726 -61 790 -133 726 -61 z "},"":{"ha":657,"x_min":0,"x_max":0,"o":"m 100 460 b 164 506 135 460 164 481 b 100 553 164 532 135 553 b 36 506 64 553 36 532 b 100 460 36 481 64 460 z m 129 17 b 250 203 164 43 203 100 b 242 224 254 211 250 221 b 239 224 240 224 240 224 b 229 219 236 225 232 222 b 139 72 219 197 181 114 b 151 414 122 76 146 354 b 140 425 151 419 147 425 b 39 390 93 424 60 407 b 7 329 21 375 8 353 b 3 122 1 285 -4 196 b 8 4 3 122 8 35 b 7 -79 8 -22 8 -51 b -86 -103 -31 -79 -61 -86 b -133 -178 -126 -131 -133 -172 b -43 -297 -143 -231 -112 -289 b 108 -139 40 -308 85 -232 b 181 -164 150 -151 181 -164 b 260 -193 213 -176 235 -183 b 426 -228 350 -225 426 -228 b 574 -192 482 -229 531 -215 b 640 -96 574 -192 660 -149 b 600 -60 640 -96 632 -65 b 533 -89 575 -56 550 -74 b 186 -122 467 -150 367 -169 b 115 -101 164 -115 140 -108 b 129 17 124 -61 128 -21 z m -75 -251 b -97 -179 -108 -242 -97 -179 l -97 -179 b -65 -133 -94 -169 -87 -149 b 4 -115 -47 -121 -25 -115 b -17 -212 0 -153 -6 -186 b -75 -251 -26 -239 -50 -258 z "},"":{"ha":899,"x_min":0,"x_max":0,"o":"m 151 61 b 382 -21 151 61 183 -64 b 644 -32 382 -21 531 10 b 769 -142 697 -51 729 -69 b 821 -193 779 -161 796 -189 b 871 -175 853 -200 871 -175 b 846 -61 910 -133 846 -61 b 718 28 814 -24 778 11 b 386 14 624 54 531 38 b 251 133 244 -8 251 133 b 257 185 251 161 257 185 b 326 272 310 214 326 272 b 247 436 326 272 375 425 b 121 339 188 442 147 393 b 157 681 129 450 140 564 b 139 697 158 690 149 699 b 46 661 117 693 79 685 b 3 583 19 644 4 615 b 11 69 -1 479 -6 211 b 93 -18 11 69 14 -10 b 114 0 104 -19 114 -11 b 113 156 113 50 113 103 b 192 356 118 218 150 358 b 153 204 217 354 232 247 b 139 185 146 200 140 193 b 151 61 139 185 131 124 z "},"":{"ha":753,"x_min":0,"x_max":0,"o":"m 10 92 b 244 -21 10 92 18 -65 b 506 -32 244 -21 393 10 b 632 -142 558 -51 590 -69 b 682 -193 642 -161 657 -189 b 733 -175 714 -200 733 -175 b 707 -61 771 -133 707 -61 b 581 28 675 -24 639 11 b 247 14 486 54 392 38 b 113 139 106 -8 113 139 b 153 671 113 318 128 475 b 135 688 154 681 144 689 b 43 651 113 683 75 674 b 0 572 17 633 1 603 b 10 92 -3 468 -8 244 z "},"":{"ha":1161,"x_min":0,"x_max":0,"o":"m 513 133 b 526 294 514 176 522 243 b 436 435 526 294 547 435 b 328 353 383 435 350 397 b 238 435 321 392 300 435 b 131 356 186 435 153 399 b 135 426 132 389 133 415 b 124 438 135 433 131 438 b 33 400 78 436 54 417 b 4 340 17 385 6 364 b 1 175 1 304 -3 238 b 99 -15 4 65 26 -10 b 117 1 108 -15 117 -8 b 121 153 117 40 118 96 b 182 354 125 218 157 357 b 190 299 192 353 196 339 b 192 135 189 256 185 197 b 272 43 192 135 196 39 b 318 121 307 46 315 93 b 318 149 319 139 318 149 b 381 354 321 211 354 357 b 389 299 390 353 394 339 b 396 61 383 243 375 131 b 644 -21 396 61 428 -65 b 907 -32 644 -21 793 10 b 1032 -142 958 -51 990 -69 b 1082 -193 1042 -161 1057 -189 b 1133 -175 1115 -200 1133 -175 b 1107 -61 1171 -133 1107 -61 b 981 28 1076 -24 1040 11 b 647 14 886 54 793 36 b 513 133 503 -8 513 133 z "},"":{"ha":997,"x_min":0,"x_max":0,"o":"m 210 68 b 463 -21 210 68 235 -64 b 725 -32 463 -21 611 10 b 851 -142 778 -51 810 -69 b 901 -193 860 -161 876 -189 b 953 -175 933 -200 953 -175 b 926 -61 990 -133 926 -61 b 799 28 894 -24 858 11 b 467 14 706 54 611 36 b 332 135 321 -8 332 135 b 342 296 333 179 338 240 b 250 436 342 296 361 436 b 131 340 193 436 156 392 b 136 428 133 383 135 415 b 125 439 136 435 132 439 b 35 401 79 438 56 418 b 4 342 18 386 7 365 b 3 176 3 306 -1 239 b 100 -14 4 67 28 -8 b 118 4 110 -14 118 -7 b 122 167 118 44 121 106 b 196 356 128 236 154 358 b 204 300 204 354 208 340 b 210 68 199 246 190 138 z "},"":{"ha":858,"x_min":0,"x_max":0,"o":"m 785 318 b 640 372 744 346 701 371 b 321 279 542 375 456 336 b 300 271 313 275 307 274 l 294 303 b 149 436 275 392 215 442 b 32 296 83 432 29 363 b 4 232 11 265 4 232 b 176 4 -17 111 42 -26 b 300 188 176 4 282 28 b 303 233 301 203 303 218 b 325 243 310 236 318 240 b 583 297 325 243 463 310 b 731 221 639 290 674 281 b 793 183 744 204 767 182 b 838 214 825 185 838 214 b 785 318 864 264 785 318 z m 236 151 b 171 49 217 56 181 51 b 111 196 103 33 107 151 b 244 208 153 182 203 185 b 236 151 244 208 242 174 z m 168 229 b 121 256 168 229 139 232 b 151 329 129 289 143 315 b 144 344 156 336 151 343 b 117 346 135 346 125 346 b 163 388 126 371 144 386 b 246 249 200 390 244 347 b 168 229 225 233 200 225 z "},"":{"ha":892,"x_min":0,"x_max":0,"o":"m 824 104 b 685 174 786 138 746 165 b 357 113 588 186 497 157 b 349 110 354 113 351 111 b 268 436 396 239 368 425 b 147 363 211 443 172 403 b 153 419 149 382 151 401 b 136 436 154 429 146 438 b 46 399 114 432 79 422 b 4 319 21 381 7 358 b 17 -249 -3 215 -4 -83 b 100 -335 17 -249 22 -328 b 121 -315 113 -335 122 -326 b 133 225 111 -142 118 43 b 228 390 139 251 167 381 b 257 186 228 390 285 375 b 243 124 257 186 251 156 b 163 128 213 146 185 158 b 147 63 146 104 146 81 b 185 3 151 21 185 3 b 290 21 242 -26 290 21 b 308 40 297 26 303 33 l 328 67 b 360 78 338 69 349 74 b 621 104 360 78 501 129 b 760 14 675 93 708 79 b 818 -31 772 -4 792 -29 b 865 -4 850 -32 865 -4 b 824 104 897 42 824 104 z m 208 58 b 188 108 182 50 176 93 b 233 94 194 118 217 107 b 208 58 226 76 218 61 z "},"":{"ha":1017,"x_min":0,"x_max":0,"o":"m 965 -232 b 838 -144 933 -194 897 -161 b 506 -157 744 -118 650 -135 b 371 -37 364 -179 371 -37 b 372 11 371 -8 372 11 b 501 203 408 33 450 92 b 492 224 504 211 500 221 b 490 224 492 224 490 224 b 481 219 486 225 482 222 b 389 72 471 197 431 114 b 394 375 372 76 390 314 b 385 386 394 381 390 386 b 286 353 339 385 307 369 b 136 439 279 369 239 453 b 4 274 136 439 31 425 b 151 1 -24 122 75 7 b 253 40 196 -3 231 15 b 333 -185 253 40 238 -144 b 503 -193 371 -201 425 -208 b 764 -204 503 -193 651 -162 b 890 -314 817 -222 849 -242 b 940 -365 899 -333 915 -360 b 992 -346 972 -371 992 -346 b 965 -232 1029 -304 965 -232 z m 251 310 b 251 132 250 285 244 204 b 251 96 251 121 251 108 b 196 42 244 79 229 56 b 140 76 174 32 150 53 b 114 213 129 104 117 142 b 218 382 111 335 178 401 b 251 310 251 364 253 321 z "},"":{"ha":892,"x_min":0,"x_max":0,"o":"m 125 61 b 372 -21 125 61 174 -64 b 635 -32 372 -21 521 10 b 761 -142 688 -51 719 -69 b 811 -193 769 -161 786 -189 b 863 -175 843 -200 863 -175 b 836 -61 900 -133 836 -61 b 708 28 804 -24 768 11 b 376 14 615 54 521 38 b 242 133 239 -8 242 133 l 242 133 b 271 374 240 199 257 301 b 207 469 279 418 251 464 b 81 518 117 481 82 515 b 68 543 76 532 68 543 b 13 563 57 560 36 583 b 32 476 -15 539 32 476 b 56 369 57 433 57 406 b 7 203 53 310 17 225 b 10 193 6 199 7 194 b 13 192 11 192 11 192 b 33 199 19 186 31 190 b 92 392 72 288 89 349 b 92 467 92 392 96 428 b 144 447 107 458 126 451 b 125 61 126 381 74 179 z "},"":{"ha":746,"x_min":0,"x_max":0,"o":"m 696 35 b 558 147 669 76 622 119 b 167 161 558 147 383 242 l 158 176 b 99 285 135 222 113 260 b 64 413 57 353 64 413 b 114 506 68 468 83 506 l 114 506 b 144 443 146 506 144 443 b 174 389 144 443 142 388 b 194 414 193 390 194 414 b 97 528 197 467 157 532 b 6 422 44 524 15 471 b 0 326 1 403 -3 364 b 57 107 0 314 4 231 b -72 -175 -83 -22 -72 -175 b 1 -332 -71 -236 -51 -297 b 100 -353 31 -351 67 -358 b 231 -256 125 -351 196 -337 b 179 136 286 -133 236 19 b 493 103 354 188 493 103 b 611 -36 535 76 579 35 b 654 -94 618 -57 631 -86 b 707 -82 686 -104 707 -82 b 696 35 750 -46 696 35 z m 79 -311 b -39 -200 79 -311 -21 -319 b -37 -118 -44 -160 -37 -118 b 13 11 -31 -72 -14 -29 b 71 78 29 38 53 63 b 79 -311 143 -79 189 -299 z "},"":{"ha":760,"x_min":0,"x_max":0,"o":"m 8 92 b 243 -21 8 92 18 -62 b 506 -32 243 -21 392 10 b 631 -142 558 -51 589 -69 b 682 -193 640 -161 657 -189 b 732 -175 714 -200 732 -175 b 707 -61 769 -133 707 -61 b 579 28 675 -24 639 11 b 246 14 485 54 392 33 b 111 139 104 -6 111 139 b 139 586 113 286 124 438 b 201 585 160 585 181 585 l 201 585 b 288 583 231 583 258 583 b 394 567 304 583 376 581 b 379 614 413 554 438 624 b 142 611 300 606 221 610 b 157 736 146 653 151 694 b 139 751 157 746 149 754 b 46 715 117 749 79 739 b 4 636 21 697 4 668 b 3 613 3 629 3 621 b -85 628 -25 614 -71 618 b -68 581 -101 642 -126 571 b 3 586 -44 583 -21 585 b 8 92 -1 461 -8 235 z "},"":{"ha":988,"x_min":0,"x_max":0,"o":"m 268 7 b 472 -21 303 -22 367 -43 b 735 -32 472 -21 621 10 b 860 -142 788 -51 819 -69 b 911 -193 869 -161 886 -189 b 961 -175 943 -200 961 -175 b 936 -61 1000 -133 936 -61 b 808 28 904 -24 868 11 b 476 14 714 54 621 35 b 342 143 335 -6 342 143 b 360 414 343 231 356 374 b 349 425 360 419 354 425 b 247 390 301 424 268 407 b 214 329 228 375 217 353 b 208 226 213 306 208 268 b 201 178 207 219 204 193 b 144 53 190 129 167 63 b 125 86 135 49 128 65 b 146 426 117 201 125 314 b 138 439 147 432 143 438 b 44 410 101 440 72 431 b 8 351 25 397 11 374 b 1 182 0 296 -1 239 b 68 13 1 182 4 50 b 117 0 81 4 97 -1 b 215 93 164 4 194 44 b 268 7 215 93 231 39 z "},"":{"ha":864,"x_min":0,"x_max":0,"o":"m 792 306 b 653 374 754 338 714 367 b 326 314 556 386 465 357 b 261 300 301 306 279 299 l 261 304 b 222 436 265 338 274 436 b 219 257 161 436 140 278 b 146 57 206 176 176 74 b 129 86 142 54 133 68 b 115 426 110 201 107 314 b 106 439 115 432 111 438 b 19 410 72 440 44 431 b -8 351 3 397 -7 374 b 3 182 -11 296 -7 239 b 82 13 3 182 18 50 b 129 0 94 4 111 -1 b 256 257 129 0 218 4 l 256 258 b 328 278 278 263 301 268 b 589 304 328 278 469 329 b 728 214 643 293 678 279 b 786 171 740 196 761 172 b 833 196 818 169 833 196 b 792 306 865 243 792 306 z m 225 296 b 213 344 218 300 207 311 b 222 360 213 344 214 361 b 225 296 229 358 229 332 z "},"":{"ha":1043,"x_min":0,"x_max":0,"o":"m 975 301 b 836 371 938 335 897 363 b 508 310 739 383 649 353 b 453 296 489 304 469 297 l 454 304 b 414 436 458 338 465 436 b 413 257 353 436 333 278 b 339 57 399 176 369 74 b 322 86 335 54 325 68 b 307 426 301 201 299 314 b 297 439 308 432 303 438 b 213 410 264 440 238 431 b 183 351 194 397 185 374 b 185 281 183 328 183 304 b 147 54 185 196 182 68 b 128 86 143 53 132 64 b 114 426 108 201 106 314 b 104 439 114 432 110 438 b 18 410 71 440 43 431 b -10 351 1 397 -8 374 b 1 182 -12 296 -8 239 b 81 13 1 182 17 50 b 129 0 94 4 110 -1 b 211 108 129 0 185 -1 b 274 13 224 71 243 31 b 322 0 288 4 303 -1 b 447 257 322 0 410 4 b 511 275 467 260 488 267 b 772 301 511 275 653 326 b 911 210 826 289 860 276 b 969 167 924 193 943 168 b 1017 192 1001 165 1017 192 b 975 301 1049 239 975 301 z m 418 296 b 404 344 410 300 400 311 b 414 360 404 344 406 361 b 418 296 422 358 422 332 z "},"":{"ha":824,"x_min":0,"x_max":0,"o":"m 51 107 b 301 -21 51 107 97 -64 b 564 -32 301 -21 450 10 b 689 -142 615 -51 647 -69 b 739 -193 699 -161 714 -189 b 790 -175 771 -200 790 -175 b 764 -61 828 -133 764 -61 b 638 28 732 -24 696 11 b 304 14 543 54 449 38 b 193 50 246 6 213 25 b 172 90 185 61 176 76 b 136 201 158 126 146 164 b 176 436 188 257 274 375 b 167 431 172 439 167 436 b 125 246 167 401 163 315 b 93 429 110 306 100 367 b 81 439 92 435 86 439 b 1 394 47 435 22 419 b -14 331 -12 378 -18 353 b 29 163 -7 275 8 218 b 36 142 29 163 31 154 b -29 14 8 110 -36 53 b 26 -21 -29 14 -18 -29 b 32 -10 31 -19 33 -15 b 51 107 26 7 18 53 z "},"":{"ha":868,"x_min":0,"x_max":0,"o":"m 847 -96 b 807 -60 847 -96 839 -65 b 742 -89 782 -56 757 -74 b 393 -122 674 -150 574 -169 b 324 -101 371 -115 347 -108 b 336 15 331 -61 335 -21 b 458 203 371 42 411 99 b 449 224 463 211 458 221 b 447 224 449 224 447 224 b 438 219 443 225 439 222 b 346 72 428 197 389 114 b 358 414 331 76 354 354 b 349 425 360 419 354 425 b 247 390 300 424 268 407 b 214 329 228 375 217 353 b 207 225 211 306 208 267 b 201 178 207 217 204 193 b 144 53 189 131 167 63 b 125 86 133 49 128 65 b 146 426 117 201 125 314 b 136 439 147 432 143 438 b 43 410 101 440 72 431 b 8 351 24 397 11 374 b 1 182 0 296 -3 239 b 68 13 1 182 4 51 b 117 1 81 4 97 0 b 213 90 161 4 193 43 b 214 -79 215 49 218 -17 b 122 -103 176 -79 146 -86 b 74 -178 82 -131 75 -172 b 164 -297 65 -231 94 -289 b 315 -139 249 -308 293 -232 b 388 -164 358 -151 388 -164 b 468 -193 421 -176 443 -183 b 633 -228 557 -225 633 -228 b 782 -192 690 -229 738 -215 b 847 -96 782 -192 867 -149 z m 132 -251 b 111 -179 99 -242 111 -179 l 111 -179 b 143 -133 113 -169 119 -149 b 211 -115 160 -121 183 -115 b 192 -212 208 -153 201 -186 b 132 -251 181 -239 158 -258 z "},"":{"ha":767,"x_min":0,"x_max":0,"o":"m 750 -96 b 710 -60 750 -96 742 -65 b 643 -89 685 -56 660 -75 b 296 -122 576 -150 476 -169 b 226 -101 274 -115 250 -108 b 239 4 232 -65 236 -29 b 374 203 276 28 321 89 b 364 224 376 211 372 221 b 363 224 364 224 363 224 b 353 219 358 225 354 222 b 261 72 343 197 303 114 b 269 374 219 79 247 263 b 206 469 278 418 250 464 b 79 518 115 481 81 515 b 67 543 76 531 67 543 b 11 563 56 560 35 582 b 31 476 -18 539 31 476 b 54 369 56 433 56 406 b 6 203 51 310 15 225 b 8 193 4 199 6 194 b 11 192 10 192 10 192 b 32 199 18 186 28 190 b 90 392 71 288 88 349 b 90 467 90 392 94 428 b 143 447 106 458 125 451 b 113 122 128 390 92 239 b 119 6 117 96 119 54 b 117 -81 121 -21 118 -51 b 24 -104 79 -79 49 -87 b -24 -178 -17 -131 -22 -172 b 67 -297 -32 -231 -3 -289 b 218 -139 151 -308 194 -232 b 290 -164 260 -151 290 -164 b 369 -193 322 -176 346 -183 b 536 -229 460 -225 536 -229 b 683 -193 592 -229 640 -215 b 750 -96 683 -193 769 -149 z m 94 -212 b 36 -251 85 -239 61 -258 b 14 -179 3 -242 14 -179 l 14 -179 b 46 -133 17 -169 24 -149 b 115 -115 64 -121 88 -115 b 94 -212 111 -153 106 -186 z "},"":{"ha":397,"x_min":0,"x_max":0,"o":"m 1035 635 b 728 707 1028 719 946 754 b 135 575 588 678 306 603 b 136 633 138 601 136 633 b 35 793 135 696 118 793 b -101 628 -90 793 -108 682 b -1 521 -97 601 -79 535 b -3 426 -3 496 -3 426 b 10 69 -4 306 -1 165 b 92 -18 10 69 13 -11 b 113 1 103 -19 113 -10 b 111 232 108 76 108 153 b 210 390 121 268 151 381 b 239 186 210 390 267 375 b 225 124 239 186 233 156 b 144 128 194 146 165 158 b 129 63 128 104 128 81 b 167 3 133 21 167 3 b 272 21 224 -26 272 21 b 290 40 278 26 285 33 b 310 38 297 38 304 38 b 358 69 326 39 343 46 l 358 69 b 432 203 381 101 404 144 b 422 224 435 211 431 221 b 419 224 422 224 421 224 b 411 219 417 225 413 222 b 331 85 401 199 368 128 b 314 74 325 78 319 74 b 250 436 382 197 360 421 b 115 335 185 446 140 382 b 131 531 118 375 131 531 b 956 571 376 576 897 711 b 1007 560 964 550 990 544 b 1035 635 1024 575 1038 599 z m 0 568 b -58 628 -36 575 -57 594 b -18 722 -61 672 -54 722 b 0 568 13 722 0 586 z m 190 58 b 169 108 164 50 158 93 b 215 94 176 118 197 107 b 190 58 208 76 200 61 z "},"":{"ha":436,"x_min":0,"x_max":0,"o":"m 385 633 b 282 793 383 696 367 793 b 147 628 157 793 139 682 b 246 521 151 601 168 535 b 243 394 246 483 243 443 b 129 436 221 418 183 442 b 3 272 129 436 29 422 b 144 1 -24 122 71 11 b 261 54 211 -8 246 19 b 317 0 268 26 285 -4 b 471 203 360 7 407 64 b 463 224 475 211 471 221 b 460 224 461 224 461 224 b 450 219 456 225 453 222 b 360 72 440 197 401 114 b 357 140 354 68 356 104 b 378 531 357 268 365 400 b 1204 571 625 576 1146 711 b 1254 560 1213 550 1239 544 b 1283 635 1272 575 1286 599 b 976 707 1275 719 1194 754 b 383 575 835 678 554 603 b 385 633 385 601 385 633 z m 189 628 b 231 722 186 672 194 722 b 247 568 261 722 249 586 b 189 628 213 575 192 594 z m 192 42 b 133 75 167 38 142 57 b 108 211 121 103 111 142 b 208 379 106 332 169 397 b 243 311 239 364 243 324 b 243 307 243 310 243 308 b 243 307 243 307 243 307 l 243 307 b 250 136 243 247 246 188 b 192 42 250 131 247 50 z "},"":{"ha":410,"x_min":0,"x_max":0,"o":"m 1036 635 b 729 707 1029 719 947 754 b 136 575 589 678 307 603 b 139 633 139 601 139 633 b 36 793 136 696 119 793 b -100 628 -89 793 -107 682 b 0 521 -96 601 -78 535 b -3 407 0 521 -1 458 b 10 69 -6 292 -1 157 b 90 -18 10 69 13 -10 b 111 0 101 -19 111 -11 b 111 156 110 50 110 103 b 190 356 117 218 147 358 b 199 300 200 354 204 340 b 240 10 192 224 179 46 b 444 203 296 -24 356 8 b 436 224 449 211 444 221 b 433 224 435 224 435 224 b 424 219 429 225 425 222 b 333 72 414 197 375 114 b 336 296 321 75 328 193 b 244 436 336 296 357 436 b 119 332 185 436 144 386 b 132 531 122 361 132 531 b 957 571 378 576 900 711 b 1008 560 965 550 992 544 b 1036 635 1025 575 1040 599 z m 1 568 b -57 628 -33 575 -54 594 b -15 722 -60 672 -53 722 b 1 568 14 722 1 586 z "},"":{"ha":369,"x_min":0,"x_max":0,"o":"m 131 531 b 957 571 378 576 899 711 b 1007 560 965 550 990 544 b 1036 635 1024 575 1039 599 b 729 707 1028 719 947 754 b 135 575 588 678 307 603 b 138 633 138 601 138 633 b 35 793 136 696 119 793 b -100 628 -90 793 -108 682 b -1 521 -97 601 -79 535 b -1 461 -1 521 -1 483 b 10 69 -1 338 -1 171 b 92 -18 10 69 13 -10 b 113 0 103 -19 113 -11 b 113 156 111 50 111 103 b 192 356 117 218 149 358 b 151 204 215 354 232 247 b 138 185 144 200 139 193 b 217 -6 128 83 153 3 b 315 47 268 -12 315 47 b 404 203 342 79 371 128 b 396 224 408 211 404 221 b 393 224 394 224 394 224 b 383 219 390 225 386 222 b 293 72 374 197 335 114 b 267 58 293 72 281 58 b 256 185 246 60 240 83 b 325 272 308 214 325 272 b 246 436 325 272 374 425 b 121 339 186 442 146 393 b 131 531 124 388 131 531 z m -58 628 b -17 722 -61 672 -53 722 b 0 568 13 722 0 586 b -58 628 -35 575 -56 594 z "},"":{"ha":192,"x_min":0,"x_max":0,"o":"m 1036 635 b 729 707 1028 719 947 754 b 136 575 589 678 307 603 b 138 633 138 601 138 633 b 36 793 136 696 119 793 b -100 628 -89 793 -107 682 b 0 521 -96 601 -79 535 b -3 408 0 521 -3 471 b 10 92 -4 306 -1 185 b 72 0 10 92 17 -7 b 226 203 115 7 163 64 b 218 224 231 211 226 221 b 215 224 217 224 217 224 b 206 219 211 225 208 222 b 115 72 196 197 157 114 b 113 139 110 68 111 104 b 119 347 113 211 117 278 b 132 531 125 446 132 531 b 957 571 378 576 899 711 b 1007 560 965 550 992 544 b 1036 635 1025 575 1039 599 z m 1 568 b -57 628 -35 575 -56 594 b -17 722 -61 672 -53 722 b 1 568 14 722 1 586 z "},"":{"ha":192,"x_min":0,"x_max":0,"o":"m 485 610 b 910 608 485 610 681 608 b 1032 725 1036 608 1053 674 b 1006 760 1026 740 1015 751 b 954 757 990 772 968 771 b 476 649 838 639 476 649 b 140 651 351 647 140 651 b 156 776 144 693 150 735 b 138 792 157 786 147 794 b 46 756 115 789 79 779 b 3 676 19 738 4 708 b 1 653 3 669 3 661 b -79 668 -26 654 -67 658 b -64 608 -97 682 -122 599 b 1 614 -40 611 -22 613 b 8 92 -3 489 -8 235 b 69 0 8 92 15 -7 b 225 203 114 7 161 64 b 217 224 229 211 225 221 b 214 224 215 224 215 224 b 204 219 210 225 206 222 b 114 72 194 197 156 114 b 111 140 108 68 110 104 b 138 614 111 286 122 465 b 485 610 138 614 175 615 z "},"":{"ha":444,"x_min":0,"x_max":0,"o":"m 100 460 b 164 506 136 460 164 481 b 100 553 164 532 136 553 b 36 506 65 553 36 532 b 100 460 36 481 65 460 z m 331 460 b 394 506 365 460 394 481 b 331 553 394 532 365 553 b 265 506 294 553 265 532 b 331 460 265 481 294 460 z m 433 -58 b 354 -49 406 -53 379 -50 b 360 17 357 -26 358 -4 b 481 203 394 43 433 100 b 472 224 485 211 481 221 b 469 224 471 224 469 224 b 460 219 465 225 461 222 b 369 72 450 197 411 114 b 381 414 353 76 376 354 b 371 425 382 419 376 425 b 269 390 324 424 290 407 b 236 329 250 375 239 353 b 229 218 233 304 231 263 b 139 72 219 194 181 113 b 151 414 122 76 146 354 b 140 425 151 419 147 425 b 39 390 93 424 60 407 b 7 329 21 375 8 353 b 3 122 3 285 -4 196 b 8 -58 7 83 11 11 b -43 -297 -165 -106 -182 -281 b 97 -182 29 -307 72 -254 b 186 -297 85 -236 114 -289 b 343 -122 278 -310 322 -222 b 407 -160 371 -135 393 -149 b 478 -174 424 -172 454 -183 b 510 -131 507 -161 510 -131 b 433 -58 517 -74 433 -58 z m -17 -212 b -75 -251 -26 -239 -50 -258 b -97 -190 -111 -240 -97 -190 b -43 -124 -87 -156 -64 -135 b 6 -107 -43 -124 -21 -108 b -17 -212 1 -147 -6 -185 z m 103 -162 b 114 -122 107 -150 110 -136 b 125 -128 117 -125 121 -126 b 103 -162 115 -139 108 -151 z m 214 -212 b 154 -251 203 -239 181 -258 b 132 -190 118 -240 132 -190 b 186 -124 142 -156 165 -135 b 235 -107 186 -124 210 -108 b 214 -212 231 -147 225 -185 z m 238 -58 b 222 -64 232 -61 226 -62 b 204 -58 211 -60 204 -58 b 125 -49 175 -53 150 -50 b 131 17 128 -26 129 -4 b 231 160 160 39 192 83 b 233 122 231 147 232 133 b 238 -58 236 83 240 11 z "},"":{"ha":557,"x_min":0,"x_max":0,"o":"m 100 460 b 165 506 136 460 165 481 b 100 553 165 532 136 553 b 36 506 65 553 36 532 b 100 460 36 481 65 460 z m 529 -58 b 451 -49 501 -53 475 -50 b 456 4 453 -31 454 -12 b 590 203 493 28 538 89 b 582 224 594 211 590 221 b 579 224 581 224 581 224 b 569 219 575 225 571 222 b 479 72 560 197 521 114 b 486 374 436 79 465 263 b 424 469 496 418 467 464 b 296 518 332 481 299 515 b 283 543 293 531 283 543 b 228 563 272 560 251 582 b 247 476 200 539 247 476 b 272 369 272 433 274 406 b 226 211 269 315 239 242 b 139 72 213 181 176 110 b 151 414 124 76 146 354 b 140 425 151 419 147 425 b 39 390 93 424 60 407 b 7 329 21 375 8 353 b 3 122 3 285 -4 196 b 8 -58 7 83 11 11 b -43 -297 -164 -106 -182 -281 b 114 -122 49 -310 92 -222 b 176 -160 142 -135 163 -149 b 197 -171 182 -164 189 -168 b 283 -297 176 -229 206 -287 b 439 -122 374 -310 418 -222 b 503 -160 467 -135 489 -149 b 574 -174 519 -172 550 -183 b 606 -131 604 -161 606 -131 b 529 -58 614 -74 529 -58 z m -17 -212 b -75 -251 -26 -239 -50 -258 b -97 -190 -111 -240 -97 -190 b -43 -124 -87 -156 -64 -135 b 6 -107 -43 -124 -19 -108 b -17 -212 1 -147 -6 -185 z m 310 -212 b 251 -251 299 -239 276 -258 b 229 -190 215 -240 229 -190 b 285 -122 239 -154 263 -133 b 332 -107 285 -122 308 -107 b 310 -212 328 -147 321 -185 z m 331 122 b 336 -58 336 85 340 13 b 265 -89 308 -65 285 -76 b 204 -58 243 -67 204 -58 b 125 -49 176 -53 150 -50 b 131 17 128 -26 129 -4 b 249 197 164 42 203 97 b 249 199 249 197 249 199 b 250 200 250 199 250 200 b 251 203 250 201 250 201 b 251 204 251 203 251 204 b 307 392 289 289 306 350 b 307 467 307 392 311 428 b 361 447 322 458 342 451 b 331 122 346 390 308 239 z "},"":{"ha":697,"x_min":0,"x_max":0,"o":"m 581 460 b 646 506 617 460 646 481 b 581 553 646 532 617 553 b 517 506 546 553 517 532 b 581 460 517 481 546 460 z m 685 -58 b 606 -49 657 -53 631 -50 b 611 17 608 -26 610 -4 b 732 203 646 43 685 100 b 722 224 735 211 731 221 b 721 224 722 224 721 224 b 711 219 717 225 713 222 b 619 72 701 197 661 114 b 632 414 604 76 626 354 b 622 425 633 419 628 425 b 519 390 574 424 540 407 b 488 329 501 375 490 353 b 481 221 485 304 482 264 b 479 219 481 221 481 219 b 389 72 469 197 431 114 b 382 119 382 82 382 119 b 394 375 381 193 390 331 b 383 386 394 381 390 386 b 285 353 339 385 307 369 b 135 439 279 369 239 453 b 3 274 135 439 31 425 b 150 1 -25 122 74 7 b 258 50 201 -3 238 19 b 260 -58 261 17 261 -21 b 207 -297 86 -106 68 -281 b 350 -176 282 -307 325 -251 b 438 -297 333 -232 363 -289 b 594 -122 529 -310 574 -222 b 657 -160 622 -135 643 -149 b 728 -174 675 -172 704 -183 b 760 -131 758 -161 760 -131 b 685 -58 768 -74 685 -58 z m 196 42 b 140 76 172 32 149 53 b 114 213 128 104 115 142 b 217 382 111 335 178 401 b 251 310 251 364 251 321 b 254 106 249 282 243 182 b 196 42 250 89 235 58 z m 235 -212 b 175 -251 224 -239 201 -258 b 153 -190 139 -240 153 -190 b 246 -108 172 -121 246 -108 b 256 -107 250 -108 253 -107 b 235 -212 253 -147 246 -185 z m 381 18 b 482 163 410 40 443 85 b 485 122 482 149 483 135 b 489 -58 488 83 492 11 b 472 -64 483 -61 478 -62 b 454 -58 463 -60 454 -58 b 375 -49 426 -53 400 -50 b 381 18 378 -25 379 -3 z m 351 -169 b 364 -122 357 -154 361 -139 b 375 -128 368 -125 372 -126 b 351 -169 365 -142 357 -156 z m 464 -212 b 406 -251 454 -239 432 -258 b 383 -190 369 -240 383 -190 b 438 -124 393 -156 417 -135 b 486 -107 438 -124 461 -108 b 464 -212 482 -147 475 -185 z "},"":{"ha":807,"x_min":0,"x_max":0,"o":"m 779 -58 b 701 -49 751 -53 725 -50 b 706 4 703 -31 704 -12 b 840 203 743 28 788 89 b 832 224 844 211 840 221 b 829 224 831 224 831 224 b 819 219 825 225 821 222 b 729 72 810 197 771 114 b 736 374 686 79 715 263 b 674 469 746 418 717 464 b 546 518 582 481 549 515 b 533 543 543 531 533 543 b 478 563 522 560 501 582 b 497 476 450 539 497 476 b 522 369 522 433 524 406 b 476 211 519 317 490 243 b 389 72 463 182 428 110 b 382 119 382 82 382 119 b 394 375 381 193 392 331 b 385 386 394 381 390 386 b 286 353 339 385 307 369 b 136 439 279 369 239 453 b 4 274 136 439 31 425 b 151 1 -24 122 75 7 b 260 50 201 -3 239 19 b 260 -58 261 17 261 -21 b 208 -297 86 -106 69 -281 b 364 -122 299 -310 343 -222 b 428 -160 392 -135 414 -149 b 447 -171 433 -164 440 -167 b 533 -297 426 -229 456 -287 b 689 -122 624 -310 668 -222 b 753 -160 717 -135 739 -149 b 824 -174 769 -172 800 -183 b 856 -131 854 -161 856 -131 b 779 -58 864 -74 779 -58 z m 196 42 b 140 76 174 32 150 53 b 114 213 129 104 117 142 b 218 382 111 335 178 401 b 251 310 251 364 253 321 b 256 106 250 282 243 182 b 196 42 250 89 236 58 z m 235 -212 b 176 -251 224 -239 201 -258 b 154 -190 140 -240 154 -190 b 247 -108 174 -121 247 -108 b 257 -107 250 -108 253 -107 b 235 -212 253 -147 246 -185 z m 560 -212 b 501 -251 549 -239 526 -258 b 479 -190 465 -240 479 -190 b 535 -122 489 -154 513 -133 b 582 -107 535 -122 558 -107 b 560 -212 578 -147 571 -185 z m 581 122 b 586 -58 586 85 590 13 b 515 -89 558 -65 535 -76 b 454 -58 493 -65 454 -58 b 376 -49 426 -53 400 -50 b 382 18 379 -25 381 -3 b 499 197 415 43 453 99 b 499 199 499 197 499 197 b 500 201 500 200 500 200 b 501 203 500 201 501 201 b 501 203 501 203 501 203 b 557 392 539 289 556 350 b 557 467 557 392 561 428 b 611 447 572 458 592 451 b 581 122 596 390 558 239 z "},"":{"ha":653,"x_min":0,"x_max":0,"o":"m 536 460 b 601 506 572 460 601 481 b 536 553 601 532 572 553 b 472 506 501 553 472 532 b 536 460 472 481 501 460 z m 640 -58 b 561 -49 613 -53 586 -50 b 567 17 564 -26 565 -4 b 688 203 601 43 640 100 b 678 224 692 211 688 221 b 676 224 678 224 676 224 b 667 219 672 225 668 222 b 575 72 657 197 618 114 b 588 414 560 76 583 354 b 578 425 589 419 583 425 b 476 390 529 424 497 407 b 443 329 457 375 446 353 b 436 217 440 303 438 261 b 347 72 425 190 388 111 b 360 414 331 76 354 354 b 349 425 360 419 354 425 b 247 390 301 424 268 407 b 214 329 228 375 217 353 b 208 225 213 306 208 267 b 201 178 207 217 204 193 b 144 53 190 129 167 63 b 125 86 135 49 128 65 b 146 426 117 201 125 314 b 138 439 147 432 143 438 b 44 410 101 440 72 431 b 8 351 25 397 11 374 b 1 182 0 296 -1 239 b 68 13 1 182 4 50 b 117 0 81 4 97 -1 b 214 89 163 4 193 43 b 215 -58 215 50 218 -6 b 164 -297 43 -106 26 -281 b 303 -187 235 -307 278 -257 b 393 -297 293 -240 324 -289 b 550 -122 485 -310 529 -222 b 614 -160 578 -135 600 -149 b 683 -174 631 -172 661 -183 b 715 -131 714 -161 715 -131 b 640 -58 724 -74 640 -58 z m 192 -212 b 132 -251 181 -239 158 -258 b 110 -190 96 -240 110 -190 b 163 -124 119 -156 142 -136 b 213 -107 163 -124 189 -107 b 192 -212 208 -147 203 -185 z m 338 17 b 438 158 367 39 400 83 b 440 122 438 146 439 133 b 444 -58 443 83 447 11 b 429 -64 439 -60 433 -62 b 411 -58 418 -60 411 -58 b 333 -49 383 -53 357 -50 b 338 17 335 -26 336 -4 z m 313 -157 b 321 -122 315 -146 318 -135 b 332 -128 325 -124 328 -126 b 313 -157 324 -137 317 -147 z m 421 -212 b 361 -251 410 -239 388 -258 b 339 -190 325 -240 339 -190 b 393 -124 349 -156 372 -135 b 442 -107 393 -124 417 -108 b 421 -212 438 -147 432 -185 z "},"":{"ha":764,"x_min":0,"x_max":0,"o":"m 738 -58 b 658 -49 710 -53 683 -50 b 663 4 661 -31 663 -12 b 799 203 701 28 746 89 b 789 224 801 211 797 221 b 788 224 789 224 788 224 b 778 219 783 225 779 222 b 686 72 767 197 728 114 b 694 374 644 79 672 263 b 631 469 703 418 675 464 b 503 518 540 481 506 515 b 490 543 501 531 490 543 b 436 563 481 560 460 582 b 456 476 407 539 456 476 b 479 369 479 433 481 406 b 436 215 476 318 450 247 b 347 72 424 188 386 111 b 358 414 331 76 354 354 b 349 425 360 419 354 425 b 247 390 301 424 268 407 b 214 329 228 375 217 353 b 208 225 211 306 208 267 b 201 178 207 217 204 193 b 144 53 190 129 167 63 b 125 86 133 49 128 65 b 146 426 117 201 125 314 b 136 439 147 432 143 438 b 43 410 101 440 72 431 b 8 351 25 397 11 374 b 1 182 0 296 -3 239 b 68 13 1 182 4 50 b 117 0 81 4 97 -1 b 213 89 163 4 193 43 b 215 -58 215 50 218 -6 b 164 -297 43 -106 26 -281 b 321 -122 256 -310 300 -222 b 385 -160 349 -135 371 -149 b 404 -171 390 -164 397 -168 b 490 -297 385 -229 413 -287 b 647 -122 582 -310 626 -222 b 711 -160 675 -135 696 -149 b 781 -174 728 -172 758 -183 b 813 -131 811 -161 813 -131 b 738 -58 821 -74 738 -58 z m 192 -212 b 132 -251 181 -239 158 -258 b 110 -190 96 -240 110 -190 b 163 -124 119 -156 142 -136 b 213 -107 163 -124 189 -107 b 192 -212 208 -147 203 -185 z m 518 -212 b 458 -251 507 -239 485 -258 b 436 -190 422 -240 436 -190 b 492 -122 446 -154 471 -133 b 540 -107 492 -122 515 -107 b 518 -212 536 -147 528 -185 z m 538 122 b 543 -58 544 85 547 13 b 472 -89 515 -65 493 -76 b 411 -58 450 -67 411 -58 b 332 -49 383 -53 357 -50 b 338 17 335 -26 336 -4 b 456 196 371 42 410 97 b 457 199 456 197 457 197 b 515 392 496 288 513 349 b 515 467 515 392 519 428 b 568 447 531 458 549 451 b 538 122 553 390 517 239 z "},"":{"ha":567,"x_min":0,"x_max":0,"o":"m 451 460 b 515 506 488 460 515 481 b 451 553 515 532 488 553 b 388 506 415 553 388 532 b 451 460 388 481 415 460 z m 554 -58 b 476 -49 526 -53 501 -50 b 482 17 479 -26 481 -4 b 603 203 515 43 556 100 b 593 224 606 211 601 221 b 590 224 593 224 592 224 b 582 219 588 225 583 222 b 490 72 571 197 532 114 b 503 414 474 76 497 354 b 492 425 503 419 499 425 b 390 390 444 424 411 407 b 358 329 372 375 360 353 b 351 215 356 303 351 261 b 263 72 339 188 301 111 b 269 374 219 79 249 263 b 207 469 279 418 250 464 b 79 518 115 481 82 515 b 67 543 76 531 67 543 b 11 563 56 560 35 582 b 31 476 -17 539 31 476 b 56 369 56 433 57 406 b 7 203 53 310 17 225 b 10 193 4 199 6 194 b 11 192 10 192 11 192 b 32 199 19 186 29 190 b 90 392 71 288 89 349 b 90 467 90 392 94 428 b 144 447 106 458 125 451 b 114 122 129 390 92 239 b 119 -58 119 85 124 13 b 67 -297 -56 -104 -72 -281 b 222 -122 157 -310 201 -222 b 243 -132 229 -125 236 -129 b 308 -297 192 -200 213 -286 b 464 -122 399 -310 443 -222 b 528 -160 492 -135 514 -149 b 599 -174 546 -172 575 -183 b 631 -131 629 -161 631 -131 b 554 -58 639 -74 554 -58 z m 93 -212 b 35 -251 82 -239 60 -258 b 13 -190 -1 -240 13 -190 b 68 -122 22 -154 46 -133 b 115 -107 68 -122 92 -107 b 93 -212 111 -147 104 -185 z m 335 -212 b 276 -251 325 -239 301 -258 b 254 -190 240 -240 254 -190 b 307 -124 264 -156 286 -135 b 356 -107 307 -124 331 -108 b 335 -212 353 -147 346 -185 z m 360 -58 b 338 -65 351 -61 344 -64 b 313 -58 324 -61 313 -58 b 235 -49 285 -53 258 -50 b 239 4 236 -31 238 -12 b 351 157 271 24 308 72 b 354 122 353 144 353 133 b 360 -58 358 83 363 11 z "},"":{"ha":679,"x_min":0,"x_max":0,"o":"m 651 -58 b 574 -49 624 -53 597 -50 b 578 4 575 -31 576 -12 b 713 203 615 28 661 89 b 704 224 717 211 713 221 b 701 224 703 224 703 224 b 692 219 697 225 693 222 b 601 72 682 197 643 114 b 608 374 558 79 588 263 b 546 469 618 418 589 464 b 418 518 454 481 421 515 b 406 543 415 531 406 543 b 351 563 394 560 374 582 b 369 476 322 539 369 476 b 394 369 394 433 396 406 b 351 217 392 318 365 249 b 261 72 339 190 301 111 b 269 374 219 79 247 263 b 206 469 278 418 250 464 b 78 518 114 481 81 515 b 65 543 75 531 65 543 b 11 563 56 560 35 582 b 29 476 -18 539 29 476 b 54 369 54 433 56 406 b 6 203 51 310 15 225 b 8 193 4 199 6 194 b 10 192 8 192 10 192 b 32 199 18 186 28 190 b 90 392 69 288 88 349 b 90 467 90 392 94 428 b 143 447 106 458 124 451 b 113 122 128 390 92 239 b 118 -58 118 85 122 13 b 65 -297 -56 -104 -74 -281 b 222 -122 157 -310 201 -222 b 285 -160 250 -135 271 -149 b 318 -175 294 -165 306 -172 b 406 -297 300 -232 329 -287 b 561 -122 496 -310 540 -222 b 625 -160 589 -135 611 -149 b 696 -174 642 -172 672 -183 b 728 -131 726 -161 728 -131 b 651 -58 736 -74 651 -58 z m 92 -212 b 33 -251 82 -239 60 -258 b 11 -190 -3 -240 11 -190 b 67 -122 21 -154 46 -133 b 115 -107 67 -122 90 -107 b 92 -212 110 -147 103 -185 z m 432 -212 b 374 -251 421 -239 399 -258 b 351 -190 338 -240 351 -190 b 407 -122 361 -154 385 -133 b 454 -107 407 -122 431 -107 b 432 -212 450 -147 443 -185 z m 453 122 b 458 -58 458 85 463 13 b 379 -94 426 -67 400 -79 b 313 -58 358 -67 313 -58 b 233 -49 285 -53 258 -50 b 238 4 236 -31 238 -12 b 369 196 275 26 319 86 b 371 199 371 197 371 197 b 429 392 410 288 428 349 b 429 467 429 392 433 428 b 483 447 444 458 464 451 b 453 122 468 390 431 239 z "},"":{"ha":657,"x_min":0,"x_max":0,"o":"m 682 224 b 681 224 682 224 681 224 b 671 219 676 225 672 222 b 579 72 661 197 622 114 b 588 374 538 79 567 263 b 524 469 596 418 568 464 b 397 518 433 481 399 515 b 385 543 393 532 385 543 b 329 564 368 569 360 589 b 349 476 300 539 349 476 b 294 281 349 476 393 356 b 149 438 279 371 236 444 b 32 296 83 432 28 363 b 4 232 11 265 4 232 b 176 4 -18 111 40 -26 b 297 174 176 4 278 26 b 300 236 300 197 300 206 b 408 467 425 301 408 467 b 461 449 424 458 443 451 b 488 10 440 368 378 106 b 692 203 535 -32 603 8 b 682 224 696 211 692 221 z m 121 256 b 151 329 129 289 143 315 b 144 344 156 336 151 343 b 115 346 135 346 125 346 b 163 388 126 371 144 386 b 243 254 200 390 240 353 b 121 256 167 217 121 256 z m 236 151 b 171 49 217 56 181 51 b 111 196 103 33 107 151 b 244 208 153 182 201 185 b 236 151 244 208 240 175 z "},"\u0000":{"ha":0,"x_min":0,"x_max":0,"o":""},"\r":{"ha":347,"x_min":0,"x_max":0,"o":""}," ":{"ha":347,"x_min":0,"x_max":0,"o":""}}}
